<svg version="1.2" xmlns="http://www.w3.org/2000/svg" viewBox="0 0 1080 1081" width="1080" height="1081">
	<defs>
		<clipPath clipPathUnits="userSpaceOnUse" id="cp1">
			<path d="m108 176.3h847v647h-847z"/>
		</clipPath>
	</defs>
	<style>
		.s0 { fill: #d4d4d4 } 
		.s1 { fill: #3b3c3d } 
		.s2 { fill: #5f6061 } 
		.s3 { fill: #231f20 } 
		.s4 { fill: #505152 } 
		.s5 { fill: #616263 } 
		.s6 { fill: #d6d6d6 } 
		.s7 { fill: #48494a } 
		.s8 { fill: #707173 } 
		.s9 { fill: #434445 } 
		.s10 { fill: #db9e00 } 
		.s11 { fill: #666769 } 
		.s12 { fill: #ffb800 } 
		.s13 { fill: #f2f2f2 } 
	</style>
	<g id="Clip-Path" clip-path="url(#cp1)">
		<g>
		</g>
	</g>
	<path class="s0" d="m439.91 763.7c-137.19 0-248.4 5.43-248.4 12.14 0 6.7 111.21 12.14 248.4 12.14 137.18 0 248.4-5.44 248.4-12.14 0-6.71-111.22-12.14-248.4-12.14zm372.6-4.23c-59.87 0-108.42 5.44-108.42 12.14 0 6.7 48.55 12.14 108.42 12.14 59.88 0 108.42-5.44 108.42-12.14 0-6.7-48.54-12.14-108.42-12.14z"/>
	<path class="s1" d="m791.03 747.76c1.76-2.15 5.27-6.21 9.26-11.09l-29.97 2.11c0 0-2.37 0.8 3.49 3.49 2.73 1.25 7.31 2.8 11.45 4.11l-21.13 1.48c0 0-2.37 0.81 3.49 3.49 2.64 1.21 7.02 2.71 11.06 3.99 5.43-2.46 10.36-5.17 12.35-7.58z"/>
	<path class="s2" d="m351.83 579.42h2.44v-7.15h5.08v14.03h10.45v-25.22h-3.55v-15.87c-2.04-3.69-1.05-2.99-3.44-5.2-2.75-2.56-13.29-7.53-13.29-7.53 0.79 1.97 1.4 3.93 1.4 5.25 0 1.24-0.11 2.76-0.25 4.25 0 0 6.9 1.48 7.6 6.55 0.41 2.94 0.42 8.07 0.32 12.55h-7.76v11.2h1z"/>
	<path class="s3" d="m746.14 352.27c-4.2 3-8.03 6.55-11.73 9.98-2.06 1.92-4.11 3.83-6.25 5.66-0.92 0.79-2.07 1.91-3.36 3.18-2.28 2.23-5.41 5.28-8.47 7.45q-2.89 1.47-5.9 2.66-0.58 0.05-1.1-0.04l-0.11 0.5c-4.11 1.56-8.32 2.85-12.48 4.11-5.22 1.57-10.64 3.2-15.74 5.38-2.14 0.9-4.53 1.69-7.06 2.54-5.37 1.77-10.92 3.61-15.03 6.9-0.61 0.48-1.13 1.02-1.64 1.58-1.82 2.02-3.03 4.48-3.87 7.09-0.63 1.94-1.05 3.96-1.38 5.94q-0.08 0.41-0.14 0.83c-1.7 0.5-2.94 2.06-2.94 3.95 0 2.27 1.81 4.11 4.05 4.11 2.23 0 4.05-1.84 4.05-4.11 0-1.64-0.94-3.03-2.28-3.7q0.08-0.51 0.16-1.02c0.43-2.43 1-4.84 1.91-7 0.89-2.13 2.12-4.02 3.88-5.43 1.69-1.35 3.74-2.43 5.92-3.39 2.61-1.14 5.42-2.1 8.21-3.02 2.6-0.86 5.04-1.66 7.3-2.63 4.95-2.11 10.28-3.72 15.44-5.27 4.57-1.38 9.2-2.79 13.73-4.57 2.11-0.32 4.3-1.41 6.48-2.91 2.66-1.37 5.26-2.92 7.74-4.78 5.94-4.49 10.1-8.17 14.35-12.69 3.44-3.67 10.06-5.31 15.39-6.64l1.13-0.28c5.42-1.36 11.49-1.26 17.35-1.13q2.46 0.05 4.89 0.05 0.72 0.01 1.45 0.01c6.9 0.01 14.48 0.26 20.48 4.06q1.03 0.64 2.12 1.29 1.17 0.69 2.31 1.41c1.28 0.82 2.48 1.7 3.51 2.7-1.42 1.08-2.35 2.79-2.35 4.73 0 3.15 2.42 5.69 5.47 5.88q0.39 1.72 0.6 3.7c0.32 2.92 0.34 6.04-0.19 8.45-0.62 2.87-2.52 5.49-4.54 8.27-1.36 1.88-2.77 3.82-3.75 5.86-3.95 8.18-7.82 17.87-6.47 27.64 1.37 10.01 3.43 19.11 5.78 29.11q0.59 2.57 1.14 5.16c1.13 5.26 2.29 10.7 4.41 15.78 1.99 4.79 5.61 10.92 11.5 12.92q1.55 0.52 2.98 0.51c2.52 0 4.75-1.09 6.74-2.54 1.23-0.9 2.36-1.93 3.39-2.94 0.75 0.36 1.58 0.57 2.46 0.57 3.2 0 5.81-2.65 5.81-5.92 0-3.28-2.61-5.92-5.81-5.92-3.22 0-5.83 2.64-5.83 5.92 0 1.32 0.44 2.52 1.14 3.5-1.02 0.99-2.09 1.94-3.22 2.71-2.06 1.42-4.29 2.22-6.74 1.38-4.87-1.65-8-7.05-9.76-11.29-2.01-4.84-3.16-10.15-4.25-15.28q-0.56-2.62-1.16-5.21c-2.33-9.94-4.38-18.96-5.73-28.85-1.24-9.01 2.44-18.2 6.21-26 0.87-1.8 2.14-3.56 3.49-5.41 2.1-2.9 4.27-5.9 5.02-9.35 0.61-2.8 0.59-6.33 0.21-9.61q-0.23-1.96-0.61-3.71c1.97-0.94 3.34-2.96 3.34-5.32 0-3.29-2.61-5.94-5.82-5.94-0.23 0-0.44 0.05-0.66 0.08-1.1-1.28-2.4-2.37-3.78-3.32q-1.7-1.16-3.38-2.14-1.06-0.63-2.05-1.25c-6.53-4.13-14.33-4.48-21.48-4.51q-1.01 0-1.99 0-2.4-0.01-4.84-0.06c-6.05-0.13-12.31-0.23-18.1 1.22l-1.13 0.28c-3.25 0.8-6.94 1.74-10.27 3.18q1.73-1.43 3.52-2.71c6.63-4.71 15.34-10.19 23.98-10.72 3.13-0.18 6.79 0.43 10.38 1.46 0.27-1.07 0.51-1.85 0.7-2.19q0.11-0.21 0.29-0.55c-3.94-1.16-7.99-1.84-11.55-1.6-9.37 0.59-18.53 6.32-25.47 11.26z"/>
	<path class="s3" d="m562.53 401.37c-3.75 0.15-7.62 0.31-11.09 1.6-6.54 2.45-12.05 12.75-15.34 18.9l-0.28 0.54c-4.75 8.85-7.83 18.96-10.8 28.75q-1.08 3.52-2.2 7.06 1.39-1.06 2.8-2.11h-0.01l1.33-1.42q0.42-1.36 0.83-2.7c2.94-9.65 5.98-19.63 10.59-28.23l0.29-0.54c2.89-5.41 8.28-15.49 13.79-17.54 3.04-1.14 6.69-1.29 10.21-1.44 2.28-0.09 4.65-0.18 6.86-0.55q0.39-0.05 0.78-0.1 0.83-1.74 2.09-3.18c-1.11 0.14-2.22 0.26-3.33 0.44-2.05 0.33-4.22 0.43-6.52 0.52z"/>
	<path class="s3" d="m521.92 451.27c3.11-12.74 6.32-25.91 11.26-38.18 8.12-20.15 33.38-20.46 57.31-19.38l5.29-2.63c-25.08-1.27-55.82-2.55-65.27 20.94-5.02 12.46-8.26 25.73-11.39 38.56-1.06 4.35-2.14 8.75-3.29 13.14q1.85-1.5 3.75-3 1.2-4.75 2.34-9.45z"/>
	<path class="s0" d="m878.52 531.06l11.4-2.98 12.14 46.5-11.41 2.98z"/>
	<path class="s1" d="m846.05 397.61c-0.91 1.21-3.03 4.33-4.98 7.22l27.89 106.86-3.15 0.83 3.88 14.82 3.14-0.82 1.46 5.62 4.22-1.1 11.41-2.98 4.23-1.1-1.47-5.62 3.14-0.82-3.87-14.83-3.14 0.83-30.74-117.81-0.08 0.02q-0.25 0.68-0.78 1.39c-3.11 4.15-9.28 5.02-11.16 7.49z"/>
	<path class="s4" d="m462.57 529.15c22.39-36.74 66.53-88.88 142.79-105.9 0.7-0.16 2.75-0.81 2.75-0.81l45.28-13.17c0.84-2.62 2.06-5.08 3.87-7.09l-33.85 9.86c0 0-2.42 0.76-3.25 0.94-10.81 2.42-21.06 5.44-30.78 8.95 3.45-1.81 6.05-4.98 7.06-8.84 0.3-1.14 0.51-2.31 0.51-3.54 0-6.66-4.65-12.2-10.87-13.63q-1.53-0.37-3.14-0.38c-4.24 0-7.99 1.91-10.56 4.88q-1.26 1.44-2.09 3.18c-0.86 1.81-1.37 3.81-1.37 5.95q0.01 0.14 0.03 0.28l-42.01 44.86-1.33 1.42h0.01q-1.42 1.05-2.8 2.12-1.64 1.24-3.24 2.5-1.9 1.49-3.75 3c-25.68 20.98-44.72 44.62-58.27 65.29 1.75-0.09 3.53-0.08 5.01 0.13zm112.85-101.72l3.82-4.43c1.18 0.32 2.41 0.56 3.7 0.56q1.43-0.01 2.78-0.29-5.25 1.99-10.3 4.16zm7.07-28.07c5.38 0 9.73 4.36 9.73 9.73 0 5.38-4.36 9.74-9.73 9.74-5.38 0-9.73-4.36-9.73-9.74 0-5.37 4.35-9.73 9.73-9.73z"/>
	<path class="s4" d="m508.04 591.41l0.19 1.27c4.21-16.41 11.3-34.76 23.09-53.04l3.74-9.68 2.32 0.9q1.99-2.71 4.14-5.41l6.95-18c-27.05 28.07-37.44 59.39-41.2 82.83 0.48 0.71 0.77 1.13 0.77 1.13z"/>
	<path class="s5" d="m659.15 420.81c0 3.2-2.59 5.79-5.79 5.79-3.2 0-5.79-2.59-5.79-5.79 0-2.73 1.9-5 4.44-5.61 0.34-1.98 0.76-4 1.38-5.94l-45.27 13.18c0 0-2.06 0.65-2.76 0.8-76.25 17.03-120.39 69.17-142.79 105.91 1.31 0.18 2.38 0.52 2.95 1.09 1.94 1.94 24.55 34.87 35.98 51.59q-0.01-0.94-0.03-1.9c-0.07-3.29-0.14-6.7 0.55-9.92 1.44-6.86 4.88-13.07 8.2-19.07 1.13-2.03 2.23-4.03 3.25-6.02 1.38-2.73 2.88-5.43 4.37-8.11 7.13-12.79 13.84-24.91 7.41-39.45q-0.48 0.1-1 0.1c-3.2 0-5.79-2.59-5.79-5.79 0-3.2 2.6-5.78 5.79-5.78 3.2 0 5.79 2.59 5.79 5.78 0 1.82-0.86 3.43-2.18 4.49 7.04 15.88-0.33 29.18-7.5 42.05-1.47 2.65-2.96 5.31-4.33 8.01-1.02 2.02-2.15 4.06-3.29 6.11-3.22 5.82-6.55 11.83-7.91 18.27-0.61 2.91-0.54 6.14-0.48 9.26q0.04 1.52 0.04 2.99 0 1.33-0.03 2.67 0 0.24 0 0.5c1.29 1.88 2.27 3.32 2.91 4.25 3.76-23.43 14.15-54.76 41.2-82.82l14.97-38.74-1.13-0.43 2.18-5.66c-1.82-1.91-2.96-4.49-2.96-7.35 0-5.89 4.78-10.66 10.68-10.66 5.88 0 10.67 4.78 10.67 10.66 0 5.37-3.97 9.76-9.11 10.52l-2.33 6.02-1.66-0.65-9.85 25.52c14.18-12.15 31.99-23.34 54.35-32.55 23.25-9.57 92.75-38.99 92.75-38.99l33.28-12.58 11.45 1.15 40.07-27.72c0 0 5.02-4.9 5.25-10.3 0.22-5.38-7.56-7.75-7.56-7.75 0 0-23.28 3.26-30.08 4.21-6.8 0.96-16.6 3.18-16.6 3.18l-6.42 8.14-33.93 11.48-45.67 13.3c-0.91 2.16-1.48 4.57-1.9 7 2.43 0.69 4.23 2.91 4.23 5.56zm125.38-50.02c4.06 0 7.35 3.35 7.35 7.49 0 4.14-3.29 7.49-7.35 7.49-4.07 0-7.36-3.35-7.36-7.49 0-4.14 3.29-7.49 7.36-7.49z"/>
	<path class="s6" d="m569.78 471.17l-6.34-2.45-14.97 38.74-6.95 17.99-2.36 6.1 6.35 2.45 8.96-23.2 5.46-14.11z"/>
	<path class="s1" d="m537.38 530.86l-2.32-0.9-3.74 9.68-1.97 5.1 1.75 0.67-20.46 52.93 0.64-0.06 1.29 2.67 2.88-0.33v0.47l2.88-0.31v1.07l1.83 4.73 21.99-56.89 1.75 0.67 5.7-14.78-4.09-1.58-6.35-2.45z"/>
	<path class="s1" d="m573.77 465.8c5.14-0.76 9.11-5.15 9.11-10.52 0-5.88-4.79-10.66-10.67-10.66-5.9 0-10.68 4.78-10.68 10.66 0 2.86 1.14 5.44 2.96 7.36l-2.18 5.65 1.13 0.43 6.34 2.46 1.66 0.64zm-1.9-16.99c3.39 0 6.14 2.74 6.14 6.14 0 3.38-2.75 6.13-6.14 6.13-3.39 0-6.13-2.75-6.13-6.13 0-3.4 2.74-6.14 6.13-6.14z"/>
	<path class="s0" d="m723.53 332.2l47.87-23.84 5.11 10.28-47.87 23.82z"/>
	<path class="s1" d="m586.08 395.91c6.22 1.43 10.87 6.98 10.87 13.63 0 1.24-0.21 2.41-0.51 3.55l112.79-56.18 1.41 2.82 15.47-7.71-1.41-2.82 5.86-2.92-1.9-3.81-5.11-10.27-1.89-3.81-5.87 2.92-1.42-2.83-15.46 7.71 1.41 2.82-104.54 52.07-5.29 2.64z"/>
	<path class="s1" d="m777.09 319.75l4.87-2.43c-2.57-2.69-4.18-6.32-4.18-10.34 0-1.68 0.34-3.28 0.85-4.79l-8.24 4.1 1.03 2.06 5.11 10.27z"/>
	<path class="s4" d="m617.71 722.27c-0.93-0.02-1.99-0.04-3.05-0.05-1.13-4.1-2.89-8-5.2-11.53q0.44-0.44 0.75-0.77c3.12-3.38-9.62-17.45-13.2-14.19-0.72 0.67-1.54 1.42-2.36 2.18-3.84-1.7-8.2-2.73-13.01-2.96q-0.01-0.35-0.02-0.69c-0.04-4.84-19.03-4.58-19.38 0-0.01 0.18-0.02 0.43-0.02 0.66-4.56 0.02-9.04 0.04-13.34 0.05q-0.01-0.36-0.01-0.71c-0.04-4.84-19.03-4.58-19.38 0-0.01 0.21-0.02 0.5-0.03 0.77q-6.93 0.02-13.33 0.03-0.01-0.41-0.01-0.8c-0.05-4.84-19.03-4.59-19.38 0-0.01 0.22-0.03 0.52-0.04 0.82q-7.04 0-13.33 0 0-0.43-0.01-0.82c-0.02-2.54-5.2-3.66-10.2-3.52l6.73 10.38h93.93c38.12 0 43.22 51.96 10.19 62.76 0.62-0.76 1.01-1.72 1.01-2.78 0-2.44-1.98-4.41-4.41-4.41-1.44 0-2.69 0.69-3.51 1.74-1.04 0.36-2.03 0.56-2.94 0.7-0.92-0.14-1.89-0.34-2.94-0.7-0.81-1.05-2.07-1.74-3.51-1.74-2.43 0-4.41 1.97-4.41 4.41 0 2.44 1.98 4.42 4.41 4.42 1.44 0 2.7-0.7 3.51-1.75q1.58-0.52 2.94-0.69 1.37 0.17 2.94 0.69c0.47 0.61 1.1 1.08 1.82 1.38-1.63 0.29-3.31 0.53-5.1 0.64-23.04 1.32-68.72 1.61-115.74 1.48-47.02 0.14-165.07-0.15-188.11-1.48-43.91-2.55-41.66-64.67 0-64.67h87.87l2.61-6.04c-2.61 0-5.28 0-8.08 0q-0.01-0.42-0.01-0.82c-0.05-4.84-19.03-4.58-19.38 0-0.01 0.22-0.03 0.51-0.04 0.8-4.25 0-8.72-0.02-13.33-0.03q0-0.4-0.01-0.76c-0.04-4.85-19.03-4.59-19.37 0-0.02 0.19-0.02 0.46-0.04 0.71q-6.46-0.02-13.33-0.05-0.01-0.34-0.01-0.66c-0.04-4.85-19.03-4.59-19.38 0-0.01 0.16-0.02 0.39-0.03 0.59-6.29 0.03-11.78 1.45-16.49 3.85-1.09-1.01-2.24-2.08-3.22-2.97-3.58-3.27-16.33 10.81-13.2 14.19 0.49 0.53 1.36 1.36 2.29 2.23-1.85 3.13-3.27 6.52-4.26 10.04-1.77 0.02-3.85 0.04-5.53 0.08-4.85 0.09-4.39 19.07 0.19 19.37 0.95 0.06 2.64 0.06 4.34 0.03 0.65 3.85 1.83 7.57 3.53 11.02-1.16 1.07-2.27 2.13-2.87 2.77-3.11 3.38 9.62 17.46 13.2 14.19 0.9-0.82 1.94-1.78 2.95-2.72 5.18 2.95 11.51 4.7 19.07 4.74 0.01 0.22 0.02 0.46 0.03 0.62 0.35 4.59 19.34 4.85 19.38 0q0-0.3 0-0.63c4.58-0.01 9-0.01 13.34-0.01 0.01 0.22 0.02 0.47 0.03 0.64 0.35 4.59 19.34 4.85 19.38 0q0-0.32 0.01-0.66 6.91-0.01 13.34-0.02c0.01 0.24 0.01 0.49 0.03 0.68 0.34 4.59 19.33 4.85 19.37 0q0.01-0.34 0.01-0.68 7.03 0 13.34 0c0.01 0.24 0.02 0.49 0.03 0.68 0.35 4.59 19.34 4.85 19.38 0q0-0.32 0.01-0.67 7.39 0.01 13.33 0.02c0.01 0.23 0.02 0.47 0.03 0.65 0.35 4.59 19.34 4.85 19.38 0q0-0.3 0-0.62 5.75 0.02 5.75 0.02-0.01 0 7.6-0.03c0.01 0.22 0.01 0.46 0.02 0.63 0.35 4.59 19.34 4.84 19.38 0q0-0.32 0.01-0.66 5.99-0.01 13.34-0.01c0.01 0.23 0.01 0.48 0.03 0.67 0.35 4.59 19.33 4.84 19.38 0q0-0.33 0.01-0.69 6.32 0 13.33 0c0.01 0.24 0.02 0.5 0.03 0.69 0.35 4.59 19.34 4.84 19.38 0q0-0.33 0.01-0.67 6.44 0 13.34 0.01c0.01 0.22 0.01 0.48 0.02 0.66 0.35 4.59 19.34 4.85 19.38 0q0-0.31 0.01-0.64 6.5 0 13.34 0.01c0.01 0.22 0.01 0.46 0.02 0.63 0.35 4.59 19.34 4.85 19.38 0q0-0.34 0.02-0.7c6-0.27 11.2-1.63 15.62-3.83 0.71 0.66 1.42 1.31 2.05 1.89 3.58 3.27 16.33-10.81 13.2-14.19-0.29-0.31-0.72-0.74-1.19-1.19 2.16-3.87 3.59-8.15 4.34-12.58 0.73-0.01 1.4-0.02 1.86-0.05 4.58-0.3 5.03-19.29 0.19-19.38zm-50 41.86c-1.66 0-3.02-1.35-3.02-3.03 0-1.66 1.35-3.02 3.02-3.02 1.67 0 3.02 1.36 3.02 3.02 0 1.68-1.35 3.03-3.02 3.03zm9.87-3.03c0-1.66 1.35-3.02 3.02-3.02 1.68 0 3.02 1.36 3.02 3.02 0 1.68-1.34 3.03-3.02 3.03-1.67 0-3.02-1.35-3.02-3.03z"/>
	<path class="s1" d="m552.82 710.33c-1.05-0.36-2.03-0.56-2.95-0.69-0.91 0.13-1.89 0.33-2.94 0.69-0.65 0.85-1.6 1.45-2.69 1.65h11.27c-1.09-0.2-2.04-0.8-2.69-1.65z"/>
	<path class="s1" d="m483.47 703.25c2.44 0 4.42 1.97 4.42 4.41 0 1.36-0.62 2.55-1.58 3.36l0.83 1.28-52.12-0.23q-0.06 0.01-0.11 0.01-0.06 0-0.1-0.01l-12.24-0.05q-0.28 0.05-0.56 0.06-0.33-0.01-0.65-0.06c0.14 0.34-0.15 1.09-0.4 1.63q0.1 0.2 0.19 0.4c0.58 0.14 1.39 0.38 1.54 0.73 0.06 0.11 0.16 0.55 0.24 0.9 0.09 0.35 0.18 0.79 0.18 0.92 0 0.37-0.61 0.94-1.08 1.33q0.01 0.1 0.01 0.21 0 0.11-0.01 0.22c0.46 0.38 1.08 0.95 1.08 1.32 0 0.13-0.09 0.58-0.18 0.92-0.08 0.35-0.18 0.8-0.24 0.91-0.16 0.33-0.96 0.58-1.54 0.72q-0.09 0.2-0.19 0.4c0.13 0.28 0.27 0.61 0.35 0.92h104.01v-6.23c0 0-0.15-5.33 4.41-5.33h1.49c-1.09-0.21-2.03-0.8-2.68-1.65-1.06-0.36-2.03-0.57-2.95-0.69-0.91 0.12-1.89 0.33-2.94 0.69-0.81 1.05-2.07 1.75-3.5 1.75-2.44 0-4.42-1.98-4.42-4.42 0-2.44 1.97-4.41 4.42-4.41 1.43 0 2.69 0.68 3.5 1.74 1.05 0.35 2.03 0.56 2.94 0.69 0.92-0.13 1.9-0.34 2.95-0.69 0.8-1.06 2.06-1.74 3.5-1.74 2.43 0 4.41 1.97 4.41 4.41 0 2.12-1.5 3.9-3.5 4.32h9.56c-2-0.42-3.5-2.19-3.5-4.32 0-2.44 1.97-4.41 4.42-4.41 1.43 0 2.69 0.68 3.5 1.74 1.05 0.35 2.03 0.56 2.94 0.69 0.92-0.13 1.9-0.34 2.95-0.69 0.8-1.06 2.07-1.74 3.5-1.74 2.44 0 4.41 1.97 4.41 4.41 0 2.12-1.5 3.9-3.5 4.32h7.97c0 0 0.59 0 1.59 0-1.99-0.42-3.5-2.19-3.5-4.32 0-2.44 1.98-4.41 4.42-4.41 1.43 0 2.69 0.68 3.5 1.74 1.05 0.35 2.03 0.56 2.94 0.69 0.91-0.13 1.9-0.34 2.95-0.69 0.8-1.06 2.06-1.74 3.5-1.74 2.44 0 4.41 1.97 4.41 4.41 0 2.12-1.5 3.9-3.49 4.32h11.19c4.57 0 4.41 5.33 4.41 5.33v33.78c0 0 0.16 5.34-4.41 5.34h-11.99c-9.58 0-15.52 0-15.52 0h-35.47c-4.56 0-4.41-5.34-4.41-5.34v-3.68h-10.71q-0.07 0.07-0.15 0.13 0.01 0.11 0.01 0.22 0 0.1-0.01 0.21c0.47 0.38 1.08 0.96 1.08 1.33 0 0.13-0.1 0.57-0.18 0.92-0.07 0.35-0.18 0.79-0.24 0.91-0.16 0.33-0.96 0.58-1.54 0.71q-0.09 0.2-0.19 0.41c0.26 0.54 0.55 1.32 0.4 1.65-0.06 0.12-0.34 0.48-0.57 0.76-0.21 0.28-0.5 0.63-0.61 0.7-0.28 0.23-1.1 0.11-1.69-0.01q-0.18 0.14-0.35 0.26c-0.01 0.61-0.08 1.45-0.36 1.68-0.02 0.01-0.09 0.05-0.13 0.07 1.25 0.78 2.08 2.16 2.08 3.73 0 2.45-1.98 4.43-4.41 4.43-1.44 0-2.69-0.7-3.5-1.75-1.05-0.36-2.03-0.57-2.94-0.7-0.92 0.13-1.9 0.34-2.95 0.7-0.81 1.05-2.07 1.75-3.5 1.75-2.44 0-4.42-1.98-4.42-4.43 0-2.43 1.98-4.41 4.42-4.41 1.43 0 2.69 0.69 3.5 1.75 1.05 0.35 2.03 0.56 2.95 0.69q1-0.15 2.12-0.46c-0.3-0.24-0.62-0.77-0.83-1.21q-0.23-0.05-0.43-0.11c-0.48 0.37-1.18 0.85-1.53 0.76-0.13-0.03-0.54-0.22-0.86-0.38-0.33-0.15-0.74-0.36-0.83-0.43-0.29-0.23-0.36-1.07-0.36-1.68q-0.18-0.12-0.35-0.26c-0.6 0.13-1.41 0.25-1.7 0.02-0.1-0.08-0.39-0.43-0.61-0.72-0.23-0.27-0.5-0.63-0.56-0.75-0.17-0.33 0.14-1.11 0.4-1.65q-0.11-0.21-0.19-0.41c-0.59-0.13-1.39-0.38-1.55-0.72-0.06-0.11-0.17-0.55-0.24-0.91-0.08-0.35-0.18-0.79-0.18-0.91 0-0.38 0.61-0.95 1.08-1.33q-0.01-0.11-0.01-0.21 0-0.11 0.01-0.22-0.08-0.06-0.15-0.13h-26.14q-0.08 0.07-0.16 0.13 0.01 0.11 0.02 0.22-0.01 0.1-0.02 0.21c0.47 0.38 1.09 0.95 1.09 1.33 0 0.12-0.1 0.56-0.18 0.91-0.08 0.35-0.18 0.8-0.24 0.92-0.17 0.33-0.96 0.58-1.55 0.71q-0.09 0.21-0.18 0.4c0.25 0.55 0.55 1.32 0.39 1.66-0.05 0.12-0.33 0.47-0.56 0.76-0.22 0.28-0.5 0.63-0.61 0.7-0.29 0.23-1.11 0.11-1.7-0.01q-0.17 0.14-0.35 0.26c-0.01 0.61-0.07 1.45-0.36 1.68-0.1 0.07-0.5 0.28-0.82 0.43-0.29 0.14-0.61 0.29-0.78 0.35 0.75 0.79 1.21 1.85 1.21 3.02 0 2.44-1.98 4.42-4.41 4.42-1.44 0-2.7-0.69-3.5-1.74-1.05-0.36-2.04-0.57-2.95-0.7-0.92 0.13-1.9 0.34-2.94 0.7-0.82 1.05-2.07 1.74-3.5 1.74-2.44 0-4.42-1.97-4.42-4.42 0-2.43 1.98-4.41 4.42-4.41 1.43 0 2.68 0.69 3.5 1.75q1.57 0.51 2.94 0.68c0.91-0.12 1.9-0.33 2.95-0.68q0.35-0.45 0.79-0.79-0.05-0.1-0.1-0.19-0.22-0.05-0.43-0.11c-0.48 0.37-1.17 0.84-1.53 0.75-0.12-0.02-0.54-0.21-0.86-0.37-0.33-0.15-0.73-0.36-0.83-0.43-0.29-0.23-0.36-1.07-0.36-1.68q-0.18-0.13-0.35-0.26c-0.59 0.12-1.41 0.24-1.7 0.02-0.1-0.08-0.38-0.43-0.61-0.72-0.23-0.27-0.5-0.63-0.56-0.75-0.16-0.34 0.15-1.11 0.4-1.66q-0.1-0.19-0.19-0.4c-0.59-0.14-1.39-0.38-1.54-0.72-0.06-0.11-0.17-0.56-0.25-0.91-0.08-0.35-0.17-0.79-0.17-0.92 0-0.37 0.61-0.94 1.08-1.32q-0.01-0.11-0.01-0.22 0-0.11 0.01-0.21-0.08-0.07-0.15-0.13h-26.15q-0.08 0.06-0.15 0.13 0.01 0.1 0.01 0.21 0 0.11-0.01 0.22c0.47 0.38 1.08 0.95 1.08 1.32 0 0.13-0.09 0.57-0.17 0.92-0.08 0.35-0.18 0.8-0.24 0.91-0.16 0.33-0.96 0.58-1.55 0.72q-0.09 0.2-0.19 0.4c0.26 0.55 0.56 1.32 0.4 1.66-0.06 0.11-0.33 0.47-0.56 0.75-0.22 0.29-0.51 0.64-0.61 0.71-0.29 0.23-1.11 0.11-1.7-0.01q-0.17 0.13-0.35 0.26c0 0.61-0.07 1.44-0.36 1.67-0.1 0.08-0.5 0.28-0.83 0.44-0.32 0.16-0.73 0.35-0.86 0.38-0.36 0.08-1.05-0.39-1.53-0.77q-0.21 0.07-0.43 0.11-0.14 0.29-0.33 0.6c0.77 0.79 1.24 1.86 1.24 3.05 0 2.44-1.98 4.42-4.42 4.42-1.43 0-2.69-0.69-3.5-1.75-1.05-0.35-2.03-0.56-2.94-0.69-0.92 0.13-1.89 0.34-2.95 0.69-0.81 1.05-2.06 1.75-3.5 1.75-2.44 0-4.42-1.98-4.42-4.42 0-2.44 1.98-4.41 4.42-4.41 1.44 0 2.69 0.68 3.5 1.74 1.06 0.36 2.04 0.56 2.95 0.69 0.91-0.13 1.89-0.33 2.94-0.69q0.25-0.3 0.54-0.56-0.16-0.07-0.32-0.14c-0.32-0.16-0.73-0.36-0.82-0.44-0.29-0.23-0.36-1.06-0.36-1.67q-0.18-0.13-0.35-0.27c-0.6 0.13-1.41 0.25-1.7 0.02-0.09-0.07-0.39-0.43-0.61-0.71-0.23-0.28-0.51-0.63-0.56-0.75-0.16-0.34 0.14-1.11 0.4-1.66q-0.11-0.2-0.19-0.4c-0.59-0.14-1.39-0.39-1.55-0.73-0.05-0.1-0.16-0.55-0.24-0.9-0.08-0.35-0.17-0.79-0.17-0.92 0-0.37 0.61-0.94 1.08-1.33q-0.01-0.11-0.01-0.21 0-0.11 0.01-0.22-0.08-0.06-0.16-0.13h-26.14q-0.08 0.07-0.15 0.13 0.01 0.11 0.01 0.22 0 0.11-0.01 0.21c0.47 0.39 1.08 0.96 1.08 1.33 0 0.13-0.1 0.57-0.18 0.92-0.08 0.35-0.18 0.79-0.24 0.91-0.16 0.33-0.96 0.58-1.54 0.72q-0.09 0.2-0.19 0.39c0.25 0.56 0.55 1.33 0.4 1.67-0.06 0.11-0.34 0.46-0.57 0.75-0.22 0.28-0.51 0.63-0.61 0.71-0.28 0.23-1.11 0.11-1.69-0.02q-0.18 0.14-0.35 0.27c-0.01 0.46-0.05 1.05-0.2 1.41q0.8-0.34 1.72-0.35c1.43 0 2.69 0.69 3.5 1.75 1.05 0.36 2.03 0.56 2.95 0.69 0.91-0.13 1.89-0.33 2.94-0.69 0.81-1.06 2.07-1.75 3.5-1.75 2.44 0 4.42 1.98 4.42 4.41 0 2.45-1.98 4.43-4.42 4.43-1.43 0-2.69-0.7-3.5-1.75-1.05-0.36-2.03-0.57-2.94-0.7-0.92 0.13-1.9 0.34-2.95 0.7-0.81 1.05-2.07 1.75-3.5 1.75-2.44 0-4.42-1.98-4.42-4.43 0-1.29 0.57-2.44 1.45-3.25-0.25 0.12-0.51 0.24-0.61 0.26-0.35 0.09-1.05-0.39-1.53-0.76q-0.21 0.06-0.43 0.11c-0.27 0.54-0.68 1.26-1.04 1.34-0.13 0.03-0.58 0.03-0.94 0.03q-0.05 0-0.11 0c0.41 0.67 0.66 1.44 0.66 2.28 0 2.44-1.98 4.42-4.42 4.42-1.44 0-2.69-0.69-3.5-1.75-1.05-0.35-2.03-0.56-2.95-0.69-0.91 0.13-1.89 0.34-2.94 0.69-0.81 1.05-2.07 1.75-3.5 1.75-2.44 0-4.42-1.98-4.42-4.42 0-2.44 1.98-4.41 4.42-4.41 1.43 0 2.69 0.68 3.5 1.74 1.05 0.36 2.03 0.56 2.94 0.69 0.92-0.13 1.9-0.33 2.95-0.69 0.43-0.56 0.99-1 1.63-1.31-0.19-0.34-0.25-0.99-0.25-1.5q-0.18-0.13-0.35-0.27c-0.6 0.13-1.41 0.25-1.69 0.02-0.1-0.07-0.39-0.43-0.62-0.71-0.22-0.28-0.5-0.63-0.56-0.75-0.16-0.34 0.14-1.11 0.4-1.67q-0.1-0.19-0.19-0.39c-0.59-0.14-1.38-0.39-1.54-0.73-0.06-0.1-0.17-0.55-0.24-0.9-0.09-0.35-0.18-0.79-0.18-0.92 0-0.37 0.61-0.94 1.08-1.33q-0.01-0.11-0.01-0.21 0-0.11 0.01-0.22-0.07-0.06-0.15-0.13h-26.14q-0.08 0.07-0.16 0.13 0.01 0.11 0.01 0.22 0 0.11-0.01 0.21c0.47 0.39 1.09 0.96 1.09 1.33 0 0.13-0.1 0.57-0.18 0.92-0.08 0.35-0.19 0.79-0.24 0.91-0.17 0.33-0.96 0.58-1.55 0.72q-0.09 0.2-0.19 0.39c0.26 0.56 0.55 1.33 0.4 1.67-0.06 0.11-0.34 0.46-0.57 0.75-0.21 0.28-0.5 0.63-0.6 0.71-0.29 0.23-1.11 0.11-1.7-0.02q-0.17 0.14-0.35 0.27c-0.01 0.36-0.04 0.8-0.12 1.15 1.13 0.19 2.12 0.78 2.8 1.66 1.05 0.36 2.03 0.56 2.94 0.69 0.91-0.13 1.9-0.33 2.95-0.69 0.81-1.05 2.06-1.74 3.5-1.74 2.43 0 4.41 1.97 4.41 4.41 0 2.44-1.98 4.42-4.41 4.42-1.44 0-2.69-0.69-3.5-1.75-1.05-0.35-2.04-0.56-2.95-0.69-0.91 0.13-1.89 0.34-2.94 0.69-0.82 1.05-2.07 1.75-3.5 1.75-2.44 0-4.42-1.98-4.42-4.42 0-1.49 0.74-2.8 1.87-3.6q-0.12-0.08-0.22-0.16-0.21 0.07-0.42 0.11c-0.27 0.55-0.69 1.26-1.04 1.34-0.13 0.03-0.59 0.03-0.94 0.03-0.36 0.01-0.81 0-0.94-0.03-0.36-0.08-0.78-0.8-1.05-1.34q-0.21-0.04-0.42-0.11c-0.24 0.19-0.53 0.39-0.8 0.55 0.85 0.8 1.4 1.94 1.4 3.21 0 2.44-1.98 4.42-4.41 4.42-1.44 0-2.7-0.69-3.51-1.75-1.04-0.35-2.03-0.56-2.94-0.69-0.92 0.13-1.9 0.34-2.95 0.69-0.81 1.05-2.06 1.75-3.5 1.75-2.44 0-4.42-1.98-4.42-4.42 0-2.44 1.98-4.41 4.42-4.41 1.44 0 2.69 0.69 3.5 1.74 1.06 0.36 2.04 0.56 2.95 0.7 0.91-0.14 1.9-0.34 2.94-0.7 0.81-1.05 2.07-1.74 3.51-1.74q0.17 0.01 0.33 0.03c-0.07-0.34-0.1-0.75-0.11-1.1q-0.18-0.13-0.34-0.27c-0.6 0.13-1.41 0.25-1.7 0.03-0.1-0.08-0.39-0.44-0.61-0.72-0.23-0.28-0.51-0.63-0.56-0.75-0.17-0.34 0.14-1.11 0.4-1.67q-0.11-0.19-0.2-0.39c-0.58-0.14-1.38-0.39-1.54-0.72-0.06-0.11-0.16-0.56-0.24-0.91-0.08-0.35-0.17-0.79-0.17-0.92 0-0.37 0.6-0.94 1.07-1.33q0-0.11-0.01-0.21 0-0.11 0.01-0.22-0.07-0.06-0.15-0.13h-5.49v-23.87h98.79c0.09-0.31 0.23-0.64 0.36-0.92q-0.1-0.19-0.19-0.4c-0.59-0.14-1.38-0.38-1.55-0.72-0.05-0.11-0.16-0.55-0.24-0.9-0.08-0.35-0.17-0.79-0.17-0.92 0-0.37 0.61-0.95 1.08-1.33q-0.01-0.11-0.01-0.21 0-0.11 0.01-0.22c-0.47-0.38-1.08-0.96-1.08-1.33 0-0.12 0.1-0.57 0.18-0.92 0.07-0.35 0.18-0.79 0.24-0.9 0.16-0.34 0.95-0.59 1.54-0.73q0.09-0.2 0.19-0.39c-0.25-0.55-0.56-1.33-0.4-1.67q0.03-0.02 0.05-0.06l-4.08-0.01q-0.56 0.16-1.17 0.17-0.62-0.01-1.19-0.18l-8.88-0.05q-0.63 0.21-1.32 0.23c-0.47 0-0.91-0.1-1.33-0.24l-10.11-0.04c-0.46 0.16-0.94 0.28-1.45 0.28q-0.82-0.01-1.54-0.29l-8.2-0.04q-0.77 0.32-1.65 0.33-0.88-0.02-1.63-0.35l-7.16-0.03 0.76-1.76q-0.66 0.16-1.37 0.39c-0.81 1.06-2.07 1.75-3.5 1.75-2.44 0-4.41-1.98-4.41-4.42 0-2.44 1.97-4.42 4.41-4.42 1.43 0 2.69 0.7 3.5 1.75 1.05 0.35 2.03 0.56 2.95 0.69q0.14-0.02 0.28-0.05l1.95-4.51h-87.88c-41.66 0-43.91 62.12 0 64.67 23.04 1.32 141.1 1.61 188.12 1.48 47.02 0.14 92.7-0.15 115.74-1.48 1.78-0.11 3.46-0.34 5.09-0.64-0.71-0.3-1.34-0.77-1.81-1.38q-1.58-0.52-2.94-0.69-1.38 0.17-2.95 0.69c-0.81 1.05-2.07 1.75-3.5 1.75-2.44 0-4.42-1.98-4.42-4.42 0-2.44 1.98-4.41 4.42-4.41 1.43 0 2.69 0.68 3.5 1.74 1.05 0.36 2.03 0.56 2.95 0.69 0.91-0.13 1.89-0.33 2.94-0.69 0.81-1.06 2.06-1.74 3.5-1.74 2.44 0 4.42 1.97 4.42 4.41 0 1.06-0.39 2.02-1.02 2.78 33.03-10.8 27.93-62.76-10.19-62.76h-93.93l1.67 2.57q0.87-0.43 1.91-0.44zm-158.59 0c1.43 0 2.69 0.69 3.5 1.75q1.58 0.51 2.95 0.69c0.91-0.13 1.89-0.34 2.94-0.69 0.81-1.06 2.07-1.75 3.51-1.75 2.43 0 4.41 1.97 4.41 4.41 0 2.44-1.98 4.42-4.41 4.42-1.44 0-2.7-0.69-3.51-1.75-1.05-0.35-2.03-0.56-2.94-0.69-0.92 0.13-1.9 0.34-2.95 0.69-0.81 1.06-2.07 1.75-3.5 1.75-2.44 0-4.42-1.97-4.42-4.42 0-2.44 1.98-4.41 4.42-4.41zm-24.29 0c1.44 0 2.7 0.69 3.5 1.75q1.58 0.51 2.95 0.69 1.37-0.17 2.95-0.69c0.8-1.06 2.06-1.75 3.5-1.75 2.44 0 4.41 1.97 4.41 4.41 0 2.44-1.97 4.42-4.41 4.42-1.44 0-2.69-0.69-3.5-1.75-1.05-0.35-2.04-0.56-2.95-0.69-0.92 0.13-1.89 0.34-2.95 0.69-0.8 1.06-2.06 1.75-3.5 1.75-2.43 0-4.41-1.97-4.41-4.42 0-2.44 1.98-4.41 4.41-4.41zm-6.97 30.97q-0.01 0.25-0.03 0.51c1.11 0.91 2.56 2.26 2.56 3.13 0 0.31-0.22 1.36-0.42 2.19-0.18 0.83-0.44 1.88-0.56 2.15-0.38 0.79-2.27 1.38-3.67 1.71q-0.21 0.48-0.45 0.94c0.61 1.3 1.32 3.14 0.94 3.93-0.13 0.27-0.79 1.12-1.32 1.79-0.53 0.67-1.21 1.5-1.45 1.69-0.68 0.54-2.62 0.26-4.03-0.04q-0.4 0.32-0.83 0.63c-0.01 1.44-0.16 3.41-0.84 3.96-0.25 0.19-1.21 0.67-1.97 1.04-0.49 0.23-1.03 0.49-1.46 0.67q1.42 0.44 2.67 0.61c0.91-0.13 1.9-0.34 2.95-0.69 0.81-1.06 2.06-1.75 3.5-1.75 2.44 0 4.41 1.98 4.41 4.41 0 2.45-1.97 4.43-4.41 4.43-1.44 0-2.69-0.7-3.5-1.75-1.05-0.36-2.04-0.57-2.95-0.7-0.91 0.13-1.89 0.34-2.94 0.7-0.81 1.05-2.07 1.75-3.5 1.75-2.45 0-4.42-1.98-4.42-4.43q0-0.35 0.07-0.69c-0.47 0.03-1.19 0.03-1.81 0.03-0.85 0.01-1.93-0.01-2.22-0.08-0.85-0.19-1.84-1.89-2.48-3.16q-0.51-0.12-1.01-0.26c-1.13 0.88-2.78 2-3.63 1.79-0.29-0.06-1.27-0.52-2.04-0.88-0.76-0.37-1.73-0.85-1.97-1.04-0.69-0.55-0.84-2.52-0.85-3.97q-0.42-0.3-0.82-0.63c-1.41 0.31-3.35 0.59-4.03 0.05-0.24-0.19-0.92-1.03-1.46-1.69-0.53-0.67-1.19-1.52-1.32-1.79-0.38-0.79 0.34-2.63 0.95-3.94q-0.24-0.46-0.45-0.93c-1.4-0.33-3.28-0.92-3.66-1.72-0.14-0.26-0.39-1.32-0.58-2.14-0.19-0.83-0.42-1.88-0.42-2.19 0-0.87 1.45-2.22 2.56-3.13q-0.02-0.26-0.02-0.51 0.01-0.27 0.02-0.52c-1.11-0.91-2.55-2.26-2.55-3.14-0.01-0.3 0.22-1.35 0.41-2.19 0.19-0.82 0.44-1.87 0.58-2.15 0.38-0.78 2.26-1.38 3.66-1.71q0.21-0.47 0.45-0.93c-0.61-1.3-1.33-3.14-0.95-3.93 0.13-0.28 0.79-1.12 1.33-1.8 0.53-0.66 1.2-1.49 1.45-1.68 0.68-0.55 2.62-0.26 4.03 0.04q0.4-0.32 0.82-0.63c0.01-1.44 0.16-3.41 0.85-3.96 0.24-0.19 1.21-0.67 1.97-1.04 0.77-0.37 1.75-0.82 2.04-0.9 0.85-0.19 2.5 0.92 3.63 1.8q0.51-0.13 1.01-0.25c0.64-1.28 1.63-2.97 2.48-3.17 0.29-0.07 1.37-0.08 2.22-0.08 0.62 0 1.3 0.01 1.77 0.04q-0.02-0.17-0.03-0.36c0-2.44 1.97-4.41 4.42-4.41 1.43 0 2.69 0.69 3.5 1.75q1.57 0.51 2.94 0.69 1.37-0.17 2.95-0.69c0.81-1.06 2.06-1.75 3.5-1.75 2.44 0 4.41 1.97 4.41 4.41 0 2.44-1.97 4.42-4.41 4.42-1.44 0-2.69-0.69-3.5-1.75-1.05-0.35-2.04-0.56-2.95-0.69q-1.04 0.15-2.19 0.48 0.5 0.23 0.98 0.46c0.76 0.37 1.72 0.85 1.97 1.04 0.68 0.55 0.83 2.52 0.85 3.96q0.42 0.31 0.82 0.63c1.41-0.3 3.35-0.59 4.03-0.04 0.24 0.18 0.92 1.02 1.45 1.68 0.54 0.67 1.19 1.52 1.33 1.8 0.37 0.78-0.34 2.63-0.95 3.93q0.24 0.46 0.46 0.93c1.39 0.33 3.27 0.92 3.66 1.71 0.13 0.27 0.38 1.32 0.56 2.15 0.2 0.84 0.42 1.89 0.43 2.19-0.01 0.88-1.45 2.23-2.57 3.14q0.02 0.25 0.03 0.52zm141.29 31.31c-1.44 0-2.7-0.7-3.5-1.75-1.06-0.36-2.04-0.57-2.95-0.7-0.92 0.13-1.9 0.34-2.94 0.7-0.82 1.05-2.07 1.75-3.5 1.75-2.45 0-4.43-1.98-4.43-4.43 0-2.43 1.98-4.41 4.43-4.41 1.43 0 2.68 0.69 3.5 1.75 1.05 0.35 2.03 0.56 2.94 0.69 0.91-0.13 1.89-0.34 2.95-0.69 0.8-1.06 2.06-1.75 3.5-1.75 2.43 0 4.41 1.98 4.41 4.41 0 2.45-1.98 4.43-4.41 4.43zm48.56 0c-1.43 0-2.69-0.7-3.5-1.75-1.05-0.36-2.03-0.57-2.94-0.7-0.92 0.13-1.9 0.34-2.95 0.7-0.81 1.05-2.07 1.75-3.5 1.75-2.44 0-4.42-1.98-4.42-4.43 0-2.43 1.98-4.41 4.42-4.41 1.43 0 2.69 0.69 3.5 1.75 1.05 0.35 2.03 0.56 2.95 0.69 0.9-0.13 1.89-0.34 2.94-0.69 0.81-1.06 2.07-1.75 3.5-1.75 2.44 0 4.42 1.98 4.42 4.41 0 2.45-1.98 4.43-4.42 4.43zm48.57 0c-1.44 0-2.7-0.7-3.5-1.75-1.06-0.36-2.03-0.57-2.95-0.7-0.91 0.13-1.89 0.34-2.94 0.7-0.81 1.05-2.07 1.75-3.5 1.75-2.44 0-4.42-1.98-4.42-4.43 0-2.43 1.97-4.41 4.42-4.41 1.43 0 2.69 0.69 3.5 1.75 1.05 0.35 2.03 0.56 2.94 0.69 0.92-0.13 1.9-0.34 2.95-0.69 0.8-1.06 2.06-1.75 3.5-1.75 2.43 0 4.41 1.98 4.41 4.41 0 2.45-1.98 4.43-4.41 4.43zm24.28 0c-1.43 0-2.7-0.7-3.5-1.75-1.05-0.36-2.03-0.57-2.95-0.7-0.91 0.13-1.89 0.34-2.94 0.7-0.81 1.05-2.07 1.75-3.5 1.75-2.44 0-4.42-1.98-4.42-4.43 0-2.43 1.97-4.41 4.42-4.41 1.43 0 2.69 0.69 3.5 1.75 1.05 0.35 2.03 0.56 2.94 0.69 0.92-0.13 1.9-0.34 2.95-0.69 0.8-1.06 2.07-1.75 3.5-1.75 2.44 0 4.41 1.98 4.41 4.41 0 2.45-1.97 4.43-4.41 4.43zm-61.46-62.28c1.44 0 2.69 0.69 3.5 1.75q1.58 0.51 2.95 0.69 1.37-0.17 2.95-0.69c0.8-1.06 2.06-1.75 3.5-1.75 2.43 0 4.41 1.97 4.41 4.41 0 2.44-1.98 4.42-4.41 4.42-1.44 0-2.7-0.69-3.5-1.75-1.06-0.35-2.04-0.56-2.95-0.69-0.92 0.13-1.9 0.34-2.95 0.69-0.81 1.06-2.06 1.75-3.5 1.75-2.44 0-4.42-1.97-4.42-4.42 0-2.44 1.98-4.41 4.42-4.41z"/>
	<path class="s1" d="m577.1 710.33c-1.05-0.36-2.03-0.56-2.94-0.69-0.92 0.13-1.9 0.33-2.95 0.69-0.65 0.85-1.6 1.45-2.68 1.65 2.51 0 6.36 0 11.26 0-1.09-0.2-2.04-0.8-2.69-1.65z"/>
	<path class="s7" d="m409.58 711.96l-6.61-0.03q-0.02 0.04-0.04 0.06c-0.16 0.34 0.15 1.11 0.4 1.66q-0.1 0.2-0.19 0.4c-0.59 0.14-1.38 0.38-1.54 0.73-0.06 0.11-0.17 0.55-0.24 0.9-0.08 0.35-0.18 0.79-0.18 0.92 0 0.37 0.61 0.94 1.08 1.33q-0.01 0.1-0.01 0.21 0 0.11 0.01 0.22c-0.47 0.38-1.08 0.95-1.08 1.32 0 0.13 0.1 0.58 0.17 0.92 0.08 0.35 0.19 0.8 0.24 0.91 0.17 0.33 0.96 0.58 1.55 0.72q0.09 0.2 0.19 0.4c-0.13 0.28-0.27 0.6-0.36 0.92h18.34c-0.09-0.31-0.22-0.64-0.35-0.92q0.09-0.2 0.19-0.4c0.58-0.14 1.38-0.39 1.54-0.72 0.06-0.11 0.16-0.56 0.24-0.91 0.08-0.34 0.18-0.79 0.18-0.92 0-0.37-0.62-0.94-1.08-1.32q0-0.11 0.01-0.22-0.01-0.11-0.01-0.21c0.46-0.39 1.08-0.96 1.08-1.33 0-0.13-0.1-0.57-0.18-0.92-0.08-0.35-0.18-0.79-0.24-0.9-0.16-0.34-0.96-0.59-1.54-0.73q-0.09-0.2-0.19-0.4c0.25-0.54 0.54-1.29 0.4-1.63q-0.04 0-0.07-0.01l-9.7-0.04q-0.47 0.11-0.97 0.11-0.54 0-1.04-0.12zm7.23 6.14c0 2.85-2.32 5.16-5.17 5.16-2.84 0-5.16-2.31-5.16-5.16 0-2.85 2.32-5.16 5.16-5.16 2.85 0 5.17 2.31 5.17 5.16z"/>
	<path class="s8" d="m406.48 718.1c0 2.85 2.32 5.16 5.16 5.16 2.85 0 5.17-2.31 5.17-5.16 0-2.85-2.32-5.16-5.17-5.16-2.84 0-5.16 2.31-5.16 5.16z"/>
	<path class="s4" d="m907.2 683.33l0.04 0.02c0 0-4.96-26.84-9.9-39.63-1.55-4.04-3.11-6.69-4.51-6.64-1.8 0.08-3.66 0.32-5.62 0.52-4.34 0.45-9.23 0.7-15.61-1.64-1.23-0.44-2.59-0.76-4.05-0.99l-1.86-29.53-0.84-6.64-2.87-0.05c-1.48 2.99-4.45 5.15-8.02 5.34-5.29 0.3-9.82-3.75-10.12-9.04-0.29-5.29 3.76-9.82 9.05-10.11 2.67-0.15 5.14 0.81 6.98 2.47l3.51-0.33-22.89-181.39q0.29-0.42 0.58-0.86c1.95-2.89 4.07-6.01 4.98-7.22 1.88-2.48 8.05-3.34 11.17-7.49q0.53-0.71 0.77-1.4c1.32-3.51-2.5-6.43-4.74-8.41-2.54-2.24-9.08-19.84-16.05-32.55-3.25-5.94-6.22-8.27-8.49-9.08-4.4-6.88-11.16-17.24-13.73-20.02q-0.57-0.6-1.33-1.19l-0.24-4.37c0 0-1.9-8.24-7.38-13.03q-0.06-0.04-0.1-0.08c-2.52-4.73-7.44-7.99-13.17-7.99-6.59 0-12.12 4.28-14.12 10.18-0.52 1.51-0.86 3.11-0.86 4.79 0 4.02 1.61 7.65 4.18 10.35q1.2 1.25 2.65 2.2l1.41 17.42 0.05-0.01c-1.3 2.57-2.34 4.61-2.9 5.68q-0.18 0.34-0.3 0.55c-0.18 0.34-0.42 1.12-0.69 2.19-0.45 1.75-0.98 4.32-1.55 7.35 7.15 0.03 14.95 0.38 21.48 4.51q1 0.63 2.05 1.25c1.11 0.65 2.26 1.37 3.38 2.14 1.3-0.63 2.75-1.01 4.29-1.01 5.48 0 9.91 4.43 9.91 9.9 0 4.34-2.8 7.98-6.67 9.33 0.38 3.27 0.39 6.8-0.21 9.6-0.75 3.45-2.92 6.45-5.02 9.36-1.35 1.85-2.62 3.61-3.49 5.41-3.77 7.79-7.45 16.99-6.22 26 1.35 9.89 3.4 18.91 5.73 28.84q0.61 2.59 1.16 5.22c1.1 5.13 2.24 10.44 4.26 15.27 1.76 4.25 4.89 9.65 9.76 11.3 2.45 0.83 4.68 0.03 6.74-1.38-1.2-1.64-1.92-3.64-1.92-5.82 0-5.47 4.43-9.91 9.91-9.91 5.47 0 9.9 4.44 9.9 9.91 0 5.47-4.43 9.91-9.9 9.91-2.24 0-4.28-0.77-5.93-2.01-1.99 1.44-4.23 2.54-6.74 2.54q-1.44 0.01-2.98-0.51c-5.9-2-9.51-8.13-11.51-12.92-2.1-5.08-3.27-10.52-4.4-15.78q-0.55-2.6-1.15-5.16c-2.35-10-4.4-19.1-5.77-29.11-1.35-9.77 2.52-19.46 6.47-27.64 0.98-2.04 2.39-3.98 3.75-5.86 2.02-2.78 3.92-5.4 4.54-8.27 0.52-2.41 0.51-5.53 0.19-8.45q-0.2 0.03-0.4 0.04c-5.47 0-9.91-4.43-9.91-9.91 0-2.81 1.19-5.33 3.08-7.14q-1.15-0.73-2.32-1.41-1.09-0.65-2.11-1.29c-6.01-3.8-13.59-4.05-20.48-4.07-0.54 2.97-1.09 6.21-1.64 9.43-6.5 0.91-12.93 1.81-16.18 2.26-8 1.13-19.52 3.75-19.52 3.75l-8.27 8.67-67.85 19.76c-2.19 0.96-4.23 2.04-5.93 3.39-1.75 1.41-2.98 3.3-3.88 5.43l45.68-13.3 33.92-11.49 6.43-8.13c0 0 9.79-2.23 16.59-3.18 6.81-0.96 30.08-4.22 30.08-4.22 0 0 7.78 2.38 7.56 7.76-0.22 5.39-5.24 10.29-5.24 10.29l-40.08 27.72-11.45-1.14-33.28 12.57c0 0-69.49 29.42-92.74 38.99-22.37 9.21-40.17 20.41-54.36 32.55l-5.46 14.11c18.34-18.66 43-36.02 76.19-49.7 27.37-11.27 109.15-45.88 109.15-45.88l-0.05-0.39 13.47 1.35 25.44-17.59 47.44 173.62 18.57 64.07 1.43 11.74c-2.08 0.38-6.71 1.62-8.28 2.43-1.82 0.95-9.96 10.65-9.96 10.65 0 0-5.98 33.33-7.65 44.21-1.13 7.37-11.59 21.16-19.93 31.36-3.99 4.88-7.5 8.94-9.26 11.09-1.99 2.41-6.92 5.11-12.36 7.58-9.48 4.31-20.57 7.87-20.57 7.87 0 0 18.66 1.64 31.35 1.27 12.71-0.36 72.25-0.21 103.65-18.79 30.78-18.21 18.32-53.49 14.09-62.36zm-125.33-376.82c0-5.74 4.67-10.41 10.41-10.41 5.75 0 10.41 4.67 10.41 10.41 0 5.74-4.66 10.4-10.41 10.4-5.74 0-10.41-4.66-10.41-10.4zm61.61 70.95c4.06 0 7.35 3.35 7.35 7.48 0 4.15-3.29 7.5-7.35 7.5-4.07 0-7.36-3.35-7.36-7.5 0-4.13 3.29-7.48 7.36-7.48zm10.97 258.83c3.42-0.19 6.36 2.44 6.55 5.86 0.19 3.43-2.43 6.37-5.86 6.56-3.43 0.19-6.36-2.43-6.55-5.87-0.19-3.42 2.43-6.36 5.86-6.55zm34.51 4.31c3.43-0.19 6.36 2.43 6.56 5.85 0.18 3.44-2.44 6.37-5.87 6.56-3.42 0.19-6.36-2.43-6.55-5.86-0.19-3.43 2.44-6.36 5.86-6.55zm-64.07 115.83c0 0 64.29-25.96 61.5-55.31l-5.37-34.44 13.92 12.54c0 0 6.34 19 6.17 21.9-0.17 2.91 5.48 41.75-76.22 55.31z"/>
	<path class="s1" d="m886.3 578.67l1.57 6.04 3.03-0.29c2.01-2.66 5.08-4.48 8.67-4.68 3.61-0.2 6.9 1.29 9.19 3.74l-2.61-9.99-4.09 1.07-11.41 2.98z"/>
	<path class="s5" d="m899.57 579.74c-3.59 0.2-6.66 2.02-8.67 4.68l-3.03 0.29-24.49 2.37-3.51 0.33c-1.83-1.66-4.31-2.62-6.98-2.47-5.29 0.29-9.34 4.82-9.05 10.11 0.3 5.29 4.83 9.34 10.12 9.04 3.57-0.19 6.54-2.35 8.02-5.34l2.87 0.05 25.81 0.39-3.45 38.4c1.96-0.19 3.81-0.44 5.62-0.51 1.4-0.05 2.96 2.6 4.51 6.64l8.58-42.08c3.79-2.12 6.27-6.22 6.01-10.84-0.16-2.86-1.37-5.38-3.17-7.32-2.29-2.45-5.58-3.94-9.19-3.74zm-46.34 21.02c-3.42 0.18-6.36-2.44-6.55-5.87-0.19-3.43 2.44-6.36 5.87-6.55 3.42-0.19 6.36 2.44 6.55 5.86 0.19 3.43-2.44 6.36-5.87 6.56zm48-2.58c-3.42 0.19-6.36-2.44-6.55-5.86-0.19-3.43 2.43-6.36 5.87-6.55 3.42-0.2 6.35 2.43 6.55 5.85 0.19 3.44-2.44 6.36-5.87 6.56z"/>
	<path class="s0" d="m852.55 588.34c-3.43 0.19-6.06 3.12-5.87 6.55 0.2 3.43 3.13 6.05 6.55 5.86 3.43-0.19 6.06-3.12 5.87-6.55-0.19-3.43-3.13-6.05-6.55-5.86z"/>
	<path class="s0" d="m855.14 648.71c3.43-0.19 6.05-3.12 5.86-6.55-0.19-3.43-3.12-6.06-6.55-5.86-3.43 0.19-6.05 3.12-5.86 6.55 0.19 3.43 3.12 6.05 6.55 5.86z"/>
	<path class="s0" d="m889.65 653.01c3.43-0.19 6.05-3.12 5.87-6.55-0.2-3.43-3.13-6.05-6.56-5.86-3.42 0.19-6.05 3.12-5.86 6.55 0.19 3.43 3.13 6.05 6.55 5.86z"/>
	<path class="s0" d="m900.54 585.77c-3.43 0.19-6.05 3.12-5.86 6.55 0.19 3.42 3.13 6.05 6.55 5.86 3.43-0.2 6.05-3.12 5.86-6.56-0.19-3.42-3.12-6.05-6.55-5.85z"/>
	<path class="s9" d="m431.41 710.33c-1.06-0.36-2.04-0.56-2.95-0.69-0.92 0.13-1.9 0.33-2.94 0.69-0.71 0.91-1.75 1.53-2.95 1.69l12.24 0.05c-1.4-0.03-2.62-0.71-3.4-1.74z"/>
	<path class="s9" d="m358.55 710.33c-1.04-0.36-2.03-0.56-2.95-0.69q-0.75 0.1-1.57 0.3l-0.76 1.77 7.16 0.03c-0.74-0.3-1.39-0.78-1.88-1.41z"/>
	<path class="s9" d="m382.84 710.33c-1.05-0.36-2.03-0.56-2.95-0.69-0.92 0.13-1.9 0.33-2.94 0.69-0.52 0.68-1.24 1.18-2.05 1.47l10.11 0.05c-0.87-0.28-1.63-0.8-2.17-1.52z"/>
	<path class="s9" d="m355.89 705.64q1.25-0.19 2.66-0.64c0.81-1.06 2.07-1.75 3.51-1.75 2.43 0 4.41 1.97 4.41 4.41 0 1.86-1.14 3.44-2.76 4.1l8.19 0.03c-1.68-0.63-2.87-2.23-2.87-4.13 0-2.44 1.98-4.41 4.41-4.41 1.44 0 2.7 0.69 3.51 1.75q1.57 0.51 2.94 0.69 1.37-0.17 2.95-0.69c0.81-1.06 2.06-1.75 3.5-1.75 2.44 0 4.41 1.97 4.41 4.41 0 1.99-1.31 3.64-3.09 4.2l8.88 0.04c-1.86-0.52-3.23-2.21-3.23-4.24 0-2.44 1.98-4.41 4.42-4.41 1.43 0 2.69 0.69 3.5 1.75q1.57 0.51 2.95 0.69 1.37-0.17 2.95-0.69c0.8-1.06 2.06-1.75 3.5-1.75 2.43 0 4.41 1.97 4.41 4.41 0 2.11-1.48 3.87-3.45 4.31l9.71 0.04c-2.1-0.35-3.71-2.15-3.71-4.35 0-2.44 1.98-4.42 4.43-4.42 1.43 0 2.68 0.7 3.5 1.75q1.57 0.52 2.94 0.7c0.91-0.13 1.89-0.34 2.95-0.7 0.8-1.05 2.06-1.75 3.5-1.75 2.43 0 4.41 1.98 4.41 4.42 0 2.4-1.92 4.35-4.3 4.41l52.12 0.23-0.83-1.28c-0.77 0.65-1.75 1.06-2.84 1.06-1.44 0-2.69-0.69-3.5-1.75-1.05-0.36-2.04-0.56-2.95-0.69-0.92 0.13-1.89 0.33-2.94 0.69-0.81 1.06-2.07 1.75-3.51 1.75-2.43 0-4.41-1.98-4.41-4.42 0-2.44 1.98-4.42 4.41-4.42 1.44 0 2.7 0.7 3.51 1.75 1.05 0.35 2.03 0.56 2.94 0.69 0.91-0.13 1.9-0.34 2.95-0.69q0.64-0.83 1.59-1.3l-1.67-2.57-6.74-10.38-3.47-5.35h-105.05l-4.18 9.69-2.61 6.04zm103.3 6.45c-1.44 0-2.7-0.69-3.5-1.75-1.06-0.36-2.04-0.56-2.95-0.69-0.92 0.13-1.9 0.33-2.95 0.69-0.81 1.06-2.06 1.75-3.5 1.75-2.43 0-4.41-1.98-4.41-4.42 0-2.44 1.98-4.42 4.41-4.42 1.44 0 2.69 0.7 3.5 1.75q1.58 0.52 2.95 0.69c0.91-0.12 1.9-0.33 2.95-0.69 0.8-1.06 2.06-1.75 3.5-1.75 2.43 0 4.41 1.98 4.41 4.42 0 2.44-1.98 4.42-4.41 4.42z"/>
	<path class="s9" d="m407.12 710.33c-1.05-0.36-2.03-0.56-2.95-0.69-0.91 0.13-1.89 0.33-2.94 0.69-0.58 0.76-1.4 1.32-2.34 1.58l4.08 0.02 6.61 0.02c-1-0.24-1.86-0.83-2.46-1.62z"/>
	<path class="s10" d="m364.64 675.68v9.1h105.04v-9.1l-23.65 0.28z"/>
	<path class="s10" d="m530.57 659.16l-6.67 15.88z"/>
	<path class="s0" d="m582.49 418.84c5.38 0 9.73-4.36 9.73-9.74 0-5.38-4.36-9.74-9.73-9.74-5.38 0-9.73 4.37-9.73 9.74 0 5.38 4.35 9.74 9.73 9.74z"/>
	<path class="s0" d="m792.28 316.91c5.75 0 10.41-4.66 10.41-10.4 0-5.75-4.66-10.41-10.41-10.41-5.74 0-10.4 4.66-10.4 10.41 0 5.74 4.66 10.4 10.4 10.4z"/>
	<path class="s4" d="m275.87 756.94c-0.33 0.08-0.67 0.19-1.01 0.26-0.64 1.28-1.63 2.97-2.47 3.16q-0.14 0.03-0.42 0.05-0.07 0.34-0.07 0.69c0 2.44 1.97 4.42 4.42 4.42 1.43 0 2.69-0.69 3.5-1.74 1.05-0.36 2.03-0.57 2.94-0.7 0.91 0.13 1.9 0.34 2.95 0.7 0.81 1.05 2.06 1.74 3.5 1.74 2.44 0 4.41-1.97 4.41-4.42 0-2.43-1.97-4.41-4.41-4.41-1.44 0-2.69 0.69-3.5 1.75q-1.58 0.51-2.95 0.68-1.25-0.16-2.67-0.6c-0.25 0.1-0.48 0.19-0.58 0.22-0.86 0.2-2.5-0.92-3.64-1.8zm0.44 7.19c-1.66 0-3.02-1.35-3.02-3.03 0-1.66 1.36-3.02 3.02-3.02 1.67 0 3.03 1.36 3.03 3.02 0 1.68-1.36 3.03-3.03 3.03zm12.89-6.05c1.67 0 3.02 1.36 3.02 3.02 0 1.68-1.35 3.03-3.02 3.03-1.67 0-3.02-1.35-3.02-3.03 0-1.66 1.35-3.02 3.02-3.02z"/>
	<path class="s8" d="m289.2 764.13c1.68 0 3.02-1.35 3.02-3.03 0-1.66-1.34-3.02-3.02-3.02-1.67 0-3.02 1.36-3.02 3.02 0 1.68 1.35 3.03 3.02 3.03z"/>
	<path class="s8" d="m276.31 758.08c-1.66 0-3.02 1.36-3.02 3.02 0 1.68 1.36 3.03 3.02 3.03 1.67 0 3.03-1.35 3.03-3.03 0-1.66-1.36-3.02-3.03-3.02z"/>
	<path class="s4" d="m314.91 757.73c-0.33-0.15-0.73-0.36-0.83-0.43-0.12-0.1-0.2-0.32-0.25-0.58q-0.17-0.02-0.34-0.03c-1.43 0-2.69 0.69-3.5 1.75-1.05 0.35-2.03 0.56-2.95 0.69-0.92-0.13-1.89-0.34-2.94-0.69-0.81-1.06-2.07-1.75-3.5-1.75-2.44 0-4.42 1.98-4.42 4.41 0 2.45 1.98 4.43 4.42 4.43 1.43 0 2.69-0.7 3.5-1.75 1.05-0.36 2.03-0.57 2.94-0.7 0.91 0.13 1.9 0.34 2.95 0.7 0.81 1.05 2.07 1.75 3.5 1.75 2.44 0 4.42-1.98 4.42-4.43 0-1.27-0.55-2.4-1.41-3.2-0.28 0.15-0.55 0.25-0.73 0.21-0.13-0.03-0.54-0.22-0.86-0.38zm-14.32 6.4c-1.66 0-3.02-1.35-3.02-3.03 0-1.66 1.36-3.02 3.02-3.02 1.68 0 3.03 1.36 3.03 3.02 0 1.68-1.35 3.03-3.03 3.03zm12.9 0c-1.67 0-3.03-1.35-3.03-3.03 0-1.66 1.36-3.02 3.03-3.02 1.67 0 3.02 1.36 3.02 3.02 0 1.68-1.35 3.03-3.02 3.03z"/>
	<path class="s8" d="m313.49 758.08c-1.67 0-3.03 1.36-3.03 3.02 0 1.68 1.36 3.03 3.03 3.03 1.67 0 3.02-1.35 3.02-3.03 0-1.66-1.35-3.02-3.02-3.02z"/>
	<path class="s8" d="m300.59 758.08c-1.66 0-3.02 1.36-3.02 3.02 0 1.68 1.36 3.03 3.02 3.03 1.68 0 3.03-1.35 3.03-3.03 0-1.66-1.35-3.02-3.03-3.02z"/>
	<path class="s4" d="m324.52 757.73c-0.33 0.16-0.74 0.35-0.87 0.38-0.31 0.07-0.86-0.27-1.32-0.6-1.13 0.8-1.87 2.11-1.87 3.59 0 2.45 1.98 4.43 4.42 4.43 1.43 0 2.69-0.7 3.5-1.75 1.05-0.36 2.03-0.57 2.95-0.7 0.91 0.13 1.89 0.34 2.94 0.7 0.81 1.05 2.07 1.75 3.51 1.75 2.43 0 4.41-1.98 4.41-4.43 0-2.43-1.98-4.41-4.41-4.41-1.44 0-2.7 0.69-3.51 1.75-1.05 0.35-2.03 0.56-2.94 0.69-0.92-0.13-1.9-0.34-2.95-0.69-0.67-0.88-1.66-1.48-2.8-1.66-0.05 0.23-0.12 0.42-0.24 0.52-0.1 0.07-0.5 0.28-0.82 0.43zm13.25 0.35c1.67 0 3.02 1.36 3.02 3.02 0 1.68-1.35 3.03-3.02 3.03-1.67 0-3.03-1.35-3.03-3.03 0-1.66 1.36-3.02 3.03-3.02zm-9.87 3.02c0 1.68-1.35 3.03-3.02 3.03-1.67 0-3.02-1.35-3.02-3.03 0-1.66 1.35-3.02 3.02-3.02 1.67 0 3.02 1.36 3.02 3.02z"/>
	<path class="s8" d="m337.77 764.13c1.67 0 3.02-1.35 3.02-3.03 0-1.66-1.35-3.02-3.02-3.02-1.67 0-3.03 1.36-3.03 3.02 0 1.68 1.36 3.03 3.03 3.03z"/>
	<path class="s8" d="m321.86 761.1c0 1.68 1.35 3.03 3.02 3.03 1.67 0 3.02-1.35 3.02-3.03 0-1.66-1.35-3.02-3.02-3.02-1.67 0-3.02 1.36-3.02 3.02z"/>
	<path class="s4" d="m363.95 757.46q-0.23-0.05-0.43-0.11c-0.43 0.33-1.02 0.72-1.4 0.75 1.64 0.04 2.95 1.36 2.95 3 0 1.68-1.35 3.03-3.02 3.03-1.67 0-3.02-1.35-3.02-3.03 0-1.63 1.3-2.95 2.93-3-0.14-0.03-0.52-0.21-0.84-0.37-0.32-0.15-0.73-0.36-0.83-0.43q-0.06-0.07-0.11-0.18c-0.64 0.31-1.2 0.76-1.63 1.32-1.04 0.35-2.03 0.56-2.95 0.69-0.91-0.13-1.89-0.34-2.94-0.69-0.81-1.06-2.07-1.75-3.5-1.75-2.44 0-4.42 1.98-4.42 4.41 0 2.45 1.98 4.43 4.42 4.43 1.43 0 2.69-0.7 3.5-1.75 1.05-0.36 2.03-0.57 2.94-0.7 0.92 0.13 1.91 0.34 2.95 0.7 0.81 1.05 2.07 1.75 3.51 1.75 2.43 0 4.41-1.98 4.41-4.43 0-0.83-0.25-1.61-0.65-2.27-0.34 0-0.72-0.01-0.83-0.03-0.36-0.09-0.78-0.8-1.04-1.34zm-14.79 6.67c-1.67 0-3.02-1.35-3.02-3.03 0-1.66 1.35-3.02 3.02-3.02 1.67 0 3.03 1.36 3.03 3.02 0 1.68-1.36 3.03-3.03 3.03z"/>
	<path class="s8" d="m359.03 761.1c0 1.68 1.35 3.03 3.03 3.03 1.66 0 3.02-1.35 3.02-3.03 0-1.64-1.32-2.96-2.95-3q-0.08 0.01-0.15 0.01 0 0-0.01-0.01c-1.63 0.05-2.94 1.37-2.94 3z"/>
	<path class="s8" d="m349.16 758.08c-1.67 0-3.02 1.36-3.02 3.02 0 1.68 1.35 3.03 3.02 3.03 1.67 0 3.03-1.35 3.03-3.03 0-1.66-1.36-3.02-3.03-3.02z"/>
	<path class="s4" d="m370.73 757.73q-0.12 0.07-0.25 0.12c-0.89 0.81-1.45 1.96-1.45 3.25 0 2.45 1.98 4.43 4.41 4.43 1.44 0 2.7-0.7 3.51-1.75 1.05-0.36 2.03-0.57 2.94-0.7 0.91 0.13 1.9 0.34 2.95 0.7 0.81 1.05 2.06 1.75 3.5 1.75 2.44 0 4.41-1.98 4.41-4.43 0-2.43-1.98-4.41-4.41-4.41-1.44 0-2.69 0.69-3.5 1.75-1.05 0.35-2.03 0.56-2.95 0.69-0.92-0.13-1.9-0.34-2.94-0.69-0.81-1.06-2.07-1.75-3.51-1.75q-0.91 0.01-1.71 0.35-0.06 0.17-0.17 0.26c-0.1 0.07-0.5 0.28-0.83 0.43zm15.61 0.35c1.67 0 3.02 1.36 3.02 3.02 0 1.68-1.35 3.03-3.02 3.03-1.68 0-3.03-1.35-3.03-3.03 0-1.66 1.36-3.02 3.03-3.02zm-9.87 3.02c0 1.68-1.36 3.03-3.03 3.03-1.66 0-3.02-1.35-3.02-3.03 0-1.66 1.36-3.02 3.02-3.02 1.67 0 3.03 1.36 3.03 3.02z"/>
	<path class="s8" d="m386.34 764.13c1.67 0 3.02-1.35 3.02-3.03 0-1.66-1.35-3.02-3.02-3.02-1.68 0-3.03 1.36-3.03 3.02 0 1.68 1.36 3.03 3.03 3.03z"/>
	<path class="s8" d="m370.42 761.1c0 1.68 1.36 3.03 3.02 3.03 1.67 0 3.03-1.35 3.03-3.03 0-1.66-1.36-3.02-3.03-3.02-1.66 0-3.02 1.36-3.02 3.02z"/>
	<path class="s4" d="m413.08 758.8c-0.08 0.02-0.3 0.02-0.53 0.02 0.65 0.56 1.1 1.36 1.1 2.28 0 1.68-1.36 3.03-3.03 3.03-1.67 0-3.02-1.35-3.02-3.03 0-1.63 1.3-2.94 2.93-3q-0.21-0.32-0.36-0.64-0.23-0.05-0.44-0.11c-0.47 0.37-1.17 0.85-1.53 0.76-0.09-0.02-0.31-0.12-0.54-0.23q-0.3 0.26-0.53 0.56c-1.06 0.35-2.04 0.56-2.95 0.69-0.92-0.13-1.9-0.34-2.95-0.69-0.81-1.06-2.07-1.75-3.5-1.75-2.44 0-4.42 1.98-4.42 4.41 0 2.45 1.98 4.43 4.42 4.43 1.43 0 2.69-0.7 3.5-1.75 1.05-0.36 2.03-0.57 2.95-0.7 0.91 0.13 1.89 0.34 2.95 0.7 0.8 1.05 2.06 1.75 3.5 1.75 2.43 0 4.41-1.98 4.41-4.43 0-1.18-0.48-2.26-1.24-3.05-0.23 0.37-0.49 0.69-0.72 0.75zm-15.35 5.33c-1.67 0-3.03-1.35-3.03-3.03 0-1.66 1.36-3.02 3.03-3.02 1.67 0 3.02 1.36 3.02 3.02 0 1.68-1.35 3.03-3.02 3.03z"/>
	<path class="s8" d="m407.6 761.1c0 1.68 1.35 3.03 3.02 3.03 1.67 0 3.03-1.35 3.03-3.03 0-0.92-0.45-1.72-1.1-2.28q-0.21 0.01-0.4 0.01c-0.36 0-0.82-0.01-0.94-0.04-0.23-0.05-0.47-0.35-0.68-0.69-1.63 0.06-2.93 1.37-2.93 3z"/>
	<path class="s8" d="m397.73 758.08c-1.67 0-3.03 1.36-3.03 3.02 0 1.68 1.36 3.03 3.03 3.03 1.67 0 3.02-1.35 3.02-3.03 0-1.66-1.35-3.02-3.02-3.02z"/>
	<path class="s4" d="m434.91 756.69c-1.44 0-2.7 0.69-3.5 1.75-1.06 0.35-2.04 0.56-2.95 0.69-0.92-0.13-1.9-0.34-2.94-0.69-0.82-1.06-2.07-1.75-3.5-1.75-2.45 0-4.43 1.98-4.43 4.41 0 2.45 1.98 4.43 4.43 4.43 1.43 0 2.68-0.7 3.5-1.75 1.05-0.36 2.03-0.57 2.94-0.7 0.91 0.13 1.89 0.34 2.95 0.7 0.8 1.05 2.06 1.75 3.5 1.75 2.43 0 4.41-1.98 4.41-4.43 0-2.43-1.98-4.41-4.41-4.41zm-12.9 7.44c-1.67 0-3.02-1.35-3.02-3.03 0-1.66 1.35-3.02 3.02-3.02 1.67 0 3.03 1.36 3.03 3.02 0 1.68-1.36 3.03-3.03 3.03zm12.9 0c-1.68 0-3.03-1.35-3.03-3.03 0-1.66 1.35-3.02 3.03-3.02 1.67 0 3.02 1.36 3.02 3.02 0 1.68-1.36 3.03-3.02 3.03z"/>
	<path class="s8" d="m434.91 758.08c-1.68 0-3.03 1.36-3.03 3.02 0 1.68 1.35 3.03 3.03 3.03 1.67 0 3.02-1.35 3.02-3.03 0-1.66-1.36-3.02-3.02-3.02z"/>
	<path class="s8" d="m422.01 758.08c-1.67 0-3.02 1.36-3.02 3.02 0 1.68 1.35 3.03 3.02 3.03 1.67 0 3.03-1.35 3.03-3.03 0-1.66-1.36-3.02-3.03-3.02z"/>
	<path class="s4" d="m460.77 757.35q-0.2 0.06-0.43 0.11-0.18 0.39-0.44 0.77c1.31 0.33 2.31 1.46 2.31 2.87 0 1.68-1.35 3.03-3.02 3.03-1.67 0-3.03-1.35-3.03-3.03 0-0.96 0.49-1.79 1.2-2.34-0.31-0.12-0.64-0.64-0.88-1.11q-0.44 0.34-0.79 0.79c-1.05 0.35-2.04 0.56-2.95 0.69-0.92-0.13-1.9-0.34-2.94-0.69-0.82-1.06-2.07-1.75-3.5-1.75-2.44 0-4.42 1.98-4.42 4.41 0 2.45 1.98 4.43 4.42 4.43 1.43 0 2.68-0.7 3.5-1.75 1.05-0.36 2.03-0.57 2.94-0.7 0.91 0.13 1.9 0.34 2.95 0.7 0.8 1.05 2.06 1.75 3.5 1.75 2.44 0 4.41-1.98 4.41-4.43 0-1.17-0.46-2.23-1.21-3.02q-0.05 0.02-0.09 0.03c-0.35 0.09-1.05-0.39-1.53-0.76zm-14.47 6.78c-1.67 0-3.02-1.35-3.02-3.03 0-1.66 1.35-3.02 3.02-3.02 1.67 0 3.02 1.36 3.02 3.02 0 1.68-1.36 3.03-3.02 3.03z"/>
	<path class="s8" d="m456.16 761.1c0 1.68 1.36 3.03 3.03 3.03 1.67 0 3.02-1.35 3.02-3.03 0-1.41-0.99-2.54-2.31-2.87-0.2 0.29-0.41 0.53-0.6 0.57-0.13 0.02-0.58 0.03-0.94 0.03-0.35 0-0.81 0-0.93-0.03q-0.03-0.02-0.07-0.04c-0.71 0.55-1.2 1.38-1.2 2.34z"/>
	<path class="s8" d="m446.3 758.08c-1.67 0-3.02 1.36-3.02 3.02 0 1.68 1.35 3.03 3.02 3.03 1.67 0 3.02-1.35 3.02-3.03 0-1.66-1.36-3.02-3.02-3.02z"/>
	<path class="s4" d="m483.47 756.69c-1.43 0-2.69 0.69-3.5 1.75-1.05 0.35-2.03 0.56-2.94 0.69-0.92-0.13-1.9-0.34-2.95-0.69-0.81-1.06-2.07-1.75-3.5-1.75-2.44 0-4.42 1.98-4.42 4.41 0 2.45 1.98 4.43 4.42 4.43 1.43 0 2.69-0.7 3.5-1.75 1.05-0.36 2.03-0.57 2.95-0.7 0.9 0.13 1.89 0.34 2.94 0.7 0.81 1.05 2.07 1.75 3.5 1.75 2.44 0 4.42-1.98 4.42-4.43 0-2.43-1.98-4.41-4.42-4.41zm-12.89 7.44c-1.67 0-3.02-1.35-3.02-3.03 0-1.66 1.35-3.02 3.02-3.02 1.67 0 3.02 1.36 3.02 3.02 0 1.68-1.35 3.03-3.02 3.03zm12.89 0c-1.67 0-3.02-1.35-3.02-3.03 0-1.66 1.35-3.02 3.02-3.02 1.68 0 3.02 1.36 3.02 3.02 0 1.68-1.35 3.03-3.02 3.03z"/>
	<path class="s8" d="m483.47 758.08c-1.67 0-3.02 1.36-3.02 3.02 0 1.68 1.35 3.03 3.02 3.03 1.68 0 3.02-1.35 3.02-3.03 0-1.66-1.35-3.02-3.02-3.02z"/>
	<path class="s8" d="m470.58 758.08c-1.67 0-3.02 1.36-3.02 3.02 0 1.68 1.35 3.03 3.02 3.03 1.67 0 3.02-1.35 3.02-3.03 0-1.66-1.35-3.02-3.02-3.02z"/>
	<path class="s4" d="m508.52 758.11c-0.36 0.09-1.06-0.39-1.53-0.76q-0.21 0.06-0.43 0.11c-0.27 0.55-0.69 1.25-1.04 1.34-0.13 0.02-0.58 0.03-0.94 0.03-0.36 0-0.81 0-0.94-0.03q-0.1-0.04-0.21-0.13-1.12 0.31-2.12 0.46c-0.92-0.13-1.9-0.34-2.95-0.69-0.81-1.06-2.07-1.75-3.5-1.75-2.44 0-4.42 1.98-4.42 4.41 0 2.45 1.98 4.43 4.42 4.43 1.43 0 2.69-0.7 3.5-1.75 1.05-0.36 2.03-0.57 2.95-0.7 0.91 0.13 1.89 0.34 2.94 0.7 0.81 1.05 2.06 1.75 3.5 1.75 2.44 0 4.42-1.98 4.42-4.43 0-1.57-0.84-2.95-2.09-3.73-0.16 0.1-0.44 0.24-0.7 0.36-0.32 0.16-0.73 0.35-0.86 0.38zm-13.66 6.02c-1.66 0-3.02-1.35-3.02-3.03 0-1.66 1.35-3.02 3.02-3.02 1.67 0 3.03 1.36 3.03 3.02 0 1.68-1.36 3.03-3.03 3.03zm15.92-3.03c0 1.68-1.35 3.03-3.02 3.03-1.68 0-3.03-1.35-3.03-3.03 0-1.66 1.35-3.02 3.03-3.02 1.67 0 3.02 1.36 3.02 3.02z"/>
	<path class="s8" d="m504.73 761.1c0 1.68 1.35 3.03 3.03 3.03 1.67 0 3.02-1.35 3.02-3.03 0-1.66-1.35-3.02-3.02-3.02-1.68 0-3.03 1.36-3.03 3.02z"/>
	<path class="s8" d="m494.86 758.08c-1.66 0-3.02 1.36-3.02 3.02 0 1.68 1.35 3.03 3.02 3.03 1.67 0 3.03-1.35 3.03-3.03 0-1.66-1.36-3.02-3.03-3.02z"/>
	<path class="s4" d="m532.04 756.69c-1.44 0-2.7 0.69-3.5 1.75-1.06 0.35-2.03 0.56-2.95 0.69-0.91-0.13-1.89-0.34-2.94-0.69-0.81-1.06-2.07-1.75-3.5-1.75-2.44 0-4.42 1.98-4.42 4.41 0 2.45 1.97 4.43 4.42 4.43 1.43 0 2.69-0.7 3.5-1.75 1.05-0.36 2.03-0.57 2.94-0.7 0.92 0.13 1.9 0.34 2.95 0.7 0.8 1.05 2.06 1.75 3.5 1.75 2.43 0 4.41-1.98 4.41-4.43 0-2.43-1.98-4.41-4.41-4.41zm-12.89 7.44c-1.67 0-3.02-1.35-3.02-3.03 0-1.66 1.34-3.02 3.02-3.02 1.66 0 3.02 1.36 3.02 3.02 0 1.68-1.36 3.03-3.02 3.03zm12.89 0c-1.68 0-3.02-1.35-3.02-3.03 0-1.66 1.34-3.02 3.02-3.02 1.67 0 3.02 1.36 3.02 3.02 0 1.68-1.35 3.03-3.02 3.03z"/>
	<path class="s8" d="m532.04 758.08c-1.68 0-3.02 1.36-3.02 3.02 0 1.68 1.34 3.03 3.02 3.03 1.67 0 3.02-1.35 3.02-3.03 0-1.66-1.35-3.02-3.02-3.02z"/>
	<path class="s8" d="m519.15 758.08c-1.67 0-3.02 1.36-3.02 3.02 0 1.68 1.34 3.03 3.02 3.03 1.66 0 3.02-1.35 3.02-3.03 0-1.66-1.36-3.02-3.02-3.02z"/>
	<path class="s4" d="m556.32 756.69c-1.43 0-2.7 0.69-3.5 1.75-1.05 0.35-2.03 0.56-2.95 0.69-0.91-0.13-1.89-0.34-2.94-0.69-0.81-1.06-2.07-1.75-3.5-1.75-2.44 0-4.42 1.98-4.42 4.41 0 2.45 1.97 4.43 4.42 4.43 1.43 0 2.69-0.7 3.5-1.75 1.05-0.36 2.03-0.57 2.94-0.7 0.92 0.13 1.9 0.34 2.95 0.7 0.8 1.05 2.07 1.75 3.5 1.75 2.44 0 4.41-1.98 4.41-4.43 0-2.43-1.97-4.41-4.41-4.41zm-12.89 7.44c-1.66 0-3.02-1.35-3.02-3.03 0-1.66 1.35-3.02 3.02-3.02 1.67 0 3.02 1.36 3.02 3.02 0 1.68-1.35 3.03-3.02 3.03zm12.89 0c-1.67 0-3.02-1.35-3.02-3.03 0-1.66 1.35-3.02 3.02-3.02 1.67 0 3.02 1.36 3.02 3.02 0 1.68-1.35 3.03-3.02 3.03z"/>
	<path class="s8" d="m556.32 758.08c-1.67 0-3.02 1.36-3.02 3.02 0 1.68 1.35 3.03 3.02 3.03 1.67 0 3.02-1.35 3.02-3.03 0-1.66-1.35-3.02-3.02-3.02z"/>
	<path class="s8" d="m543.43 758.08c-1.66 0-3.02 1.36-3.02 3.02 0 1.68 1.35 3.03 3.02 3.03 1.67 0 3.02-1.35 3.02-3.03 0-1.66-1.35-3.02-3.02-3.02z"/>
	<path class="s8" d="m583.63 761.1c0-1.66-1.35-3.02-3.03-3.02-1.67 0-3.02 1.36-3.02 3.02 0 1.68 1.35 3.03 3.02 3.03 1.68 0 3.03-1.35 3.03-3.03z"/>
	<path class="s8" d="m567.71 758.08c-1.66 0-3.02 1.36-3.02 3.02 0 1.68 1.35 3.03 3.02 3.03 1.67 0 3.02-1.35 3.02-3.03 0-1.66-1.35-3.02-3.02-3.02z"/>
	<path class="s4" d="m272.39 708.06c0.49 0.12 1.02 0.73 1.51 1.48 0.36 0.54 0.69 1.15 0.96 1.69q0.51 0.12 1 0.25c0.44-0.32 0.93-0.67 1.44-0.99-0.32 0.11-0.64 0.2-0.99 0.2-1.66 0-3.02-1.35-3.02-3.02 0-1.67 1.35-3.02 3.02-3.02 1.67 0 3.02 1.34 3.02 3.02 0 0.99-0.5 1.83-1.24 2.38 0.54-0.26 1.05-0.44 1.41-0.36 0.17 0.04 0.59 0.22 1.06 0.44q1.16-0.33 2.2-0.48c0.91 0.13 1.89 0.33 2.94 0.69 0.81 1.06 2.07 1.75 3.5 1.75 2.44 0 4.41-1.98 4.41-4.42 0-2.44-1.97-4.41-4.41-4.41-1.43 0-2.69 0.69-3.5 1.75q-1.58 0.51-2.94 0.68-1.37-0.17-2.95-0.68c-0.81-1.07-2.07-1.75-3.5-1.75-2.44 0-4.42 1.97-4.42 4.41q0.01 0.18 0.04 0.36c0.06 0 0.17 0 0.23 0.01q0.14 0 0.23 0.02zm16.81-3.42c1.68 0 3.02 1.35 3.02 3.02 0 1.67-1.34 3.03-3.02 3.03-1.67 0-3.02-1.36-3.02-3.03 0-1.67 1.35-3.02 3.02-3.02z"/>
	<path class="s8" d="m289.2 710.69c1.68 0 3.02-1.36 3.02-3.03 0-1.67-1.34-3.02-3.02-3.02-1.67 0-3.02 1.35-3.02 3.02 0 1.67 1.35 3.03 3.02 3.03z"/>
	<path class="s8" d="m279.34 707.66c0-1.67-1.36-3.02-3.03-3.02-1.66 0-3.02 1.35-3.02 3.02 0 1.67 1.36 3.03 3.02 3.03 0.35 0 0.67-0.09 0.99-0.2q0.4-0.25 0.79-0.44c0.74-0.56 1.25-1.39 1.25-2.39z"/>
	<path class="s4" d="m300.59 712.08c1.44 0 2.7-0.69 3.5-1.75 1.06-0.35 2.04-0.56 2.95-0.69 0.91 0.13 1.9 0.34 2.95 0.69 0.8 1.07 2.06 1.75 3.5 1.75 2.44 0 4.41-1.97 4.41-4.42 0-2.44-1.97-4.41-4.41-4.41-1.44 0-2.69 0.69-3.5 1.75q-1.58 0.51-2.95 0.69c-0.91-0.13-1.89-0.34-2.95-0.69-0.8-1.06-2.06-1.75-3.5-1.75-2.43 0-4.41 1.97-4.41 4.41 0 2.44 1.98 4.42 4.41 4.42zm12.9-7.44c1.67 0 3.02 1.35 3.02 3.02 0 1.67-1.35 3.03-3.02 3.03-1.67 0-3.03-1.36-3.03-3.03 0-1.67 1.36-3.02 3.03-3.02zm-12.9 0c1.68 0 3.03 1.35 3.03 3.02 0 1.67-1.35 3.03-3.03 3.03-1.66 0-3.02-1.36-3.02-3.03 0-1.67 1.36-3.02 3.02-3.02z"/>
	<path class="s8" d="m313.49 710.69c1.67 0 3.02-1.36 3.02-3.03 0-1.67-1.35-3.02-3.02-3.02-1.67 0-3.03 1.35-3.03 3.02 0 1.67 1.36 3.03 3.03 3.03z"/>
	<path class="s8" d="m300.59 710.69c1.68 0 3.03-1.36 3.03-3.03 0-1.67-1.35-3.02-3.03-3.02-1.66 0-3.02 1.35-3.02 3.02 0 1.67 1.36 3.03 3.02 3.03z"/>
	<path class="s4" d="m324.88 712.08c1.43 0 2.69-0.69 3.5-1.75 1.05-0.35 2.03-0.56 2.95-0.69 0.91 0.13 1.89 0.34 2.94 0.69 0.81 1.07 2.07 1.75 3.51 1.75 2.43 0 4.41-1.97 4.41-4.42 0-2.44-1.98-4.41-4.41-4.41-1.44 0-2.7 0.69-3.51 1.75q-1.58 0.51-2.94 0.69c-0.92-0.13-1.9-0.34-2.95-0.69-0.81-1.06-2.07-1.75-3.5-1.75-2.44 0-4.42 1.97-4.42 4.41 0 2.44 1.98 4.42 4.42 4.42zm12.89-7.44c1.67 0 3.02 1.35 3.02 3.02 0 1.67-1.35 3.03-3.02 3.03-1.67 0-3.03-1.36-3.03-3.03 0-1.67 1.36-3.02 3.03-3.02zm-12.89 0c1.67 0 3.02 1.35 3.02 3.02 0 1.67-1.35 3.03-3.02 3.03-1.67 0-3.02-1.36-3.02-3.03 0-1.67 1.35-3.02 3.02-3.02z"/>
	<path class="s8" d="m337.77 710.69c1.67 0 3.02-1.36 3.02-3.03 0-1.67-1.35-3.02-3.02-3.02-1.67 0-3.03 1.35-3.03 3.02 0 1.67 1.36 3.03 3.03 3.03z"/>
	<path class="s8" d="m324.88 710.69c1.67 0 3.02-1.36 3.02-3.03 0-1.67-1.35-3.02-3.02-3.02-1.67 0-3.02 1.35-3.02 3.02 0 1.67 1.35 3.03 3.02 3.03z"/>
	<path class="s4" d="m352.66 705c-0.81-1.06-2.07-1.75-3.5-1.75-2.44 0-4.42 1.97-4.42 4.41 0 2.44 1.98 4.42 4.42 4.42 1.43 0 2.69-0.69 3.5-1.75q0.71-0.23 1.37-0.38 0.82-0.2 1.57-0.31c0.92 0.13 1.91 0.34 2.95 0.69 0.48 0.64 1.14 1.11 1.88 1.41q0.75 0.33 1.63 0.34 0.88 0 1.65-0.32c1.62-0.66 2.76-2.24 2.76-4.1 0-2.44-1.98-4.41-4.41-4.41-1.44 0-2.7 0.69-3.5 1.75q-1.42 0.45-2.66 0.64-0.15 0.03-0.29 0.05-1.37-0.18-2.95-0.69zm-3.5 5.69c-1.67 0-3.02-1.36-3.02-3.03 0-1.67 1.35-3.02 3.02-3.02 1.67 0 3.03 1.35 3.03 3.02 0 1.67-1.36 3.03-3.03 3.03zm12.9-6.05c1.66 0 3.02 1.35 3.02 3.02 0 1.67-1.36 3.03-3.02 3.03-1.68 0-3.03-1.36-3.03-3.03 0-1.67 1.35-3.02 3.03-3.02z"/>
	<path class="s8" d="m362.06 710.69c1.66 0 3.02-1.36 3.02-3.03 0-1.67-1.36-3.02-3.02-3.02-1.68 0-3.03 1.35-3.03 3.02 0 1.67 1.35 3.03 3.03 3.03z"/>
	<path class="s8" d="m349.16 704.64c-1.67 0-3.02 1.35-3.02 3.02 0 1.67 1.35 3.03 3.02 3.03 1.67 0 3.03-1.36 3.03-3.03 0-1.67-1.36-3.02-3.03-3.02z"/>
	<path class="s4" d="m374.89 711.8c0.82-0.29 1.53-0.79 2.05-1.47 1.05-0.36 2.03-0.56 2.95-0.69 0.91 0.13 1.89 0.33 2.94 0.69 0.55 0.71 1.31 1.24 2.18 1.51q0.62 0.23 1.33 0.24 0.69-0.01 1.31-0.22c1.79-0.56 3.1-2.22 3.1-4.2 0-2.44-1.98-4.42-4.41-4.42-1.44 0-2.69 0.7-3.51 1.75q-1.57 0.52-2.94 0.7c-0.92-0.13-1.9-0.34-2.95-0.7-0.81-1.05-2.06-1.75-3.5-1.75-2.43 0-4.41 1.98-4.41 4.42 0 1.9 1.19 3.5 2.87 4.13q0.72 0.28 1.54 0.29c0.52 0 1-0.11 1.45-0.28zm11.45-7.16c1.67 0 3.02 1.35 3.02 3.02 0 1.67-1.35 3.03-3.02 3.03-1.68 0-3.03-1.36-3.03-3.03 0-1.67 1.36-3.02 3.03-3.02zm-15.92 3.02c0-1.67 1.36-3.02 3.02-3.02 1.67 0 3.03 1.35 3.03 3.02 0 1.67-1.36 3.03-3.03 3.03-1.66 0-3.02-1.36-3.02-3.03z"/>
	<path class="s8" d="m386.34 710.69c1.67 0 3.02-1.36 3.02-3.03 0-1.67-1.35-3.02-3.02-3.02-1.68 0-3.03 1.35-3.03 3.02 0 1.67 1.36 3.03 3.03 3.03z"/>
	<path class="s8" d="m376.47 707.66c0-1.67-1.36-3.02-3.03-3.02-1.66 0-3.02 1.35-3.02 3.02 0 1.67 1.36 3.03 3.02 3.03 1.67 0 3.03-1.36 3.03-3.03z"/>
	<path class="s4" d="m398.89 711.91c0.94-0.26 1.76-0.82 2.34-1.58 1.05-0.35 2.03-0.56 2.94-0.69 0.91 0.13 1.9 0.34 2.95 0.69 0.6 0.8 1.46 1.38 2.46 1.63q0.5 0.13 1.04 0.13 0.51-0.01 0.97-0.12c1.97-0.44 3.45-2.2 3.45-4.3 0-2.44-1.98-4.41-4.42-4.41-1.43 0-2.69 0.69-3.5 1.75q-1.58 0.51-2.95 0.68c-0.91-0.12-1.89-0.33-2.94-0.68-0.81-1.07-2.07-1.75-3.5-1.75-2.44 0-4.42 1.97-4.42 4.41 0 2.03 1.37 3.72 3.23 4.24q0.57 0.17 1.18 0.18 0.62-0.02 1.17-0.18zm11.73-7.27c1.67 0 3.03 1.35 3.03 3.02 0 1.67-1.36 3.03-3.03 3.03-1.67 0-3.02-1.36-3.02-3.03 0-1.67 1.35-3.02 3.02-3.02zm-15.91 3.02c0-1.67 1.35-3.02 3.02-3.02 1.67 0 3.03 1.35 3.03 3.02 0 1.67-1.36 3.03-3.03 3.03-1.67 0-3.02-1.36-3.02-3.03z"/>
	<path class="s8" d="m410.62 710.69c1.67 0 3.03-1.36 3.03-3.03 0-1.67-1.36-3.02-3.03-3.02-1.67 0-3.02 1.35-3.02 3.02 0 1.67 1.35 3.03 3.02 3.03z"/>
	<path class="s8" d="m400.75 707.66c0-1.67-1.35-3.02-3.02-3.02-1.67 0-3.03 1.35-3.03 3.02 0 1.67 1.36 3.03 3.03 3.03 1.67 0 3.02-1.36 3.02-3.03z"/>
	<path class="s4" d="m422.01 712.08q0.28-0.01 0.56-0.06c1.19-0.16 2.24-0.77 2.94-1.69 1.05-0.35 2.03-0.56 2.95-0.69 0.91 0.13 1.89 0.34 2.94 0.69 0.79 1.04 2.01 1.71 3.4 1.74q0.06 0.01 0.1 0.01 0.06 0 0.12-0.01c2.38-0.06 4.3-2 4.3-4.41 0-2.44-1.98-4.41-4.41-4.41-1.44 0-2.7 0.69-3.5 1.75q-1.58 0.51-2.95 0.69-1.38-0.17-2.94-0.69c-0.82-1.06-2.07-1.75-3.5-1.75-2.45 0-4.43 1.97-4.43 4.41 0 2.2 1.61 4.01 3.71 4.35q0.03 0.01 0.06 0.01 0.32 0.05 0.65 0.06zm12.9-7.44c1.67 0 3.02 1.35 3.02 3.02 0 1.67-1.35 3.03-3.02 3.03-1.68 0-3.03-1.36-3.03-3.03 0-1.67 1.35-3.02 3.03-3.02zm-12.9 0c1.67 0 3.03 1.35 3.03 3.02 0 1.67-1.36 3.03-3.03 3.03-1.67 0-3.02-1.36-3.02-3.03 0-1.67 1.35-3.02 3.02-3.02z"/>
	<path class="s8" d="m434.91 710.69c1.67 0 3.02-1.36 3.02-3.03 0-1.67-1.35-3.02-3.02-3.02-1.68 0-3.03 1.35-3.03 3.02 0 1.67 1.35 3.03 3.03 3.03z"/>
	<path class="s8" d="m422.01 710.69c1.67 0 3.03-1.36 3.03-3.03 0-1.67-1.36-3.02-3.03-3.02-1.67 0-3.02 1.35-3.02 3.02 0 1.67 1.35 3.03 3.02 3.03z"/>
	<path class="s4" d="m459.19 703.25c-1.44 0-2.7 0.69-3.5 1.75q-1.58 0.51-2.95 0.69-1.37-0.17-2.94-0.69c-0.82-1.06-2.07-1.75-3.5-1.75-2.44 0-4.42 1.97-4.42 4.41 0 2.44 1.98 4.42 4.42 4.42 1.43 0 2.68-0.69 3.5-1.75 1.05-0.35 2.03-0.56 2.94-0.69 0.91 0.13 1.9 0.34 2.95 0.69 0.8 1.07 2.06 1.75 3.5 1.75 2.44 0 4.41-1.97 4.41-4.42 0-2.44-1.97-4.41-4.41-4.41zm-12.89 7.44c-1.67 0-3.02-1.36-3.02-3.03 0-1.67 1.35-3.02 3.02-3.02 1.67 0 3.02 1.35 3.02 3.02 0 1.67-1.36 3.03-3.02 3.03zm12.89 0c-1.67 0-3.03-1.36-3.03-3.03 0-1.67 1.36-3.02 3.03-3.02 1.67 0 3.02 1.35 3.02 3.02 0 1.67-1.35 3.03-3.02 3.03z"/>
	<path class="s8" d="m459.19 704.64c-1.67 0-3.03 1.35-3.03 3.02 0 1.67 1.36 3.03 3.03 3.03 1.67 0 3.02-1.36 3.02-3.03 0-1.67-1.35-3.02-3.02-3.02z"/>
	<path class="s8" d="m446.3 704.64c-1.67 0-3.02 1.35-3.02 3.02 0 1.67 1.35 3.03 3.02 3.03 1.67 0 3.02-1.36 3.02-3.03 0-1.67-1.36-3.02-3.02-3.02z"/>
	<path class="s4" d="m487.89 707.66c0-2.44-1.98-4.41-4.42-4.41q-1.04 0.01-1.91 0.45-0.95 0.46-1.59 1.3c-1.05 0.35-2.03 0.56-2.94 0.69-0.92-0.13-1.9-0.34-2.95-0.69-0.81-1.06-2.07-1.74-3.5-1.74-2.44 0-4.42 1.97-4.42 4.41 0 2.44 1.98 4.42 4.42 4.42 1.43 0 2.69-0.7 3.5-1.75 1.05-0.36 2.03-0.57 2.95-0.69 0.9 0.12 1.89 0.33 2.94 0.69 0.81 1.06 2.07 1.75 3.5 1.75 1.09 0 2.07-0.41 2.84-1.06 0.96-0.82 1.58-2.01 1.58-3.37zm-17.31 3.03c-1.67 0-3.02-1.36-3.02-3.03 0-1.67 1.35-3.02 3.02-3.02 1.67 0 3.02 1.35 3.02 3.02 0 1.67-1.35 3.03-3.02 3.03zm12.89 0c-1.67 0-3.02-1.36-3.02-3.03 0-1.67 1.35-3.02 3.02-3.02 1.68 0 3.02 1.35 3.02 3.02 0 1.67-1.35 3.03-3.02 3.03z"/>
	<path class="s8" d="m483.47 704.64c-1.67 0-3.02 1.35-3.02 3.02 0 1.67 1.35 3.03 3.02 3.03 1.68 0 3.02-1.36 3.02-3.03 0-1.67-1.35-3.02-3.02-3.02z"/>
	<path class="s8" d="m470.58 704.64c-1.67 0-3.02 1.35-3.02 3.02 0 1.67 1.35 3.03 3.02 3.03 1.67 0 3.02-1.36 3.02-3.03 0-1.67-1.35-3.02-3.02-3.02z"/>
	<path class="s4" d="m494.86 712.08c1.44 0 2.69-0.69 3.5-1.75 1.06-0.35 2.04-0.56 2.95-0.69 0.91 0.13 1.89 0.34 2.95 0.69 0.8 1.07 2.06 1.75 3.5 1.75 2.43 0 4.41-1.97 4.41-4.42 0-2.44-1.98-4.41-4.41-4.41-1.44 0-2.7 0.69-3.5 1.75q-1.58 0.51-2.95 0.69-1.38-0.17-2.95-0.69c-0.81-1.06-2.06-1.75-3.5-1.75-2.44 0-4.42 1.97-4.42 4.41 0 2.44 1.98 4.42 4.42 4.42zm12.9-7.44c1.67 0 3.02 1.35 3.02 3.02 0 1.67-1.35 3.03-3.02 3.03-1.68 0-3.03-1.36-3.03-3.03 0-1.67 1.35-3.02 3.03-3.02zm-12.9 0c1.67 0 3.03 1.35 3.03 3.02 0 1.67-1.36 3.03-3.03 3.03-1.66 0-3.02-1.36-3.02-3.03 0-1.67 1.35-3.02 3.02-3.02z"/>
	<path class="s8" d="m507.76 710.69c1.67 0 3.02-1.36 3.02-3.03 0-1.67-1.35-3.02-3.02-3.02-1.68 0-3.03 1.35-3.03 3.02 0 1.67 1.35 3.03 3.03 3.03z"/>
	<path class="s8" d="m494.86 710.69c1.67 0 3.03-1.36 3.03-3.03 0-1.67-1.36-3.02-3.03-3.02-1.66 0-3.02 1.35-3.02 3.02 0 1.67 1.35 3.03 3.02 3.03z"/>
	<path class="s4" d="m536.45 707.66c0-2.44-1.98-4.41-4.41-4.41-1.44 0-2.7 0.69-3.5 1.75q-1.58 0.51-2.95 0.69c-0.91-0.13-1.89-0.34-2.94-0.69-0.81-1.06-2.07-1.75-3.5-1.75-2.44 0-4.42 1.97-4.42 4.41 0 2.44 1.97 4.42 4.42 4.42 1.43 0 2.69-0.69 3.5-1.75 1.05-0.35 2.03-0.56 2.94-0.69 0.92 0.13 1.9 0.34 2.95 0.69 0.65 0.86 1.6 1.45 2.68 1.65h1.73c2-0.42 3.5-2.19 3.5-4.32zm-17.3 3.03c-1.67 0-3.03-1.36-3.03-3.03 0-1.67 1.35-3.02 3.03-3.02 1.66 0 3.02 1.35 3.02 3.02 0 1.67-1.36 3.03-3.02 3.03zm9.87-3.03c0-1.67 1.34-3.02 3.02-3.02 1.67 0 3.02 1.35 3.02 3.02 0 1.67-1.35 3.03-3.02 3.03-1.68 0-3.02-1.36-3.02-3.03z"/>
	<path class="s8" d="m535.06 707.66c0-1.67-1.35-3.02-3.02-3.02-1.68 0-3.02 1.35-3.02 3.02 0 1.67 1.34 3.03 3.02 3.03 1.67 0 3.02-1.36 3.02-3.03z"/>
	<path class="s8" d="m519.15 704.64c-1.67 0-3.02 1.35-3.02 3.02 0 1.67 1.34 3.03 3.02 3.03 1.66 0 3.02-1.36 3.02-3.03 0-1.67-1.36-3.02-3.02-3.02z"/>
	<path class="s4" d="m546.93 710.33c1.05-0.36 2.03-0.56 2.95-0.69 0.91 0.13 1.89 0.33 2.94 0.69 0.65 0.85 1.6 1.45 2.69 1.65h1.73c1.99-0.42 3.49-2.19 3.49-4.32 0-2.44-1.97-4.42-4.41-4.42-1.43 0-2.69 0.7-3.5 1.75q-1.58 0.52-2.94 0.7c-0.92-0.13-1.9-0.34-2.95-0.7-0.81-1.05-2.07-1.75-3.5-1.75-2.44 0-4.41 1.98-4.41 4.42 0 2.13 1.5 3.9 3.5 4.32h1.72c1.09-0.2 2.04-0.8 2.69-1.65zm9.39-5.69c1.67 0 3.02 1.35 3.02 3.02 0 1.67-1.35 3.03-3.02 3.03-1.67 0-3.02-1.36-3.02-3.03 0-1.67 1.35-3.02 3.02-3.02zm-15.91 3.02c0-1.67 1.35-3.02 3.02-3.02 1.67 0 3.02 1.35 3.02 3.02 0 1.67-1.35 3.03-3.02 3.03-1.67 0-3.02-1.36-3.02-3.03z"/>
	<path class="s8" d="m556.32 710.69c1.67 0 3.02-1.36 3.02-3.03 0-1.67-1.35-3.02-3.02-3.02-1.67 0-3.02 1.35-3.02 3.02 0 1.67 1.35 3.03 3.02 3.03z"/>
	<path class="s8" d="m546.45 707.66c0-1.67-1.35-3.02-3.02-3.02-1.66 0-3.02 1.35-3.02 3.02 0 1.67 1.35 3.03 3.02 3.03 1.67 0 3.02-1.36 3.02-3.03z"/>
	<path class="s4" d="m571.21 710.33c1.05-0.36 2.03-0.56 2.95-0.69 0.91 0.13 1.89 0.33 2.94 0.69 0.65 0.85 1.6 1.45 2.69 1.65q0.46 0 0.93 0h0.8c1.99-0.42 3.5-2.19 3.5-4.32 0-2.44-1.98-4.42-4.42-4.42-1.43 0-2.69 0.7-3.5 1.75q-1.57 0.52-2.94 0.7c-0.92-0.13-1.9-0.34-2.95-0.7-0.81-1.05-2.06-1.75-3.5-1.75-2.44 0-4.41 1.98-4.41 4.42 0 2.13 1.5 3.9 3.5 4.32q0.71 0 1.72 0c1.09-0.2 2.04-0.8 2.69-1.65zm9.39-5.69c1.68 0 3.02 1.35 3.02 3.02 0 1.67-1.34 3.03-3.02 3.03-1.67 0-3.02-1.36-3.02-3.03 0-1.67 1.35-3.02 3.02-3.02zm-15.91 3.02c0-1.67 1.36-3.02 3.02-3.02 1.68 0 3.03 1.35 3.03 3.02 0 1.67-1.35 3.03-3.03 3.03-1.66 0-3.02-1.36-3.02-3.03z"/>
	<path class="s8" d="m580.6 710.69c1.68 0 3.02-1.36 3.02-3.03 0-1.67-1.34-3.02-3.02-3.02-1.67 0-3.02 1.35-3.02 3.02 0 1.67 1.35 3.03 3.02 3.03z"/>
	<path class="s8" d="m570.73 707.66c0-1.67-1.35-3.02-3.02-3.02-1.66 0-3.02 1.35-3.02 3.02 0 1.67 1.35 3.03 3.02 3.03 1.67 0 3.02-1.36 3.02-3.03z"/>
	<path class="s7" d="m296.15 730.56c0-0.3-0.23-1.35-0.42-2.18-0.19-0.84-0.44-1.88-0.57-2.16-0.38-0.78-2.27-1.38-3.66-1.71q-0.21-0.47-0.45-0.93c0.61-1.3 1.31-3.14 0.94-3.93-0.13-0.28-0.79-1.12-1.32-1.79-0.53-0.66-1.21-1.5-1.46-1.69-0.68-0.54-2.62-0.26-4.02 0.04q-0.41-0.32-0.82-0.63c-0.02-1.44-0.17-3.41-0.86-3.96-0.24-0.19-1.2-0.67-1.97-1.04q-0.48-0.23-0.98-0.45c-0.47-0.22-0.89-0.4-1.06-0.44-0.36-0.09-0.87 0.1-1.41 0.36q-0.39 0.19-0.79 0.44c-0.5 0.32-1 0.67-1.44 0.99q-0.49-0.13-1-0.25c-0.27-0.54-0.6-1.15-0.96-1.69-0.49-0.75-1.02-1.36-1.51-1.48q-0.09-0.01-0.22-0.02c-0.06-0.01-0.16-0.01-0.24-0.01-0.47-0.04-1.15-0.05-1.77-0.05-0.85 0-1.93 0.02-2.22 0.09-0.85 0.19-1.84 1.88-2.48 3.16q-0.51 0.12-1.01 0.26c-1.13-0.88-2.78-2-3.63-1.8-0.3 0.07-1.27 0.52-2.04 0.89-0.76 0.37-1.73 0.85-1.97 1.04-0.69 0.55-0.84 2.52-0.86 3.96q-0.41 0.31-0.82 0.64c-1.4-0.31-3.34-0.59-4.03-0.05-0.24 0.19-0.91 1.02-1.44 1.69-0.54 0.67-1.2 1.52-1.33 1.79-0.38 0.79 0.34 2.63 0.95 3.93q-0.24 0.46-0.46 0.94c-1.4 0.33-3.27 0.92-3.66 1.71-0.13 0.27-0.38 1.32-0.57 2.15-0.19 0.83-0.42 1.88-0.42 2.18 0 0.88 1.44 2.24 2.56 3.14q-0.02 0.26-0.03 0.52 0.01 0.25 0.03 0.51c-1.12 0.91-2.56 2.26-2.56 3.14 0 0.3 0.23 1.36 0.41 2.19 0.2 0.82 0.45 1.87 0.58 2.14 0.39 0.79 2.26 1.38 3.66 1.72q0.22 0.47 0.46 0.93c-0.62 1.3-1.33 3.14-0.95 3.93 0.13 0.28 0.79 1.13 1.32 1.79 0.54 0.67 1.21 1.5 1.45 1.69 0.69 0.54 2.62 0.26 4.03-0.05q0.4 0.33 0.82 0.64c0.02 1.44 0.18 3.41 0.86 3.96 0.24 0.2 1.2 0.67 1.97 1.04 0.77 0.37 1.74 0.83 2.04 0.89 0.85 0.2 2.49-0.92 3.63-1.8q0.5 0.14 1.01 0.26c0.64 1.28 1.63 2.97 2.48 3.16 0.29 0.07 1.37 0.09 2.22 0.09 0.61 0 1.33-0.01 1.8-0.04q0.29-0.02 0.43-0.04c0.84-0.19 1.83-1.89 2.47-3.17 0.34-0.06 0.67-0.17 1-0.25 1.15 0.87 2.78 1.99 3.64 1.8 0.11-0.03 0.33-0.11 0.59-0.22 0.43-0.19 0.97-0.44 1.45-0.68 0.77-0.37 1.73-0.84 1.97-1.04 0.68-0.54 0.84-2.52 0.85-3.96q0.42-0.31 0.83-0.63c1.4 0.31 3.34 0.59 4.02 0.05 0.25-0.2 0.93-1.03 1.46-1.69 0.53-0.67 1.19-1.52 1.32-1.79 0.37-0.79-0.33-2.63-0.94-3.94q0.23-0.46 0.45-0.93c1.39-0.34 3.28-0.92 3.67-1.71 0.12-0.28 0.38-1.32 0.56-2.15 0.19-0.83 0.42-1.89 0.42-2.19 0-0.88-1.45-2.22-2.56-3.14q0.02-0.25 0.02-0.51 0-0.26-0.02-0.51c1.11-0.92 2.56-2.27 2.56-3.15zm-27.17 15.79c-6.75 0-12.22-5.47-12.22-12.23 0-6.75 5.47-12.22 12.22-12.22 6.75 0 12.22 5.47 12.22 12.22 0 6.75-5.47 12.23-12.22 12.23z"/>
	<path class="s8" d="m268.98 721.9c-6.75 0-12.22 5.47-12.22 12.22 0 6.76 5.47 12.23 12.22 12.23 6.75 0 12.22-5.47 12.22-12.23 0-6.75-5.47-12.22-12.22-12.22z"/>
	<path class="s7" d="m324.37 747.72c0 2.85-2.31 5.17-5.16 5.17-2.85 0-5.16-2.31-5.16-5.17q0.01-0.15 0.03-0.3h-4.41q0.08 0.07 0.15 0.13 0 0.11 0 0.22 0 0.1 0 0.21c-0.46 0.38-1.07 0.95-1.07 1.33 0 0.12 0.09 0.56 0.17 0.91 0.08 0.35 0.19 0.8 0.25 0.91 0.15 0.34 0.95 0.58 1.54 0.72q0.08 0.2 0.19 0.41c-0.25 0.54-0.56 1.32-0.4 1.65 0.06 0.12 0.34 0.48 0.56 0.75 0.23 0.29 0.52 0.64 0.61 0.72 0.29 0.23 1.11 0.11 1.7-0.02q0.17 0.14 0.35 0.26c0 0.35 0.03 0.77 0.11 1.1 0.05 0.26 0.13 0.48 0.25 0.58 0.1 0.08 0.51 0.28 0.83 0.43 0.32 0.16 0.73 0.35 0.86 0.38 0.18 0.04 0.45-0.06 0.73-0.21 0.28-0.16 0.56-0.37 0.8-0.55q0.21 0.06 0.43 0.11c0.26 0.54 0.68 1.25 1.04 1.34 0.13 0.02 0.58 0.03 0.94 0.03 0.36 0 0.82 0 0.94-0.03 0.36-0.09 0.77-0.79 1.04-1.34q0.22-0.05 0.43-0.11 0.1 0.08 0.21 0.16c0.46 0.33 1.01 0.68 1.32 0.6 0.13-0.03 0.54-0.21 0.87-0.38 0.32-0.15 0.72-0.36 0.82-0.43 0.12-0.09 0.19-0.29 0.24-0.52 0.09-0.35 0.12-0.79 0.12-1.16q0.18-0.12 0.35-0.26c0.59 0.12 1.41 0.25 1.69 0.01 0.11-0.07 0.4-0.42 0.62-0.7 0.23-0.28 0.5-0.64 0.56-0.76 0.16-0.33-0.14-1.11-0.4-1.65q0.1-0.21 0.19-0.41c0.59-0.13 1.39-0.38 1.55-0.71 0.06-0.12 0.16-0.56 0.24-0.91 0.08-0.35 0.18-0.79 0.18-0.92 0-0.37-0.61-0.95-1.09-1.33q0.01-0.11 0.01-0.21 0-0.11-0.01-0.22 0.08-0.06 0.15-0.13h-5.4q0.02 0.15 0.03 0.3z"/>
	<path class="s8" d="m319.21 752.89c2.85 0 5.16-2.32 5.16-5.17q-0.01-0.15-0.03-0.3h-10.26q-0.02 0.15-0.03 0.3c0 2.85 2.31 5.17 5.16 5.17z"/>
	<path class="s7" d="m370.59 747.72c0 2.85-2.31 5.17-5.16 5.17-2.85 0-5.16-2.31-5.16-5.17q0.01-0.15 0.03-0.3h-4.41q0.08 0.07 0.15 0.13 0 0.11 0 0.22 0 0.1 0 0.21c-0.46 0.38-1.07 0.95-1.07 1.33 0 0.12 0.09 0.56 0.17 0.91 0.07 0.35 0.19 0.8 0.24 0.91 0.16 0.34 0.96 0.58 1.55 0.72q0.08 0.2 0.18 0.41c-0.25 0.54-0.55 1.32-0.39 1.65 0.06 0.12 0.33 0.48 0.56 0.75 0.23 0.29 0.51 0.64 0.61 0.72 0.29 0.23 1.1 0.11 1.7-0.02q0.17 0.14 0.35 0.26c0 0.52 0.05 1.17 0.24 1.5q0.05 0.11 0.12 0.18c0.1 0.08 0.5 0.28 0.83 0.43 0.31 0.16 0.7 0.34 0.83 0.37q0.01 0.01 0.02 0.01 0.06 0.01 0.14-0.01c0.38-0.02 0.97-0.41 1.4-0.75q0.2 0.07 0.43 0.11c0.26 0.54 0.68 1.26 1.04 1.34 0.11 0.02 0.49 0.03 0.83 0.03q0.05 0 0.11 0c0.35 0 0.8 0 0.93-0.03 0.36-0.08 0.78-0.79 1.05-1.34q0.21-0.05 0.42-0.11c0.48 0.37 1.18 0.85 1.53 0.76 0.1-0.02 0.36-0.14 0.62-0.26q0.13-0.05 0.24-0.12c0.33-0.15 0.73-0.36 0.83-0.43q0.11-0.09 0.17-0.26c0.15-0.36 0.19-0.95 0.2-1.42q0.17-0.12 0.34-0.26c0.59 0.12 1.41 0.25 1.7 0.01 0.1-0.07 0.39-0.42 0.61-0.7 0.23-0.28 0.51-0.64 0.57-0.76 0.15-0.33-0.15-1.11-0.41-1.65q0.1-0.21 0.2-0.41c0.58-0.13 1.38-0.38 1.54-0.71 0.06-0.12 0.16-0.56 0.24-0.91 0.08-0.35 0.18-0.79 0.18-0.92 0-0.37-0.61-0.95-1.08-1.33q0.01-0.11 0.01-0.21 0-0.11-0.01-0.22 0.07-0.06 0.15-0.13h-5.41q0.03 0.15 0.04 0.3z"/>
	<path class="s8" d="m365.43 752.89c2.85 0 5.16-2.32 5.16-5.17q-0.01-0.15-0.03-0.3h-10.26q-0.02 0.15-0.03 0.3c0 2.85 2.31 5.17 5.16 5.17z"/>
	<path class="s7" d="m416.81 747.72c0 2.85-2.32 5.17-5.17 5.17-2.84 0-5.16-2.31-5.16-5.17q0.02-0.15 0.04-0.3h-4.41q0.07 0.07 0.15 0.13-0.01 0.11-0.01 0.22 0 0.1 0.01 0.21c-0.47 0.38-1.08 0.95-1.08 1.33 0 0.12 0.1 0.56 0.17 0.91 0.08 0.35 0.19 0.8 0.25 0.91 0.16 0.34 0.95 0.58 1.54 0.72q0.09 0.2 0.19 0.41c-0.25 0.54-0.56 1.32-0.4 1.65 0.06 0.12 0.34 0.48 0.56 0.75 0.23 0.29 0.52 0.64 0.61 0.72 0.29 0.23 1.11 0.11 1.7-0.02q0.17 0.14 0.35 0.26c0.01 0.61 0.07 1.45 0.36 1.68 0.1 0.08 0.51 0.28 0.83 0.43q0.15 0.08 0.31 0.15c0.24 0.11 0.46 0.21 0.55 0.23 0.36 0.08 1.05-0.39 1.53-0.76q0.22 0.06 0.43 0.11 0.16 0.32 0.36 0.64c0.22 0.35 0.46 0.65 0.68 0.7 0.13 0.02 0.59 0.03 0.94 0.03q0.2 0 0.4 0c0.24-0.01 0.46-0.01 0.54-0.03 0.23-0.05 0.49-0.38 0.72-0.75q0.18-0.3 0.32-0.59 0.22-0.04 0.43-0.11c0.48 0.37 1.17 0.85 1.53 0.76 0.13-0.02 0.54-0.21 0.86-0.38 0.33-0.15 0.73-0.35 0.83-0.43 0.29-0.23 0.35-1.06 0.37-1.67q0.17-0.13 0.34-0.27c0.59 0.13 1.41 0.25 1.7 0.02 0.1-0.08 0.39-0.43 0.61-0.71 0.23-0.28 0.51-0.64 0.56-0.75 0.16-0.34-0.14-1.11-0.4-1.66q0.1-0.2 0.2-0.4c0.58-0.14 1.38-0.39 1.54-0.72 0.05-0.12 0.16-0.56 0.24-0.91 0.08-0.35 0.17-0.79 0.17-0.92 0-0.37-0.61-0.94-1.08-1.33q0.01-0.1 0.02-0.21-0.01-0.11-0.02-0.21 0.08-0.07 0.15-0.14h-5.4q0.03 0.15 0.04 0.3z"/>
	<path class="s8" d="m411.65 752.89c2.85 0 5.16-2.32 5.16-5.17q-0.01-0.15-0.03-0.3h-10.26q-0.02 0.15-0.04 0.3c0 2.85 2.32 5.17 5.17 5.17z"/>
	<path class="s7" d="m463.03 747.72c0 2.85-2.32 5.17-5.17 5.17-2.84 0-5.16-2.31-5.16-5.17q0.01-0.15 0.03-0.3h-4.4q0.07 0.07 0.15 0.13-0.01 0.11-0.01 0.22 0 0.1 0.01 0.21c-0.47 0.38-1.08 0.95-1.08 1.33 0 0.12 0.09 0.56 0.17 0.91 0.08 0.35 0.19 0.8 0.25 0.91 0.16 0.34 0.95 0.58 1.54 0.72q0.09 0.2 0.19 0.41c-0.25 0.54-0.56 1.32-0.4 1.65 0.06 0.12 0.33 0.48 0.56 0.75 0.23 0.29 0.51 0.64 0.61 0.72 0.29 0.23 1.11 0.11 1.7-0.02q0.17 0.14 0.35 0.26c0.01 0.61 0.07 1.45 0.36 1.68 0.1 0.08 0.5 0.28 0.83 0.43 0.32 0.16 0.74 0.35 0.86 0.38 0.36 0.08 1.05-0.39 1.53-0.76q0.21 0.06 0.43 0.11 0.05 0.09 0.1 0.19c0.25 0.47 0.58 0.99 0.88 1.11q0.03 0.02 0.06 0.04c0.13 0.02 0.59 0.03 0.94 0.03 0.36 0 0.81 0 0.94-0.03 0.19-0.04 0.4-0.28 0.6-0.57q0.25-0.38 0.44-0.77 0.22-0.05 0.43-0.11c0.47 0.37 1.17 0.85 1.53 0.76q0.04-0.01 0.09-0.03c0.16-0.06 0.49-0.21 0.77-0.35 0.32-0.15 0.73-0.36 0.83-0.43 0.29-0.23 0.35-1.07 0.36-1.68q0.18-0.12 0.35-0.26c0.59 0.12 1.41 0.25 1.7 0.01 0.1-0.07 0.39-0.42 0.61-0.7 0.22-0.28 0.51-0.64 0.56-0.76 0.16-0.33-0.14-1.11-0.4-1.65q0.1-0.21 0.19-0.41c0.59-0.13 1.38-0.38 1.55-0.71 0.05-0.12 0.16-0.56 0.24-0.91 0.08-0.35 0.17-0.79 0.17-0.92 0-0.37-0.61-0.95-1.08-1.33q0.01-0.11 0.02-0.21-0.01-0.11-0.02-0.22 0.08-0.06 0.15-0.13h-5.41q0.04 0.15 0.05 0.3z"/>
	<path class="s8" d="m457.86 752.89c2.85 0 5.17-2.32 5.17-5.17q-0.02-0.15-0.04-0.3h-10.26q-0.02 0.15-0.03 0.3c0 2.85 2.32 5.17 5.16 5.17z"/>
	<path class="s7" d="m509.24 747.72c0 2.85-2.31 5.17-5.16 5.17-2.85 0-5.16-2.31-5.16-5.17q0.01-0.15 0.03-0.3h-4.4q0.07 0.07 0.15 0.13-0.01 0.11-0.01 0.22 0 0.1 0.01 0.21c-0.47 0.38-1.08 0.95-1.08 1.33 0 0.12 0.09 0.56 0.17 0.91 0.08 0.35 0.19 0.8 0.25 0.91 0.16 0.34 0.95 0.58 1.54 0.72q0.09 0.2 0.19 0.41c-0.25 0.54-0.56 1.32-0.4 1.65 0.06 0.12 0.34 0.48 0.56 0.75 0.23 0.29 0.52 0.64 0.62 0.72 0.28 0.23 1.1 0.11 1.69-0.02q0.17 0.14 0.35 0.26c0 0.61 0.07 1.45 0.36 1.68 0.1 0.08 0.51 0.28 0.83 0.43 0.32 0.16 0.74 0.35 0.86 0.38 0.36 0.08 1.05-0.39 1.53-0.76q0.21 0.06 0.43 0.11c0.22 0.44 0.54 0.97 0.84 1.21q0.1 0.09 0.21 0.13c0.12 0.02 0.58 0.03 0.93 0.03 0.36 0 0.82 0 0.95-0.03 0.35-0.09 0.77-0.79 1.04-1.34q0.21-0.05 0.42-0.11c0.48 0.37 1.18 0.85 1.54 0.76 0.13-0.03 0.53-0.21 0.86-0.38 0.26-0.12 0.54-0.26 0.7-0.36 0.04-0.02 0.11-0.06 0.12-0.07 0.3-0.23 0.36-1.07 0.37-1.68q0.17-0.12 0.34-0.26c0.59 0.12 1.41 0.25 1.7 0.01 0.1-0.07 0.39-0.42 0.61-0.7 0.23-0.28 0.51-0.64 0.57-0.76 0.15-0.33-0.15-1.11-0.4-1.65q0.1-0.21 0.19-0.41c0.58-0.13 1.38-0.38 1.54-0.71 0.06-0.12 0.16-0.56 0.24-0.91 0.08-0.35 0.18-0.79 0.18-0.92 0-0.37-0.61-0.95-1.08-1.33q0.01-0.11 0.01-0.21 0-0.11-0.01-0.22 0.07-0.06 0.15-0.13h-5.41q0.02 0.15 0.03 0.3z"/>
	<path class="s8" d="m504.08 752.89c2.85 0 5.16-2.32 5.16-5.17q-0.01-0.15-0.03-0.3h-10.26q-0.02 0.15-0.03 0.3c0 2.85 2.31 5.17 5.16 5.17z"/>
	<path class="s4" d="m304.19 723.55v23.87h221.13v-23.87z"/>
	<path class="s11" d="m525.32 751.1c0 0-0.15 5.33 4.41 5.33h35.47c0 0 5.94 0 15.53 0h11.99c4.56 0 4.41-5.33 4.41-5.33v-33.78c0 0 0.15-5.34-4.41-5.34h-11.99c-0.33 0-0.62 0-0.94 0-4.9 0-8.75 0-11.27 0q-1.02 0-1.72 0c-1.01 0-1.6 0-1.6 0h-35.47c-4.56 0-4.41 5.34-4.41 5.34zm3-27.04h65.8v22.37h-65.8zm61.76 29.85h-10.98c-8.79 0-14.23 0-14.23 0h-32.5c-2.89 0-3.7-2.24-3.94-3.64h65.59c-0.23 1.4-1.05 3.64-3.94 3.64zm-57.71-39.39h32.5c0 0 5.44 0 14.23 0h10.98c4.18 0 4.05 4.73 4.05 4.73v0.97h-65.8v-0.97c-0.01 0-0.14-4.73 4.04-4.73z"/>
	<path class="s4" d="m528.32 724.06h65.8v22.37h-65.8z"/>
	<path class="s4" d="m528.43 750.27c0.23 1.4 1.05 3.64 3.94 3.64h32.5c0 0 5.44 0 14.22 0h10.99c2.89 0 3.7-2.24 3.94-3.64z"/>
	<path class="s4" d="m594.13 720.22v-0.98c0 0 0.13-4.73-4.05-4.73h-10.99c-8.78 0-14.22 0-14.22 0h-32.5c-4.18 0-4.05 4.73-4.05 4.73v0.98z"/>
	<path class="s5" d="m571.86 461.08c3.39 0 6.14-2.74 6.14-6.13 0-3.39-2.75-6.13-6.14-6.13-3.39 0-6.13 2.74-6.13 6.13 0 3.39 2.74 6.13 6.13 6.13z"/>
	<path class="s1" d="m836.12 384.94c0 4.15 3.29 7.5 7.36 7.5 4.06 0 7.35-3.35 7.35-7.5 0-4.13-3.29-7.48-7.35-7.48-4.07 0-7.36 3.35-7.36 7.48zm7.12-4.53c2.34 0 4.23 1.92 4.23 4.3 0 2.38-1.89 4.3-4.23 4.3-2.33 0-4.22-1.92-4.22-4.3 0-2.38 1.89-4.3 4.22-4.3z"/>
	<path class="s5" d="m843.24 389.02c2.34 0 4.23-1.93 4.23-4.31 0-2.38-1.89-4.3-4.23-4.3-2.33 0-4.22 1.92-4.22 4.3 0 2.38 1.89 4.31 4.22 4.31z"/>
	<path class="s1" d="m784.53 385.77c4.06 0 7.35-3.35 7.35-7.49 0-4.14-3.29-7.49-7.35-7.49-4.07 0-7.36 3.35-7.36 7.49 0 4.14 3.29 7.49 7.36 7.49zm-0.24-12.03c2.34 0 4.23 1.92 4.23 4.31 0 2.37-1.89 4.3-4.23 4.3-2.34 0-4.23-1.93-4.23-4.3 0-2.39 1.9-4.31 4.23-4.31z"/>
	<path class="s5" d="m784.29 382.35c2.34 0 4.23-1.93 4.23-4.3 0-2.39-1.89-4.31-4.23-4.31-2.34 0-4.23 1.92-4.23 4.31 0 2.37 1.9 4.3 4.23 4.3z"/>
	<path class="s1" d="m524.48 495.68q-0.03-0.06-0.05-0.12-0.11 0.01-0.21 0.02c-2.24 0-4.05-1.85-4.05-4.12 0-2.28 1.81-4.12 4.05-4.12 2.23 0 4.05 1.84 4.05 4.12 0 1.14-0.47 2.18-1.21 2.93l0.34 0.68c0.18 0.37 0.31 0.73 0.46 1.09 1.32-1.06 2.18-2.67 2.18-4.49 0-3.2-2.59-5.78-5.79-5.78-3.19 0-5.79 2.59-5.79 5.78 0 3.2 2.6 5.79 5.79 5.79q0.52 0 1-0.1c-0.16-0.34-0.28-0.68-0.45-1.03z"/>
	<path class="s1" d="m647.57 420.81c0 3.2 2.6 5.79 5.79 5.79 3.2 0 5.79-2.59 5.79-5.79 0-2.65-1.8-4.87-4.23-5.55q-0.09 0.51-0.17 1.03c1.34 0.66 2.28 2.06 2.28 3.69 0 2.28-1.81 4.11-4.05 4.11-2.24 0-4.04-1.83-4.04-4.11 0-1.89 1.24-3.45 2.93-3.95q0.06-0.42 0.14-0.83c-2.54 0.61-4.44 2.88-4.44 5.61z"/>
	<path class="s10" d="m359.35 586.3v-14.03h-5.08v7.15h-2.44v-7.15h-4.87v7.15h-2.44v-7.15h-4.87v7.15h-2.44v-7.15h-4.87v7.15h-2.44v-7.15h-4.87v7.15h-2.44v-7.15h-4.87v7.15h-2.44v-7.15h-4.87v7.15h-2.44v-7.15h-4.87v7.15h-2.44v-7.15h-4.87v7.15h-2.44v-7.15h-4.87v7.15h-2.44v-7.15h-4.87v7.15h-2.44v-7.15h-5.52v14.03z"/>
	<path class="s12" d="m527.86 636.66l-21.01-2.73-10.29-31.13 7.73-0.89q-0.18-0.53-0.36-1.07l-10.21 1.42-42.68-71.29-3.69-5.33-73.74 14.68-0.4 45.98h-7.49v46.8c0-0.14 0.01-0.03 0.01 0.11-0.01 0.63-0.03 3.18-0.89 5.81-0.76 2.54-2.88 5.74-6.88 5.74h-83.38c-3.98 0-6.08-3.2-6.85-5.74-0.86-2.63-0.88-5.18-0.89-5.81h0.01v-42.45l3.83-3.94v46.28c0-0.14 0.01-0.03 0.01 0.11-0.01 0.42 0.05 2.69 0.7 4.61 0.72 2.01 1.54 3.09 3.2 3.1h83.37c1.68-0.01 2.5-1.1 3.24-3.1 0.63-1.92 0.7-4.19 0.69-4.61h0.01v-46.91h-90.71l-37.42 38.47 1.36 50.44 129.5 0.47 81.4 0.28 23.65-0.28 54.22-0.64 6.67-15.88 0.09-0.22-37.5 1.24h-10.22l-3.58-12.16h55.88l-8.66-17.97-1.13-0.14zm-169.74-45.79v19.14h-83.69v-19.14zm82.96-58.23l39.49 66.67h-101.41l-1.46-53.23zm-38.67 103.74l-23.14-32.93h102.39l4.4 40.74z"/>
	<path class="s12" d="m509.34 600.09l-2.51 0.35q0.19 0.56 0.38 1.13l5.36-0.62-1.29-2.67-0.64 0.06-1.54 0.15z"/>
	<path class="s10" d="m480.59 599.31l-39.49-66.66-63.39 13.43 1.47 53.23zm-71.27-55.63l9.82-1.85 19.84-3.74c0 2.08 17.41 32.49 26.35 47.97q1.65 2.87 2.85 4.95c1.44 2.47 2.31 3.97 2.31 3.97h-61.17zm-26.88 3.35l19.16-2.79v50.74h-19.16z"/>
	<path class="s13" d="m420.6 586.06h44.73c-8.94-15.48-26.35-45.89-26.35-47.97l-19.83 3.74 1.45 0.48c0 0 0 43.75 0 43.75z"/>
	<path class="s13" d="m468.19 591.01c1.44 2.47 2.3 3.97 2.3 3.97 0 0-0.86-1.5-2.3-3.97z"/>
	<path class="s6" d="m391.86 547.03l9.74-2.8-19.16 2.8v47.95h9.42z"/>
	<path class="s13" d="m391.86 594.98h9.74v-50.75l-9.74 2.8z"/>
	<path class="s0" d="m470.49 594.98c0 0-0.87-1.5-2.3-3.97q-1.2-2.08-2.86-4.95h-44.73v-43.75l-1.45-0.48-9.83 1.85v51.3z"/>
	<path class="s10" d="m274.43 590.88h83.7v19.13h-83.7z"/>
	<path class="s10" d="m361.9 633.21h-0.01c0.01 0.41-0.06 2.69-0.69 4.6-0.74 2.01-1.56 3.09-3.24 3.1h-83.37c-1.66-0.01-2.47-1.08-3.2-3.1-0.65-1.91-0.71-4.19-0.7-4.6 0-0.14-0.01-0.25-0.01-0.11v-46.28l-3.83 3.94v42.45h-0.01c0.01 0.63 0.04 3.18 0.89 5.81 0.77 2.53 2.87 5.74 6.85 5.74h83.38c4 0 6.11-3.2 6.88-5.74 0.86-2.63 0.89-5.18 0.89-5.81 0-0.15-0.01-0.25-0.01-0.11v-46.81h-3.83z"/>
	<path class="s10" d="m481.68 603.45h-102.39l23.14 32.95 83.65 7.8zm-76.65 9.53h-14.24c0 0-0.71-4.1 1.7-4.1 2.41 0 11.34 0 11.34 0 0 0 1.69-0.24 1.69 1.69 0 1.92-0.49 2.41-0.49 2.41z"/>
	<path class="s12" d="m403.83 608.88c0 0-8.93 0-11.35 0-2.4 0-1.69 4.1-1.69 4.1h14.24c0 0 0.49-0.49 0.49-2.41 0-1.93-1.69-1.69-1.69-1.69z"/>
	<path class="s2" d="m479.36 648.02l3.59 12.16h10.21l37.5-1.24 8.45-0.27c0 0 4.2-8.11 4.2-11.41 0-3.3-11.04-5.43-11.04-5.43l2.97 6.19z"/>
	<path class="s10" d="m507.21 601.57q0.06 0.2 0.13 0.39l8.11-0.87v-0.47l-2.88 0.34z"/>
	<path class="s10" d="m496.55 602.8l10.29 31.13 21.02 2.73-2.41-6.75-14.75-1.78-9.15-25.56 2.85-0.3q-0.06-0.18-0.12-0.36z"/>
	<path class="s1" d="m811.31 363.92c0.22-0.02 0.43-0.07 0.66-0.07 3.21 0 5.82 2.64 5.82 5.93 0 2.36-1.37 4.38-3.34 5.33q0.39 1.74 0.61 3.71c3.88-1.35 6.68-4.99 6.68-9.33 0-5.47-4.44-9.9-9.91-9.9-1.55 0-2.99 0.38-4.29 1.01 1.38 0.96 2.67 2.04 3.77 3.32z"/>
	<path class="s1" d="m806.16 369.78c0-1.94 0.92-3.65 2.33-4.73-1.01-1.01-2.22-1.88-3.5-2.7-1.88 1.81-3.07 4.33-3.07 7.15 0 5.47 4.44 9.91 9.91 9.91 0.14 0 0.26-0.04 0.4-0.05q-0.22-1.98-0.6-3.7c-3.06-0.19-5.47-2.73-5.47-5.88z"/>
	<path class="s1" d="m829.85 482.23c0-3.28 2.6-5.93 5.82-5.93 3.21 0 5.81 2.65 5.81 5.93 0 3.27-2.6 5.92-5.81 5.92-0.88 0-1.7-0.21-2.45-0.57-1.03 1.01-2.16 2.04-3.39 2.94 1.65 1.24 3.69 2.01 5.93 2.01 5.47 0 9.9-4.44 9.9-9.91 0-5.47-4.43-9.91-9.9-9.91-5.48 0-9.91 4.44-9.91 9.91 0 2.18 0.72 4.18 1.92 5.82 1.12-0.77 2.19-1.72 3.22-2.72-0.71-0.98-1.14-2.17-1.14-3.49z"/>
	<path class="s3" d="m504.39 582.86q-0.01-1.48-0.04-2.99c-0.06-3.12-0.13-6.35 0.48-9.26 1.36-6.44 4.69-12.45 7.91-18.27 1.14-2.06 2.27-4.09 3.29-6.11 1.37-2.7 2.86-5.36 4.33-8.01 7.17-12.87 14.54-26.18 7.5-42.05-0.15-0.36-0.28-0.72-0.46-1.09l-0.34-0.68c0.74-0.75 1.21-1.79 1.21-2.93 0-2.29-1.82-4.13-4.05-4.13-2.24 0-4.05 1.84-4.05 4.13 0 2.27 1.81 4.11 4.05 4.11q0.1 0 0.21-0.02 0.02 0.06 0.05 0.13l0.32 0.65c0.17 0.35 0.29 0.69 0.45 1.03 6.42 14.55-0.28 26.66-7.41 39.45-1.49 2.69-2.99 5.38-4.37 8.11-1.02 1.99-2.12 3.99-3.25 6.02-3.32 6-6.76 12.21-8.2 19.07-0.69 3.23-0.62 6.63-0.55 9.92q0.02 0.95 0.03 1.9c1.05 1.55 2.02 2.96 2.86 4.19q0.01-0.25 0-0.49 0.03-1.35 0.03-2.68z"/>
	<path class="s3" d="m506.83 600.44l-2.9 0.4q0.18 0.54 0.36 1.07 0.05 0.18 0.12 0.36l2.93-0.31q-0.07-0.19-0.13-0.39-0.19-0.57-0.38-1.13z"/>
	<path class="s13" d="m493.72 602.26l10.21-1.42 2.9-0.4 2.51-0.35-0.24-1.6-0.87-5.81-0.19-1.27c0 0-0.29-0.42-0.78-1.13-0.63-0.93-1.61-2.37-2.91-4.26-0.83-1.23-1.8-2.64-2.86-4.19-11.43-16.71-34.03-49.65-35.97-51.59-0.58-0.57-1.65-0.91-2.95-1.09-1.48-0.21-3.26-0.22-5.01-0.13-3.7 0.18-7.23 0.79-7.23 0.79l0.71 1.16z"/>
	<path class="s6" d="m518.33 600.78l-2.88 0.31-8.11 0.86-2.93 0.32-2.86 0.3 9.15 25.56 14.75 1.78 1.13 0.14 2.78 0.33-9.2-23.8-1.83-4.73z"/>
	<path class="s1" d="m901.11 701.13c0.17-2.91-6.17-21.91-6.17-21.91l-13.92-12.54 5.37 34.45c2.79 29.34-61.5 55.3-61.5 55.3 81.7-13.56 76.06-52.4 76.22-55.3z"/>
</svg>