<svg version="1.2" xmlns="http://www.w3.org/2000/svg" viewBox="0 0 1080 1081" width="1080" height="1081">
	<defs>
		<clipPath clipPathUnits="userSpaceOnUse" id="cp1">
			<path d="m108 236.58h864v610h-864z"/>
		</clipPath>
	</defs>
	<style>
		.s0 { fill: #d4d4d4 } 
		.s1 { fill: #5f6061 } 
		.s2 { fill: #db9e00 } 
		.s3 { fill: #f2f2f2 } 
		.s4 { fill: #ffb800 } 
		.s5 { fill: #c28c00 } 
		.s6 { fill: #d6d6d6 } 
		.s7 { fill: #ec1c24 } 
		.s8 { fill: #3b3c3d } 
		.s9 { fill: #505152 } 
		.s10 { fill: #48494a } 
		.s11 { fill: #707173 } 
		.s12 { fill: #666769 } 
		.s13 { fill: #616263 } 
		.s14 { fill: #4b4c4d } 
	</style>
	<g id="Clip-Path" clip-path="url(#cp1)">
		<g>
		</g>
	</g>
	<path class="s0" d="m923.49 647.84c0 8.52-181.7 15.43-405.85 15.43-224.15 0-405.86-6.91-405.86-15.43 0-8.51 181.71-15.42 405.86-15.42 224.15 0 405.85 6.9 405.85 15.42z"/>
	<path class="s1" d="m439.88 393.96h7.1v7.8h3.56v-7.8h7.11v7.8h3.56v-7.8h6.71v-25.03h-11.66c-0.15-6.75-0.13-14.46 0.47-18.87 1.06-7.6 11.42-9.82 11.42-9.82-0.21-2.23-0.37-4.53-0.37-6.4 0-1.98 0.92-4.92 2.11-7.87 0 0-15.84 7.47-19.97 11.3-3.59 3.32-2.11 2.28-5.17 7.81v23.85h-5.33v32.83h0.45c0 0 0-7.8 0.01-7.8z"/>
	<path class="s2" d="m553.96 410.66v-16.7h-7.4v7.8h-3.57v-7.8h-7.12v7.8h-3.55v-7.8h-7.1v7.8h-3.56v-7.8h-7.11v7.8h-3.57v-7.8h-7.1v7.8h-3.56v-7.8h-7.11v7.8h-3.56v-7.8h-7.1v7.8h-3.57v-7.8h-7.11v7.8h-3.55v-7.8h-7.11v7.8h-3.56v-7.8h-7.11v7.8h-3.56v-7.8h-7.11v7.8h-3.56v-7.8h-8.05v16.7z"/>
	<path class="s3" d="m865.5 423.77l-1.54-10.92c0 0-67.64-111.96-70.79-115.31-2.39-2.53-11.69-1.55-16.09-0.93l74.86 128.45z"/>
	<path class="s4" d="m409.77 461.79c0 0.44 0.07 2.91 0.76 5.01 0.8 2.19 1.68 3.36 3.49 3.38h154.15c1.82-0.02 2.72-1.19 3.52-3.38 0.69-2.1 0.76-4.57 0.76-5.01h0.01l-0.01-51.13h-162.13l-0.56 0.98 0.01 50.03c-0.01-0.17 0-0.04 0 0.12z"/>
	<path class="s5" d="m576.12 492.82l-0.08 12.27c2.39 0.89 4.05 2.3 4.22 4.34l0.09 1.18q9.07-0.43 18.21-0.69l0.01-0.9c0.09-8.65 28.26-8.56 28.17 0.3l-0.01 0.25q9.23 0 18.44 0.15l0.04-0.94c0.25-8.65 28.42-8 28.15 0.85l-0.03 0.9q10.27 0.39 20.41 0.93l0.02-0.38c0.45-8.63 28.59-7.38 28.13 1.47l-0.03 0.67q9.07 0.64 17.92 1.36c0.75-8.52 28.65-6.92 28.09 1.89l-0.03 0.59q4.08 0.39 8.1 0.79c2.38-1.21 6.1-1.55 9.84-1.2 3.3-7.13 28.61-3.88 27.59 4.5l-0.08 0.68c13.92 1.58 26.83 3.14 38.38 4.56 2.66 0.35 5.02 1.01 6.68 1.92 7.35 2.17 12.02 3.85 12.85 4.68q0.04 0.03 0.07 0.08 1.03 0.21 2.04 0.46l3.99-9.8 0.03-0.05-2.5-0.92-77.78-28.54z"/>
	<path class="s2" d="m377.6 417.39l-4.28 0.29-6.38 6.38 8.23-0.56z"/>
	<path class="s2" d="m404.1 421.53l-0.15 1.94 1.63-0.46 0.01 38.77h-0.01c0.01 0.68 0.04 3.46 0.97 6.32 0.84 2.77 3.13 6.25 7.46 6.25h154.16c4.35 0.01 6.65-3.48 7.5-6.25 0.92-2.86 0.94-5.64 0.97-6.32 0-0.15-0.03-0.28-0.03-0.11v-51.02h-4.17l0.01 51.13h-0.01c0.01 0.44-0.07 2.92-0.76 5.01-0.81 2.19-1.69 3.37-3.52 3.38h-154.14c-1.82-0.01-2.7-1.18-3.49-3.38-0.7-2.09-0.77-4.56-0.76-5.01 0-0.15-0.01-0.29-0.01-0.11v-50.44l-4.18 4.29-4.45 0.29-2.41 6.09z"/>
	<path class="s3" d="m697.53 295.18l2.82-1.03 19.11 3.98-57.68-12.03c0 4.47-33.86 70.09-51.25 103.49h86.99c0 0 0-94.41 0.01-94.41z"/>
	<path class="s6" d="m753.43 408.84h18.33v-103.48l-37.29-6.02 18.96 6.02z"/>
	<path class="s3" d="m753.43 305.36l-18.96-6.02v109.5h18.96z"/>
	<path class="s0" d="m719.47 298.13l-19.12-3.98-2.82 1.03v94.41h-87.01c-5.99 11.55-10.04 19.25-10.04 19.25h118.99z"/>
	<path class="s2" d="m774.58 420.63h-182.11l-2.98 58.12 166.15-1.16zm-28.04 12.31c0-3.34 2.13-2.92 2.13-2.92 0 0 11.27 0 14.31 0 3.03 0 2.15 7.09 2.15 7.09h-17.97c0 0-0.62-0.85-0.62-4.17z"/>
	<path class="s4" d="m762.98 430.02c-3.04 0-14.3 0-14.3 0 0 0-2.14-0.43-2.14 2.91 0 3.33 0.63 4.17 0.63 4.17h17.97c0 0 0.88-7.08-2.16-7.08z"/>
	<path class="s1" d="m835.2 491.16h11.12l41.26-1.36 8.81-0.28c0 0 4.58-8.84 4.58-12.44 0-3.6-12.03-5.92-12.03-5.92l3.25 6.76h-60.91z"/>
	<path class="s2" d="m861.23 462.55l22.91 2.99-2.64-7.37-16.06-1.94-9.97-27.84 15.14-1.61v-0.51l-3.14 0.35-17.45 2.02z"/>
	<path class="s7" d="m855.47 428.39l9.97 27.84 16.06 1.94 1.24 0.15 3.03 0.37-12.03-31.08v-1.16l-3.13 0.33z"/>
	<path class="s8" d="m398.72 421.9l2.42-6.09 15.34-38.63-19.8-7.86-19.08 48.07-2.43 6.11z"/>
	<path class="s8" d="m361.78 514.94l0.13-0.33 2.08-5.26 3.14 1.24 5.86-14.77-3.13-1.24 17-42.81-22.89-0.05-13.9 35-3.13-1.24-5.86 14.78 3.13 1.25-2.22 5.58 4.21 1.68 11.37 4.51z"/>
	<path class="s8" d="m335.65 568.49l-11.37-4.51-2.36-0.93-3.77 9.48h19.06l1.17-2.95z"/>
	<path class="s4" d="m386.86 451.77l-17 42.81 3.13 1.24-5.87 14.77-3.13-1.24-2.08 5.26 17.51 21.97c3.82-3.27 7.74-5.16 9.71-3.36 1.03 0.94 2.21 2.02 3.38 3.1 5.5-2.43 11.73-3.9 18.63-4.23 0-0.03 0.67-0.15 1.81-0.33l-0.49 0.05-0.16-1.35c-1.03-8.58 26.92-12.13 27.97-3.33l0.06 0.49c5.96-0.89 12.37-1.82 18.76-2.76l-0.12-1.03c-1.02-8.59 26.93-12.12 27.98-3.32l0.03 0.28c10.47-1.52 17.76-2.58 17.85-2.59q0.46-0.07 0.91-0.14l-0.09-0.85c-1.03-8.59 26.92-12.13 27.96-3.34l0.05 0.4q9.21-1.04 18.57-1.82l-0.05-0.69c-0.54-6.64 15.89-9.64 23.86-6.66l0.07-12.28 220.93 1.41 77.78 28.54 12.75-32.96-41.26 1.36h-11.12l-3.91-13.24h60.9l-9.44-19.6-1.24-0.14 2.64 7.37-22.91-2.99-11.21-33.92 17.45-2.01-1.4-2.92-0.57 0.06-13.56 1.3-74.86-128.45-4.23-7.28-115.01-26.77-10.9 22.11 0.76 1.95c0 0-0.71 0.08-1.81 0.17l-61.1 123.86h-8.17v51.01c0-0.17 0.03-0.04 0.03 0.12-0.03 0.67-0.05 3.46-0.97 6.32-0.85 2.77-3.15 6.25-7.5 6.25h-154.16c-4.33 0-6.62-3.49-7.46-6.25-0.92-2.86-0.96-5.64-0.97-6.32h0.01l-0.01-38.78-1.63 0.47 0.15-1.94-5.38 0.36-23.55 1.6-8.24 0.56-15.99 27.63 13.02 0.03zm347.62-152.43l37.28 6.02v103.48h-37.28zm-123.95 90.24h0.01c17.39-33.4 51.25-99.01 51.25-103.49l57.68 12.03v110.71h-118.98c0 0 4.04-7.7 10.04-19.25zm-18.06 31.04h182.12l-18.94 56.97-166.16 1.15zm-214.94 23.22c-3.96 0-7.18-3.22-7.18-7.18 0-3.96 3.22-7.18 7.18-7.18 3.97 0 7.18 3.22 7.18 7.18 0 3.97-3.21 7.18-7.18 7.18z"/>
	<path class="s9" d="m918.58 571.2c-2.4-0.05-5.37-0.09-7.92-0.11-1.41-5.05-3.45-9.9-6.09-14.37 1.34-1.25 2.58-2.42 3.28-3.2 4.47-4.83-13.76-24.97-18.89-20.3-1.4 1.27-3.05 2.81-4.61 4.25-3.37-1.72-7.09-3.01-11.05-3.94q-1-0.25-2.03-0.46-0.04-0.05-0.07-0.08c-0.84-0.83-5.5-2.51-12.86-4.68-1.66-0.91-4.01-1.57-6.67-1.92-11.56-1.41-24.46-2.97-38.38-4.56l0.08-0.68c1.02-8.38-24.3-11.63-27.6-4.5-3.73-0.36-7.46-0.01-9.84 1.2q-4.01-0.4-8.1-0.79l0.04-0.59c0.56-8.81-27.34-10.41-28.09-1.89q-8.86-0.72-17.92-1.36l0.03-0.67c0.46-8.85-27.68-10.1-28.13-1.47l-0.03 0.38q-10.13-0.53-20.4-0.93l0.02-0.9c0.27-8.85-27.89-9.5-28.15-0.85l-0.03 0.94q-9.21-0.15-18.44-0.15v-0.25c0.1-8.86-28.08-8.95-28.16-0.3l-0.02 0.9q-9.13 0.25-18.2 0.69l-0.09-1.18c-0.18-2.04-1.83-3.45-4.22-4.34-7.97-2.98-24.4 0.02-23.86 6.66l0.05 0.69q-9.36 0.79-18.57 1.82l-0.05-0.4c-1.04-8.79-28.99-5.25-27.96 3.34l0.09 0.85q-0.45 0.07-0.91 0.15c-0.09 0.01-7.38 1.06-17.85 2.59l-0.03-0.29c-1.05-8.8-29.01-5.26-27.98 3.33l0.12 1.02c-6.39 0.94-12.8 1.88-18.76 2.76l-0.06-0.5c-1.05-8.79-29-5.24-27.97 3.34l0.16 1.35 0.49-0.06c-1.14 0.2-1.81 0.32-1.81 0.34-6.9 0.33-13.13 1.81-18.63 4.24-1.17-1.09-2.35-2.17-3.38-3.11-1.97-1.8-5.89 0.1-9.71 3.36-1.08 0.93-2.15 1.96-3.17 3.06l18.2 8.08c0.51-0.77 1.11-1.15 1.86-0.87q0.66 0.25 1.32 0.5c6.69-4 14.92-6.42 24.69-6.42 0 0 96.4-15.64 128.78-18.79 30.35-2.95 82.34-4.05 121.92-3.67 46.37 0.45 132.89 11.92 184.12 22.46 58.4 12.01 62.83 88.89 0 92.53-32.97 1.9-201.91 2.32-269.2 2.12-67.28 0.2-132.65-0.22-165.62-2.12-2.55-0.15-4.95-0.48-7.28-0.9 1.02-0.44 1.91-1.1 2.58-1.97 1.5-0.51 2.91-0.82 4.22-1 1.31 0.18 2.71 0.49 4.21 1 1.16 1.5 2.96 2.5 5.01 2.5 3.49 0 6.31-2.84 6.31-6.33 0-3.48-2.82-6.31-6.31-6.31-2.05 0-3.85 0.99-5.01 2.5-1.5 0.51-2.9 0.8-4.21 0.99-1.31-0.19-2.72-0.48-4.22-0.99-1.15-1.51-2.95-2.5-5.01-2.5-3.49 0-6.31 2.83-6.31 6.31 0 1.52 0.55 2.9 1.44 3.98-9.32-3.04-16.51-8.37-21.64-14.97l-18.02 0.07c0.21 0.38 0.37 0.77 0.58 1.15-0.69 0.65-1.3 1.26-1.71 1.71-4.47 4.84 13.76 24.98 18.88 20.31 0.91-0.83 1.93-1.77 2.95-2.7 6.31 3.15 13.76 5.09 22.36 5.47q0.01 0.52 0.01 1.01c0.06 6.93 27.24 6.56 27.72 0 0.03-0.25 0.04-0.59 0.05-0.91q9.79-0.01 19.09-0.02c0.01 0.31 0.01 0.64 0.01 0.93 0.06 6.93 27.24 6.56 27.73 0 0.02-0.26 0.03-0.63 0.05-0.96q9.87-0.01 19.08-0.01 0.01 0.49 0.01 0.97c0.06 6.93 27.24 6.56 27.73 0 0.02-0.27 0.03-0.64 0.05-0.98h19.08q0.01 0.49 0.02 0.98c0.05 6.93 27.23 6.56 27.72 0 0.02-0.27 0.03-0.63 0.04-0.97q10.52 0.02 19.09 0.02 0.01 0.49 0.01 0.95c0.07 6.93 27.24 6.56 27.73 0 0.03-0.25 0.04-0.59 0.05-0.9q10.87 0.03 10.87 0.04-0.01-0.01 8.21-0.03c0 0.29 0.02 0.61 0.02 0.89 0.05 6.93 27.22 6.56 27.72 0 0.02-0.26 0.03-0.61 0.04-0.94q8.52-0.02 19.09-0.03 0.01 0.5 0.01 0.97c0.07 6.93 27.24 6.56 27.73 0 0.02-0.27 0.04-0.64 0.04-0.98h19.08q0.02 0.49 0.01 0.98c0.07 6.93 27.24 6.56 27.74 0 0.02-0.26 0.04-0.64 0.05-0.97q9.2 0 19.08 0.01c0.01 0.32 0.02 0.65 0.02 0.96 0.06 6.93 27.23 6.56 27.72 0 0.02-0.26 0.04-0.61 0.05-0.93 6.2 0 12.54 0.01 19.08 0.02q0.01 0.46 0.01 0.91c0.07 6.93 27.24 6.56 27.73 0 0.02-0.25 0.03-0.59 0.05-0.89 10.81-0.07 19.89-2.57 27.29-6.79 1.44 1.34 2.93 2.72 4.22 3.9 5.12 4.67 23.35-15.47 18.89-20.31-0.86-0.92-2.45-2.43-4.11-3.97 2.44-4.93 4.12-10.25 5.06-15.76 2.43 0.04 4.85 0.04 6.2-0.04 6.55-0.43 7.2-27.6 0.27-27.72zm-487.52 51.24c2.38 0 4.33 1.93 4.33 4.32 0 2.4-1.95 4.33-4.33 4.33-2.39 0-4.33-1.93-4.33-4.33 0-2.39 1.94-4.32 4.33-4.32zm-18.45 0c2.39 0 4.33 1.93 4.33 4.32 0 2.4-1.94 4.33-4.33 4.33-2.39 0-4.33-1.93-4.33-4.33 0-2.39 1.94-4.32 4.33-4.32z"/>
	<path class="s9" d="m374.91 574.22l3.65-1.94c1.21-3.98 2.92-7.79 5.14-11.3l-12.79-5.68c-3.09 4.87-5.48 10.21-7.04 15.82-1.52 0.02-3.03 0.04-4.35 0.08-2.01 0.03-3.36 2.37-4.14 5.64l14.66-0.02 4.86-2.6q0 0.01 0.01 0z"/>
	<path class="s8" d="m411.88 545.19c2.04-0.26 3.95 0.5 5.29 1.85 1.55 0.31 2.99 0.43 4.3 0.45 1.29-0.35 2.63-0.83 4.06-1.52 0.96-1.65 2.62-2.86 4.65-3.12 3.47-0.45 6.63 2 7.08 5.45 0.44 3.48-2 6.65-5.47 7.09-2.03 0.26-3.95-0.5-5.28-1.85-1.56-0.31-2.99-0.43-4.31-0.45-1.27 0.35-2.63 0.83-4.05 1.52-0.09 0.15-0.21 0.27-0.3 0.41q1.94 0.73 3.84 1.45c8.19 0 12.96 0 12.96 0h50.76c6.53 0 6.32 7.64 6.32 7.64v8.9h176.83l-1.97 3.23 0.06 30.56h4.85l-1.47-33.79h138.15v34.16h-7.85q-0.11 0.1-0.22 0.19 0.01 0.16 0.01 0.31 0 0.15-0.01 0.31c0.67 0.55 1.54 1.36 1.54 1.89 0 0.19-0.13 0.82-0.25 1.32-0.11 0.5-0.26 1.13-0.35 1.29-0.23 0.48-1.36 0.84-2.21 1.04q-0.12 0.29-0.27 0.57c0.37 0.78 0.8 1.9 0.57 2.37-0.08 0.17-0.48 0.68-0.8 1.08-0.32 0.41-0.73 0.9-0.87 1.02-0.41 0.33-1.58 0.16-2.43-0.03q-0.25 0.2-0.5 0.39c0 0.5-0.05 1.09-0.15 1.57q0.23-0.04 0.47-0.05c2.06 0 3.86 0.99 5.02 2.51 1.49 0.5 2.91 0.8 4.21 0.98 1.31-0.18 2.71-0.48 4.22-0.98 1.15-1.52 2.96-2.51 5.01-2.51 3.48 0 6.32 2.84 6.32 6.32 0 3.49-2.84 6.32-6.32 6.32-2.05 0-3.86-0.99-5.01-2.5-1.51-0.51-2.91-0.81-4.22-1-1.3 0.19-2.72 0.49-4.21 1-1.16 1.51-2.96 2.5-5.02 2.5-3.48 0-6.31-2.83-6.31-6.32 0-1.82 0.77-3.44 2-4.6-0.39-0.21-0.81-0.51-1.14-0.77q-0.29 0.09-0.61 0.15c-0.39 0.78-0.98 1.8-1.51 1.91-0.17 0.04-0.82 0.06-1.33 0.06-0.52 0-1.16-0.02-1.35-0.06-0.51-0.11-1.1-1.13-1.49-1.91q-0.31-0.06-0.61-0.15-0.15 0.11-0.31 0.22c1.62 1.15 2.68 3.02 2.68 5.15 0 3.49-2.83 6.32-6.32 6.32-2.04 0-3.85-0.99-5.01-2.5-1.5-0.51-2.9-0.81-4.21-1-1.3 0.19-2.71 0.49-4.22 1-1.16 1.51-2.95 2.5-5.01 2.5-3.49 0-6.32-2.83-6.32-6.32 0-3.48 2.83-6.32 6.32-6.32 2.06 0 3.85 0.99 5.01 2.51 1.5 0.5 2.91 0.8 4.22 0.98 1.31-0.18 2.71-0.48 4.21-0.98 0.97-1.26 2.38-2.12 4-2.39-0.11-0.49-0.16-1.11-0.17-1.64q-0.25-0.19-0.5-0.38c-0.84 0.18-2.03 0.35-2.43 0.02-0.15-0.11-0.55-0.61-0.87-1.01-0.34-0.41-0.73-0.93-0.8-1.09-0.23-0.47 0.2-1.58 0.56-2.37q-0.14-0.28-0.27-0.57c-0.83-0.2-1.98-0.56-2.21-1.03-0.08-0.17-0.23-0.8-0.34-1.3-0.11-0.5-0.25-1.14-0.25-1.32 0-0.53 0.87-1.34 1.54-1.89q-0.01-0.15-0.01-0.31 0-0.15 0.01-0.31-0.11-0.08-0.22-0.19h-37.41q-0.11 0.1-0.22 0.19 0.01 0.16 0.01 0.31 0 0.15-0.01 0.31c0.68 0.55 1.55 1.36 1.55 1.89 0 0.19-0.14 0.82-0.25 1.32-0.11 0.5-0.28 1.13-0.35 1.29-0.23 0.48-1.37 0.84-2.21 1.04q-0.13 0.29-0.27 0.57c0.36 0.78 0.8 1.9 0.56 2.37-0.07 0.17-0.47 0.68-0.79 1.08-0.33 0.41-0.74 0.9-0.88 1.02-0.41 0.33-1.58 0.16-2.43-0.03q-0.25 0.2-0.5 0.39c0 0.73-0.09 1.66-0.36 2.14 0.92 0.45 1.72 1.09 2.33 1.89 1.51 0.5 2.92 0.8 4.22 0.98 1.31-0.18 2.71-0.48 4.22-0.98 1.15-1.52 2.96-2.51 5.01-2.51 3.49 0 6.32 2.84 6.32 6.32 0 3.49-2.83 6.32-6.32 6.32-2.05 0-3.86-0.99-5.01-2.5-1.51-0.51-2.91-0.81-4.22-1-1.3 0.19-2.71 0.49-4.22 1-1.15 1.51-2.95 2.5-5.01 2.5-3.48 0-6.31-2.83-6.31-6.32 0-1.2 0.35-2.3 0.93-3.25q-0.08 0-0.15 0c-0.52 0-1.16-0.02-1.35-0.06-0.51-0.1-1.11-1.13-1.49-1.91q-0.31-0.06-0.62-0.15c-0.68 0.53-1.67 1.2-2.18 1.08-0.14-0.02-0.51-0.19-0.89-0.37 1.27 1.16 2.08 2.81 2.08 4.66 0 3.5-2.83 6.33-6.32 6.33-2.04 0-3.85-1-5-2.51-1.51-0.51-2.91-0.81-4.22-1-1.3 0.19-2.72 0.49-4.22 1-1.16 1.51-2.95 2.51-5.01 2.51-3.49 0-6.32-2.83-6.32-6.33 0-3.48 2.83-6.32 6.32-6.32 2.06 0 3.85 0.99 5.01 2.51 1.5 0.5 2.92 0.81 4.22 0.99 1.31-0.18 2.71-0.49 4.22-0.99 1.15-1.52 2.96-2.51 5-2.51q1.32 0.01 2.46 0.5c-0.21-0.51-0.27-1.35-0.28-2.02q-0.25-0.19-0.49-0.37c-0.84 0.17-2.02 0.35-2.43 0.02-0.15-0.12-0.56-0.62-0.88-1.01-0.33-0.42-0.73-0.93-0.8-1.09-0.23-0.48 0.2-1.59 0.56-2.38q-0.14-0.27-0.26-0.57c-0.84-0.19-1.98-0.55-2.21-1.03-0.08-0.17-0.24-0.8-0.35-1.29-0.1-0.51-0.25-1.14-0.25-1.32 0-0.54 0.87-1.35 1.54-1.9q0-0.16-0.01-0.31 0.01-0.15 0.01-0.3-0.1-0.09-0.22-0.19h-37.39q-0.12 0.1-0.23 0.19 0.01 0.15 0.01 0.3 0 0.15-0.01 0.31c0.67 0.55 1.54 1.36 1.54 1.9 0 0.18-0.13 0.82-0.24 1.32-0.11 0.49-0.27 1.12-0.35 1.28-0.22 0.47-1.29 0.82-2.11 1.01v1.15h-0.13c0.28 0.69 0.51 1.45 0.33 1.83-0.08 0.17-0.47 0.67-0.8 1.07-0.33 0.41-0.74 0.91-0.88 1.02-0.41 0.33-1.58 0.16-2.43-0.02q-0.24 0.2-0.51 0.38c0 0.88-0.09 2.06-0.51 2.39-0.14 0.12-0.72 0.41-1.18 0.63q-0.22 0.1-0.45 0.21c0.27 0.25 0.54 0.5 0.76 0.8 1.51 0.5 2.92 0.81 4.22 0.99 1.32-0.18 2.71-0.49 4.22-0.99 1.16-1.52 2.96-2.51 5.01-2.51 3.49 0 6.31 2.84 6.31 6.32 0 3.5-2.83 6.33-6.31 6.33-2.05 0-3.85-1-5.01-2.51-1.51-0.51-2.9-0.81-4.22-1-1.3 0.19-2.71 0.49-4.22 1-1.15 1.51-2.95 2.51-5.01 2.51-3.48 0-6.31-2.83-6.31-6.33 0-1.7 0.68-3.23 1.77-4.37q-0.26-0.43-0.47-0.84-0.31-0.07-0.61-0.16c-0.68 0.53-1.68 1.21-2.19 1.09-0.18-0.04-0.77-0.31-1.24-0.54-0.46-0.22-1.03-0.51-1.19-0.62-0.4-0.33-0.5-1.52-0.5-2.39q-0.26-0.19-0.51-0.38c-0.84 0.18-2.01 0.35-2.42 0.02-0.15-0.11-0.56-0.61-0.87-1.01-0.33-0.41-0.73-0.92-0.81-1.09-0.17-0.35 0.03-1.06 0.29-1.72l-40.29 0.16c0.23 0.62 0.39 1.24 0.23 1.56-0.08 0.17-0.48 0.68-0.8 1.08-0.32 0.41-0.73 0.91-0.88 1.02-0.41 0.33-1.58 0.16-2.43-0.03q-0.23 0.2-0.5 0.39c0 0.87-0.09 2.06-0.51 2.39-0.14 0.11-0.73 0.4-1.19 0.63-0.46 0.23-1.05 0.5-1.23 0.53-0.51 0.12-1.5-0.55-2.2-1.08q-0.29 0.08-0.61 0.15-0.07 0.13-0.14 0.27 0.64 0.5 1.13 1.13c1.5 0.51 2.92 0.81 4.22 0.99 1.31-0.18 2.71-0.48 4.22-0.99 1.15-1.51 2.95-2.5 5.01-2.5 3.49 0 6.32 2.83 6.32 6.31 0 3.5-2.83 6.33-6.32 6.33-2.06 0-3.86-1-5.01-2.5-1.51-0.51-2.91-0.82-4.22-1-1.3 0.18-2.72 0.49-4.22 1-1.15 1.51-2.95 2.5-5.01 2.5-3.48 0-6.31-2.83-6.31-6.33 0-1.68 0.67-3.19 1.74-4.32-0.24-0.08-0.71-0.3-1.12-0.5-0.46-0.22-1.03-0.51-1.19-0.62-0.41-0.33-0.5-1.52-0.51-2.39q-0.25-0.19-0.5-0.38c-0.84 0.18-2.02 0.35-2.42 0.02-0.15-0.11-0.57-0.61-0.88-1.01-0.33-0.41-0.72-0.92-0.8-1.09-0.15-0.3-0.01-0.88 0.2-1.45l-40.11 0.15c0.18 0.52 0.28 1.02 0.14 1.3-0.08 0.17-0.48 0.68-0.8 1.07-0.32 0.41-0.74 0.91-0.87 1.03-0.41 0.33-1.58 0.15-2.44-0.03q-0.23 0.2-0.5 0.39c0 0.87-0.09 2.06-0.51 2.39-0.14 0.11-0.72 0.4-1.19 0.62-0.46 0.23-1.05 0.51-1.22 0.54-0.52 0.12-1.51-0.55-2.2-1.09q-0.3 0.09-0.62 0.16c-0.31 0.63-0.75 1.39-1.19 1.73q1.6 0.45 3.04 0.66c1.31-0.18 2.72-0.49 4.21-0.99 1.16-1.52 2.97-2.51 5.02-2.51 3.49 0 6.32 2.84 6.32 6.32 0 3.5-2.83 6.33-6.32 6.33-2.05 0-3.86-1-5.02-2.51-1.49-0.51-2.9-0.81-4.21-1-1.3 0.19-2.71 0.49-4.21 1-1.16 1.51-2.96 2.51-5.02 2.51-3.48 0-6.31-2.83-6.31-6.33 0-2.25 1.2-4.22 2.98-5.34-0.05-0.03-0.15-0.09-0.18-0.11-0.42-0.33-0.51-1.51-0.52-2.39q-0.25-0.19-0.5-0.37c-0.83 0.17-2.01 0.35-2.42 0.02-0.15-0.12-0.56-0.62-0.88-1.01-0.32-0.42-0.73-0.93-0.8-1.09-0.13-0.26-0.05-0.71 0.1-1.19l-17.03 0.06c-0.6 2.17-2.09 4.74-5.88 4.74h-50.76c0 0-8.5 0-22.22 0h-17.15c-3.57 0-5.09-2.26-5.77-4.32l-3.41 0.01c5.14 6.6 12.32 11.93 21.64 14.98-0.89-1.09-1.44-2.47-1.44-3.99 0-3.48 2.83-6.31 6.32-6.31 2.05 0 3.85 0.99 5.01 2.5 1.5 0.51 2.9 0.81 4.21 0.99 1.31-0.18 2.71-0.48 4.21-0.99 1.16-1.51 2.96-2.5 5.01-2.5 3.49 0 6.32 2.83 6.32 6.31 0 3.5-2.83 6.33-6.32 6.33-2.05 0-3.85-1-5.01-2.5-1.5-0.51-2.9-0.82-4.21-1-1.31 0.18-2.71 0.49-4.21 1-0.68 0.87-1.57 1.53-2.59 1.97 2.33 0.42 4.73 0.76 7.28 0.9 32.97 1.9 98.34 2.32 165.62 2.12 67.29 0.2 236.23-0.22 269.2-2.12 62.83-3.64 58.4-80.51 0-92.53-51.24-10.53-137.75-22.01-184.12-22.46-39.58-0.38-91.57 0.72-121.92 3.68-32.38 3.15-128.78 18.78-128.78 18.78-9.77 0-17.99 2.42-24.69 6.42q4.32 1.65 8.81 3.35c0.32-2.8 2.5-5.13 5.42-5.51zm53.93 87.9c-2.05 0-3.85-1-5.01-2.51-1.51-0.51-2.91-0.81-4.21-1-1.31 0.19-2.72 0.49-4.22 1-1.15 1.51-2.95 2.51-5.01 2.51-3.49 0-6.32-2.83-6.32-6.33 0-3.48 2.83-6.32 6.32-6.32 2.06 0 3.85 0.99 5.01 2.51 1.5 0.5 2.91 0.81 4.22 0.99 1.31-0.18 2.71-0.49 4.21-0.99 1.16-1.52 2.96-2.51 5.01-2.51 3.49 0 6.32 2.84 6.32 6.32 0 3.5-2.83 6.33-6.32 6.33zm34.75 0c-2.05 0-3.85-1-5.01-2.51-1.5-0.51-2.91-0.81-4.22-1-1.3 0.19-2.71 0.49-4.21 1-1.16 1.51-2.95 2.51-5.01 2.51-3.49 0-6.32-2.83-6.32-6.33 0-3.48 2.83-6.32 6.32-6.32 2.06 0 3.85 0.99 5.01 2.51 1.5 0.5 2.91 0.81 4.21 0.99 1.32-0.18 2.72-0.49 4.22-0.99 1.16-1.52 2.96-2.51 5.01-2.51 3.49 0 6.32 2.84 6.32 6.32 0 3.5-2.83 6.33-6.32 6.33zm69.5 0c-2.05 0-3.85-1-5.01-2.51-1.5-0.51-2.9-0.81-4.22-1-1.3 0.19-2.71 0.49-4.21 1-1.15 1.51-2.95 2.51-5.01 2.51-3.49 0-6.32-2.83-6.32-6.33 0-3.48 2.83-6.32 6.32-6.32 2.06 0 3.85 0.99 5.01 2.51 1.5 0.5 2.91 0.81 4.21 0.99 1.32-0.18 2.72-0.49 4.22-0.99 1.16-1.52 2.96-2.51 5.01-2.51 3.49 0 6.32 2.84 6.32 6.32 0 3.5-2.83 6.33-6.32 6.33zm69.5 0c-2.05 0-3.85-1-5.01-2.51-1.51-0.51-2.9-0.81-4.22-1-1.3 0.19-2.71 0.49-4.22 1-1.15 1.51-2.95 2.51-5.01 2.51-3.48 0-6.31-2.83-6.31-6.33 0-3.48 2.82-6.32 6.31-6.32 2.06 0 3.86 0.99 5.01 2.51 1.51 0.5 2.92 0.81 4.22 0.99 1.31-0.18 2.71-0.49 4.22-0.99 1.16-1.52 2.96-2.51 5.01-2.51 3.49 0 6.32 2.84 6.32 6.32-0.01 3.5-2.84 6.33-6.32 6.33zm184.07-82.77c0.71-3.4 4.07-5.59 7.48-4.87 2.01 0.42 3.57 1.77 4.38 3.49 1.37 0.8 2.69 1.38 3.93 1.83 1.32 0.09 2.75 0.09 4.33-0.09 1.44-1.25 3.41-1.85 5.42-1.42 3.41 0.72 5.6 4.08 4.88 7.48-0.48 2.29-2.15 4-4.21 4.68q0.71 0.48 1.33 0.96c0.42-0.1 0.84-0.23 1.26-0.32 0.35-0.67 0.77-1.45 1.22-2.13 0.62-0.94 1.28-1.72 1.9-1.86q0.11-0.02 0.29-0.03c0.55-0.06 1.62-0.07 2.52-0.07 1.07 0 2.43 0.02 2.8 0.1 1.07 0.25 2.31 2.38 3.12 3.99 0.43 0.09 0.85 0.22 1.27 0.33 1.43-1.11 3.5-2.52 4.57-2.27 0.38 0.08 1.6 0.66 2.57 1.12 0.96 0.47 2.18 1.07 2.48 1.31 0.87 0.69 1.06 3.17 1.08 4.99q0.52 0.39 1.03 0.79c1.77-0.38 4.21-0.74 5.07-0.06 0.31 0.24 1.16 1.29 1.83 2.13 0.67 0.84 1.5 1.91 1.67 2.26 0.48 0.99-0.43 3.31-1.19 4.95q0.3 0.58 0.57 1.18c1.76 0.41 4.12 1.16 4.6 2.16 0.17 0.33 0.49 1.65 0.72 2.7 0.25 1.05 0.54 2.37 0.53 2.75 0 1.11-1.81 2.81-3.22 3.95q0.03 0.33 0.04 0.66-0.01 0.31-0.04 0.64c1.41 1.15 3.23 2.84 3.23 3.95 0 0.38-0.29 1.71-0.53 2.75-0.24 1.05-0.56 2.37-0.73 2.7-0.48 1-2.84 1.74-4.6 2.17q-0.27 0.59-0.57 1.17c0.77 1.64 1.67 3.96 1.19 4.95-0.17 0.35-1 1.42-1.67 2.25-0.67 0.85-1.53 1.89-1.83 2.13-0.86 0.69-3.29 0.33-5.07-0.05q-0.5 0.41-1.03 0.79c-0.02 1.82-0.21 4.3-1.08 4.99-0.3 0.25-1.51 0.84-2.48 1.32-0.97 0.46-2.19 1.03-2.57 1.11-1.07 0.24-3.14-1.15-4.57-2.27-0.43 0.11-0.84 0.24-1.27 0.33-0.81 1.61-2.05 3.75-3.12 3.99-0.37 0.09-1.73 0.11-2.8 0.1-1.07 0-2.43-0.01-2.8-0.1-1.06-0.24-2.31-2.37-3.12-3.99-0.42-0.08-0.85-0.22-1.27-0.32q-0.68 0.53-1.49 1.06c2.71 0.72 4.7 3.16 4.7 6.08 0 3.5-2.83 6.33-6.31 6.33-2.06 0-3.86-1-5.01-2.51-1.51-0.51-2.91-0.81-4.22-1-1.3 0.19-2.72 0.49-4.22 1-1.15 1.51-2.95 2.51-5 2.51-3.5 0-6.32-2.83-6.32-6.33 0-3.48 2.82-6.32 6.32-6.32 2.05 0 3.85 0.99 5 2.51 1.5 0.5 2.92 0.8 4.22 0.99 1.31-0.19 2.71-0.49 4.22-0.99 0.53-0.7 1.22-1.28 1.99-1.71q-0.53-0.24-1.02-0.47c-0.97-0.47-2.18-1.07-2.48-1.32-0.86-0.68-1.06-3.17-1.08-4.98q-0.52-0.4-1.04-0.8c-1.77 0.38-4.21 0.74-5.08 0.05-0.3-0.23-1.15-1.28-1.81-2.12-0.68-0.84-1.51-1.91-1.68-2.26-0.47-0.99 0.42-3.31 1.2-4.94q-0.3-0.59-0.58-1.19c-1.75-0.42-4.12-1.15-4.61-2.15-0.16-0.34-0.48-1.66-0.72-2.71-0.24-1.04-0.52-2.37-0.52-2.75 0-1.11 1.82-2.8 3.22-3.95q-0.02-0.32-0.03-0.65 0.01-0.32 0.03-0.65c-1.41-1.14-3.22-2.84-3.23-3.95 0-0.38 0.29-1.7 0.53-2.75 0.25-1.05 0.56-2.37 0.72-2.7 0.48-1 2.86-1.75 4.61-2.16q0.28-0.6 0.57-1.18c-0.77-1.63-1.66-3.96-1.19-4.95 0.17-0.35 1-1.42 1.67-2.26 0.67-0.83 1.52-1.88 1.82-2.13 0.86-0.68 3.31-0.32 5.08 0.06 0.33-0.28 0.69-0.53 1.03-0.8 0.03-1.81 0.22-4.29 1.08-4.98 0.3-0.25 1.52-0.84 2.48-1.31q0.35-0.16 0.72-0.34c-1.12-0.65-2.03-1.61-2.58-2.75-1.36-0.82-2.67-1.4-3.92-1.85-1.31-0.09-2.75-0.09-4.33 0.11-1.44 1.24-3.4 1.83-5.42 1.41-3.4-0.72-5.59-4.08-4.86-7.5zm-34.8-6.28c0.67-3.41 3.99-5.65 7.4-4.98 2.03 0.4 3.6 1.71 4.45 3.42 1.37 0.78 2.7 1.35 3.94 1.78 1.32 0.07 2.76 0.04 4.33-0.17 1.42-1.26 3.38-1.88 5.4-1.49 3.43 0.67 5.66 3.99 4.98 7.41-0.66 3.44-3.99 5.67-7.41 5-2.01-0.4-3.59-1.71-4.44-3.42-1.38-0.79-2.69-1.36-3.94-1.79-1.32-0.07-2.76-0.04-4.33 0.17-1.42 1.26-3.38 1.89-5.4 1.49-3.42-0.66-5.65-3.98-4.98-7.42zm-34.93-5.34c0.4-3.45 3.55-5.93 7.01-5.53 2.03 0.25 3.71 1.43 4.68 3.08 1.44 0.67 2.8 1.14 4.07 1.47 1.32-0.02 2.76-0.16 4.3-0.49 1.34-1.37 3.23-2.13 5.27-1.9 3.47 0.41 5.95 3.55 5.54 7.01-0.41 3.47-3.55 5.96-7.02 5.55-2.03-0.24-3.7-1.44-4.68-3.07-1.43-0.68-2.79-1.14-4.08-1.48-1.31 0.02-2.75 0.16-4.3 0.49-1.32 1.37-3.22 2.14-5.26 1.9-3.47-0.4-5.95-3.55-5.53-7.03zm-36.69 1.77c0.51 0.12 1.11 1.14 1.49 1.92q0.32 0.07 0.62 0.15c0.68-0.52 1.68-1.21 2.19-1.09q0.03 0.02 0.06 0.03c-1.66-1.28-2.67-3.34-2.47-5.58 0.31-3.47 3.38-6.05 6.85-5.73 2.05 0.17 3.76 1.32 4.77 2.93 1.45 0.64 2.83 1.06 4.11 1.36 1.32-0.06 2.74-0.24 4.29-0.61 1.29-1.4 3.17-2.23 5.21-2.04 3.48 0.3 6.05 3.38 5.74 6.85-0.31 3.48-3.38 6.05-6.86 5.74-2.05-0.18-3.75-1.33-4.77-2.94-1.45-0.64-2.83-1.06-4.12-1.37-1.31 0.07-2.74 0.25-4.28 0.62-1.28 1.41-3.16 2.24-5.21 2.06q-0.5-0.06-0.98-0.19c0.02 0.01 0.07 0.03 0.08 0.04 0.41 0.34 0.51 1.53 0.52 2.4q0.25 0.18 0.49 0.38c0.85-0.18 2.02-0.35 2.43-0.03 0.16 0.12 0.56 0.61 0.88 1.02 0.32 0.41 0.72 0.92 0.8 1.08 0.23 0.48-0.2 1.59-0.56 2.38q0.14 0.28 0.26 0.57c0.85 0.19 1.98 0.55 2.21 1.03 0.08 0.16 0.24 0.8 0.34 1.3 0.12 0.49 0.26 1.14 0.26 1.32 0 0.52-0.88 1.34-1.54 1.89q0 0.16 0.01 0.31-0.01 0.15-0.01 0.31c0.66 0.55 1.54 1.37 1.54 1.9 0 0.18-0.14 0.81-0.25 1.31-0.11 0.51-0.27 1.14-0.35 1.3-0.23 0.48-1.37 0.83-2.21 1.03q-0.13 0.3-0.26 0.57c0.36 0.79 0.79 1.9 0.56 2.38-0.08 0.16-0.48 0.67-0.8 1.07-0.32 0.41-0.73 0.91-0.88 1.02-0.41 0.33-1.57 0.16-2.43-0.02q-0.24 0.2-0.49 0.38c-0.01 0.87-0.11 2.06-0.52 2.39-0.14 0.12-0.73 0.41-1.19 0.63-0.46 0.22-1.05 0.49-1.23 0.53-0.5 0.13-1.5-0.55-2.19-1.08-0.21 0.05-0.4 0.11-0.62 0.15-0.38 0.78-0.98 1.8-1.49 1.91-0.18 0.05-0.84 0.06-1.34 0.05-0.51 0-1.16 0-1.34-0.05-0.51-0.11-1.11-1.13-1.5-1.91q-0.3-0.07-0.61-0.15c-0.69 0.53-1.68 1.21-2.19 1.09-0.18-0.05-0.77-0.32-1.24-0.54-0.45-0.22-1.03-0.51-1.19-0.63-0.4-0.33-0.5-1.53-0.5-2.39q-0.27-0.19-0.51-0.38c-0.84 0.18-2.01 0.35-2.42 0.02-0.16-0.11-0.56-0.61-0.88-1.01-0.32-0.41-0.72-0.93-0.8-1.08-0.23-0.48 0.2-1.59 0.57-2.38q-0.14-0.27-0.27-0.57c-0.84-0.2-1.98-0.55-2.21-1.03-0.08-0.16-0.23-0.79-0.34-1.3-0.11-0.5-0.25-1.13-0.25-1.31 0-0.53 0.87-1.35 1.54-1.9q-0.01-0.16-0.01-0.31 0-0.15 0.01-0.31c-0.67-0.55-1.54-1.37-1.54-1.89 0-0.18 0.14-0.82 0.25-1.32 0.11-0.5 0.26-1.14 0.34-1.3 0.23-0.48 1.37-0.84 2.21-1.03q0.13-0.29 0.27-0.57c-0.37-0.79-0.8-1.9-0.57-2.38 0.08-0.17 0.48-0.67 0.8-1.08 0.32-0.4 0.72-0.91 0.88-1.02 0.41-0.32 1.58-0.16 2.43 0.03q0.23-0.2 0.5-0.38c0-0.87 0.1-2.07 0.5-2.4 0.16-0.11 0.73-0.4 1.19-0.62 0.47-0.23 1.06-0.51 1.24-0.55 0.51-0.12 1.5 0.57 2.19 1.09q0.31-0.07 0.61-0.15 0.25-0.51 0.57-1.03c0.31-0.44 0.63-0.82 0.93-0.89q0.05 0.01 0.13-0.01c0.26-0.02 0.78-0.02 1.21-0.02 0.51-0.01 1.17-0.01 1.34 0.03zm-32.83-8.17c0.39-3.46 3.51-5.95 6.97-5.58 2.05 0.23 3.72 1.42 4.71 3.05 1.43 0.67 2.8 1.12 4.08 1.45 1.32-0.04 2.75-0.18 4.3-0.52 1.32-1.38 3.22-2.17 5.25-1.93 3.47 0.37 5.97 3.5 5.59 6.97-0.39 3.48-3.52 5.98-6.98 5.59-2.04-0.23-3.72-1.42-4.71-3.04-1.44-0.68-2.79-1.13-4.08-1.46-1.31 0.04-2.75 0.19-4.3 0.53-1.31 1.38-3.2 2.17-5.25 1.94-3.46-0.39-5.97-3.51-5.58-7zm-28.11-8.4c2.05 0.12 3.78 1.22 4.84 2.8 1.47 0.6 2.86 0.99 4.15 1.25 1.32-0.11 2.73-0.31 4.27-0.73 1.25-1.44 3.11-2.31 5.15-2.18 3.49 0.22 6.14 3.22 5.92 6.69-0.21 3.49-3.22 6.14-6.7 5.92-2.05-0.12-3.79-1.23-4.85-2.8-1.47-0.61-2.85-0.99-4.14-1.26-1.32 0.1-2.74 0.32-4.27 0.74-1.25 1.43-3.1 2.31-5.16 2.19-3.48-0.22-6.13-3.22-5.91-6.71 0.22-3.48 3.22-6.13 6.7-5.91zm-8.95 17.13q0.32 0.07 0.62 0.15c0.68-0.53 1.68-1.21 2.19-1.09 0.18 0.04 0.77 0.31 1.23 0.54 0.46 0.22 1.05 0.51 1.19 0.63 0.41 0.32 0.51 1.52 0.51 2.39q0.26 0.18 0.5 0.38c0.85-0.19 2.02-0.35 2.43-0.03 0.16 0.12 0.56 0.61 0.88 1.02 0.32 0.4 0.72 0.92 0.8 1.08 0.24 0.48-0.2 1.59-0.57 2.37q0.15 0.29 0.27 0.58c0.85 0.19 1.98 0.55 2.21 1.02 0.08 0.17 0.24 0.8 0.35 1.3 0.12 0.5 0.25 1.15 0.25 1.32 0 0.52-0.87 1.35-1.54 1.9q0.01 0.15 0.01 0.3 0 0.16-0.01 0.31c0.67 0.55 1.54 1.37 1.54 1.9 0 0.18-0.13 0.82-0.24 1.31-0.12 0.5-0.28 1.14-0.36 1.3-0.23 0.49-1.36 0.84-2.21 1.03q-0.11 0.3-0.27 0.57c0.37 0.79 0.81 1.9 0.57 2.38-0.08 0.17-0.48 0.67-0.8 1.08-0.32 0.4-0.73 0.91-0.88 1.02-0.41 0.33-1.57 0.16-2.43-0.02q-0.24 0.19-0.5 0.38c0 0.87-0.1 2.06-0.51 2.39-0.14 0.11-0.73 0.4-1.19 0.62-0.46 0.23-1.05 0.5-1.23 0.54-0.51 0.12-1.5-0.55-2.19-1.09q-0.3 0.09-0.62 0.16c-0.38 0.78-0.98 1.8-1.49 1.91-0.18 0.05-0.84 0.05-1.34 0.05-0.52 0-1.16 0-1.35-0.05-0.52-0.11-1.11-1.13-1.49-1.91q-0.31-0.07-0.61-0.16c-0.69 0.54-1.69 1.21-2.2 1.1-0.18-0.05-0.76-0.32-1.23-0.55-0.46-0.22-1.04-0.51-1.19-0.62-0.41-0.34-0.5-1.52-0.51-2.39q-0.26-0.19-0.5-0.38c-0.84 0.18-2.01 0.35-2.43 0.02-0.15-0.11-0.55-0.61-0.87-1.01-0.33-0.41-0.72-0.93-0.8-1.09-0.24-0.48 0.2-1.58 0.56-2.37q-0.13-0.28-0.27-0.57c-0.83-0.2-1.98-0.55-2.21-1.04-0.08-0.16-0.23-0.8-0.34-1.29-0.11-0.5-0.25-1.13-0.25-1.32 0-0.53 0.87-1.34 1.54-1.89q-0.01-0.16-0.01-0.32 0-0.15 0.01-0.3c-0.67-0.55-1.54-1.37-1.54-1.9 0-0.17 0.13-0.81 0.25-1.32 0.11-0.5 0.26-1.13 0.34-1.29 0.23-0.48 1.38-0.84 2.21-1.03q0.14-0.29 0.27-0.57c-0.36-0.79-0.8-1.9-0.56-2.38 0.08-0.17 0.47-0.67 0.8-1.07 0.32-0.41 0.72-0.91 0.87-1.03 0.42-0.32 1.59-0.16 2.44 0.03q0.23-0.2 0.5-0.38c0-0.87 0.1-2.06 0.51-2.39 0.14-0.12 0.72-0.41 1.18-0.63 0.47-0.23 1.06-0.49 1.23-0.54 0.52-0.12 1.52 0.56 2.2 1.09q0.3-0.08 0.62-0.15 0.24-0.52 0.56-1.04c0.31-0.44 0.63-0.81 0.93-0.88q0.04-0.01 0.13-0.01c0.26-0.04 0.78-0.04 1.21-0.04 0.5 0 1.16 0.01 1.34 0.05 0.51 0.12 1.11 1.13 1.49 1.92zm-26.22-16.58c2.06 0 3.86 0.99 5.01 2.51 1.51 0.5 2.92 0.8 4.22 0.99 1.31-0.19 2.71-0.49 4.22-0.99 1.16-1.52 2.96-2.51 5.01-2.51 3.49 0 6.32 2.84 6.32 6.32 0 3.5-2.83 6.32-6.32 6.32-2.05 0-3.85-0.99-5.01-2.5-1.51-0.5-2.9-0.81-4.22-0.99-1.3 0.19-2.71 0.49-4.22 0.99-1.15 1.51-2.95 2.5-5.01 2.5-3.48 0-6.31-2.82-6.31-6.32 0-3.48 2.83-6.32 6.31-6.32zm-35.2 0.73c2.05-0.16 3.93 0.68 5.19 2.11 1.55 0.39 2.97 0.58 4.28 0.67 1.29-0.28 2.67-0.69 4.12-1.31 1.05-1.6 2.77-2.72 4.81-2.87 3.48-0.26 6.52 2.33 6.78 5.81 0.27 3.49-2.34 6.53-5.82 6.8-2.05 0.15-3.92-0.71-5.19-2.12-1.53-0.4-2.96-0.6-4.27-0.68-1.29 0.28-2.68 0.69-4.13 1.32-1.04 1.6-2.76 2.71-4.81 2.87-3.47 0.26-6.51-2.35-6.77-5.84-0.27-3.47 2.34-6.5 5.81-6.76zm-34.78 3.29c2.06-0.16 3.93 0.67 5.2 2.09 1.54 0.38 2.97 0.57 4.28 0.65 1.29-0.29 2.67-0.7 4.12-1.33 1.04-1.6 2.75-2.73 4.79-2.9 3.48-0.28 6.53 2.31 6.81 5.79 0.28 3.49-2.31 6.53-5.79 6.82-2.04 0.17-3.92-0.69-5.19-2.1-1.55-0.38-2.97-0.57-4.28-0.65-1.29 0.29-2.67 0.7-4.13 1.34-1.02 1.6-2.74 2.73-4.79 2.9-3.47 0.27-6.52-2.31-6.8-5.81-0.28-3.47 2.32-6.52 5.78-6.8zm-8.13 24.14c0.12-0.49 0.27-1.13 0.34-1.28 0.24-0.49 1.38-0.85 2.22-1.04q0.13-0.29 0.27-0.58c-0.37-0.77-0.8-1.89-0.57-2.37 0.08-0.16 0.48-0.67 0.8-1.08 0.32-0.4 0.73-0.91 0.88-1.02 0.41-0.32 1.58-0.16 2.43 0.03q0.24-0.2 0.49-0.38c0.01-0.87 0.11-2.06 0.51-2.4 0.16-0.11 0.73-0.4 1.19-0.62 0.48-0.23 1.06-0.51 1.24-0.55 0.51-0.12 1.51 0.57 2.19 1.1q0.31-0.09 0.61-0.16c0.17-0.33 0.36-0.7 0.58-1.03 0.3-0.44 0.62-0.82 0.92-0.88q0.05-0.01 0.13-0.02c0.26-0.02 0.79-0.02 1.21-0.02 0.51 0 1.17 0 1.35 0.04 0.51 0.11 1.11 1.13 1.49 1.91q0.32 0.07 0.62 0.16c0.68-0.53 1.68-1.22 2.19-1.1 0.18 0.04 0.76 0.32 1.23 0.55 0.46 0.22 1.04 0.5 1.18 0.62 0.42 0.34 0.51 1.53 0.52 2.4q0.25 0.18 0.5 0.38c0.85-0.19 2.02-0.35 2.43-0.03 0.15 0.11 0.55 0.61 0.88 1.02 0.32 0.41 0.71 0.92 0.79 1.08 0.23 0.48-0.19 1.59-0.56 2.37q0.15 0.29 0.26 0.58c0.85 0.19 1.99 0.55 2.22 1.04 0.07 0.15 0.23 0.79 0.33 1.28 0.12 0.51 0.26 1.15 0.26 1.32 0 0.53-0.88 1.35-1.54 1.91q0.01 0.14 0.01 0.3 0 0.16-0.01 0.31c0.66 0.54 1.54 1.36 1.54 1.9 0 0.17-0.14 0.81-0.25 1.31-0.11 0.5-0.27 1.13-0.34 1.29-0.23 0.49-1.37 0.85-2.22 1.04q-0.11 0.29-0.26 0.57c0.36 0.79 0.79 1.9 0.56 2.38-0.08 0.16-0.47 0.67-0.79 1.07-0.33 0.41-0.74 0.91-0.88 1.03-0.41 0.32-1.58 0.16-2.43-0.02q-0.25 0.19-0.5 0.38c0 0.87-0.1 2.06-0.52 2.39-0.14 0.11-0.72 0.4-1.18 0.62-0.47 0.23-1.05 0.5-1.23 0.54-0.52 0.12-1.51-0.56-2.19-1.09q-0.3 0.09-0.62 0.16c-0.38 0.77-0.98 1.8-1.49 1.91-0.18 0.04-0.84 0.05-1.35 0.04-0.51 0-1.16 0-1.34-0.04-0.51-0.11-1.11-1.13-1.49-1.91q-0.31-0.07-0.62-0.16c-0.68 0.53-1.67 1.21-2.19 1.09-0.18-0.04-0.76-0.31-1.23-0.54-0.47-0.22-1.04-0.51-1.19-0.62-0.41-0.34-0.51-1.52-0.51-2.39q-0.26-0.19-0.5-0.38c-0.84 0.18-2.02 0.34-2.43 0.02-0.15-0.11-0.56-0.61-0.87-1.01-0.33-0.42-0.73-0.93-0.8-1.09-0.23-0.48 0.19-1.58 0.56-2.37q-0.14-0.28-0.27-0.58c-0.84-0.19-1.98-0.55-2.21-1.03-0.08-0.17-0.23-0.79-0.34-1.3-0.11-0.49-0.25-1.13-0.25-1.31 0-0.53 0.87-1.35 1.54-1.9q0-0.15-0.01-0.31 0.01-0.15 0.01-0.3c-0.67-0.56-1.54-1.38-1.54-1.9-0.01-0.18 0.13-0.82 0.24-1.33zm-26.83-20.49c2.04-0.25 3.94 0.52 5.27 1.89 1.55 0.31 2.99 0.44 4.3 0.46 1.29-0.35 2.64-0.81 4.07-1.5 0.97-1.64 2.63-2.84 4.67-3.09 3.46-0.42 6.62 2.04 7.04 5.51 0.43 3.47-2.04 6.63-5.5 7.05-2.05 0.25-3.95-0.52-5.29-1.88-1.55-0.32-2.98-0.45-4.3-0.48-1.27 0.35-2.63 0.82-4.07 1.51-0.95 1.64-2.62 2.84-4.66 3.09-3.47 0.42-6.62-2.04-7.04-5.51-0.42-3.47 2.05-6.62 5.51-7.05zm-34.87 3.48c2.04-0.29 3.96 0.43 5.32 1.76 1.57 0.29 3 0.38 4.32 0.37 1.27-0.36 2.61-0.87 4.03-1.58 0.93-1.67 2.57-2.9 4.59-3.2 3.46-0.5 6.67 1.89 7.17 5.34 0.5 3.46-1.89 6.67-5.35 7.17-2.03 0.3-3.95-0.43-5.31-1.75-1.57-0.3-3-0.39-4.32-0.38-1.27 0.37-2.62 0.87-4.03 1.6-0.93 1.66-2.56 2.9-4.6 3.19-3.44 0.5-6.65-1.89-7.16-5.35-0.5-3.46 1.89-6.67 5.34-7.17zm-34.63 6.28c2.04-0.25 3.95 0.51 5.28 1.88 1.55 0.31 2.98 0.44 4.3 0.47 1.28-0.34 2.63-0.81 4.07-1.49 0.97-1.65 2.63-2.85 4.67-3.09 3.46-0.42 6.61 2.04 7.04 5.5 0.42 3.47-2.05 6.63-5.51 7.05-2.03 0.25-3.94-0.52-5.28-1.88-1.55-0.32-2.98-0.45-4.3-0.47-1.27 0.33-2.63 0.81-4.06 1.49-0.97 1.64-2.63 2.85-4.68 3.09-3.45 0.43-6.61-2.04-7.03-5.51-0.43-3.47 2.04-6.62 5.5-7.04z"/>
	<path class="s10" d="m644.49 539.06c-0.43 0-0.94 0-1.21 0.04q-0.08 0-0.13 0.01c-0.3 0.07-0.62 0.44-0.92 0.88q-0.32 0.53-0.57 1.04-0.32 0.07-0.61 0.15c-0.69-0.53-1.69-1.21-2.2-1.09-0.18 0.04-0.76 0.31-1.24 0.54-0.46 0.22-1.03 0.51-1.18 0.63-0.41 0.32-0.5 1.52-0.51 2.39q-0.26 0.18-0.49 0.38c-0.85-0.19-2.03-0.35-2.44-0.03-0.16 0.12-0.56 0.62-0.88 1.03-0.32 0.4-0.72 0.9-0.8 1.07-0.23 0.48 0.2 1.59 0.56 2.38q-0.13 0.28-0.26 0.57c-0.84 0.19-1.99 0.55-2.22 1.03-0.08 0.16-0.23 0.8-0.34 1.3-0.11 0.5-0.25 1.14-0.25 1.31 0 0.53 0.88 1.35 1.54 1.9q-0.01 0.15-0.01 0.3 0 0.16 0.01 0.32c-0.66 0.55-1.54 1.36-1.54 1.89 0 0.19 0.14 0.82 0.25 1.32 0.11 0.49 0.26 1.13 0.34 1.29 0.23 0.49 1.38 0.84 2.22 1.04q0.13 0.29 0.26 0.57c-0.36 0.79-0.79 1.89-0.56 2.37 0.08 0.16 0.47 0.68 0.8 1.09 0.32 0.4 0.73 0.9 0.88 1.01 0.41 0.33 1.59 0.16 2.43-0.02q0.23 0.19 0.5 0.38c0 0.87 0.1 2.06 0.51 2.39 0.14 0.11 0.72 0.4 1.18 0.62 0.47 0.23 1.06 0.5 1.24 0.55 0.51 0.11 1.51-0.56 2.19-1.1q0.3 0.09 0.62 0.16c0.38 0.78 0.98 1.8 1.49 1.91 0.18 0.05 0.82 0.05 1.34 0.05 0.5 0.01 1.17 0 1.34-0.05 0.52-0.11 1.12-1.14 1.49-1.91q0.32-0.07 0.62-0.16c0.69 0.54 1.68 1.21 2.2 1.09 0.17-0.04 0.76-0.31 1.22-0.54 0.46-0.22 1.05-0.51 1.19-0.62 0.42-0.34 0.51-1.52 0.52-2.39q0.26-0.19 0.5-0.38c0.85 0.18 2.02 0.35 2.43 0.02 0.14-0.11 0.56-0.62 0.88-1.02 0.32-0.41 0.71-0.91 0.8-1.08 0.23-0.48-0.21-1.59-0.57-2.38q0.14-0.27 0.26-0.57c0.85-0.19 1.99-0.54 2.22-1.03 0.07-0.16 0.23-0.8 0.35-1.3 0.11-0.49 0.24-1.13 0.24-1.31 0-0.53-0.87-1.35-1.53-1.9q0-0.16 0-0.31 0-0.15 0-0.3c0.66-0.56 1.53-1.38 1.53-1.9 0-0.18-0.13-0.82-0.25-1.31-0.11-0.51-0.27-1.14-0.34-1.31-0.23-0.48-1.37-0.83-2.22-1.02q-0.12-0.29-0.26-0.58c0.36-0.78 0.8-1.89 0.57-2.37-0.09-0.16-0.48-0.68-0.81-1.08-0.31-0.41-0.72-0.9-0.87-1.02-0.41-0.32-1.58-0.16-2.43 0.03q-0.24-0.2-0.5-0.38c-0.01-0.87-0.1-2.06-0.52-2.39-0.14-0.12-0.73-0.41-1.19-0.63-0.46-0.23-1.05-0.49-1.22-0.54-0.52-0.12-1.52 0.56-2.2 1.09q-0.29-0.08-0.62-0.15c-0.37-0.79-0.97-1.8-1.49-1.92-0.17-0.04-0.84-0.05-1.34-0.05zm8.09 15.78c0 4.08-3.3 7.38-7.37 7.38-4.09 0-7.39-3.31-7.39-7.38 0-4.07 3.3-7.38 7.39-7.38 4.07 0 7.37 3.31 7.37 7.38z"/>
	<path class="s11" d="m637.82 554.84c0 4.08 3.3 7.38 7.39 7.38 4.07 0 7.37-3.31 7.37-7.38 0-4.07-3.3-7.38-7.37-7.38-4.09 0-7.39 3.31-7.39 7.38z"/>
	<path class="s10" d="m714.53 540.47c-0.3 0.07-0.62 0.45-0.92 0.89-0.22 0.33-0.42 0.7-0.57 1.03q-0.31 0.07-0.62 0.15c-0.68-0.53-1.68-1.21-2.19-1.09-0.18 0.04-0.77 0.32-1.23 0.54-0.46 0.22-1.04 0.52-1.19 0.62-0.41 0.34-0.51 1.53-0.51 2.41q-0.26 0.18-0.5 0.37c-0.85-0.18-2.02-0.35-2.43-0.03-0.15 0.12-0.56 0.62-0.87 1.03-0.33 0.4-0.73 0.91-0.81 1.08-0.22 0.48 0.21 1.59 0.58 2.37q-0.15 0.28-0.28 0.57c-0.83 0.2-1.98 0.56-2.21 1.04-0.08 0.16-0.23 0.79-0.34 1.29-0.11 0.51-0.25 1.15-0.25 1.32 0 0.53 0.88 1.35 1.54 1.9q-0.01 0.15-0.01 0.31 0.01 0.15 0.01 0.31c-0.66 0.54-1.54 1.37-1.54 1.89 0 0.19 0.14 0.82 0.25 1.32 0.12 0.5 0.26 1.14 0.34 1.3 0.23 0.48 1.38 0.83 2.21 1.02q0.13 0.3 0.28 0.58c-0.37 0.79-0.8 1.89-0.58 2.38 0.08 0.15 0.48 0.67 0.81 1.08 0.31 0.4 0.72 0.9 0.87 1.01 0.41 0.32 1.58 0.16 2.43-0.02q0.24 0.19 0.5 0.38c0 0.86 0.1 2.05 0.51 2.39 0.15 0.11 0.73 0.4 1.19 0.62 0.47 0.23 1.05 0.5 1.23 0.54 0.51 0.12 1.51-0.55 2.19-1.09 0.2 0.05 0.42 0.12 0.62 0.16 0.38 0.78 0.98 1.8 1.49 1.91 0.18 0.04 0.83 0.04 1.35 0.04 0.5 0.01 1.16 0 1.34-0.04 0.5-0.11 1.11-1.14 1.49-1.91 0.21-0.04 0.41-0.11 0.61-0.16 0.69 0.54 1.69 1.21 2.2 1.09 0.18-0.04 0.76-0.31 1.23-0.54 0.45-0.22 1.04-0.51 1.18-0.62 0.42-0.34 0.51-1.53 0.52-2.39q0.26-0.19 0.5-0.38c0.85 0.18 2.02 0.34 2.43 0.02 0.14-0.11 0.55-0.61 0.88-1.03 0.32-0.39 0.71-0.9 0.79-1.06 0.23-0.49-0.2-1.6-0.56-2.38q0.14-0.28 0.27-0.58c0.84-0.19 1.97-0.54 2.2-1.02 0.08-0.16 0.24-0.8 0.36-1.3 0.11-0.5 0.24-1.13 0.24-1.32 0-0.52-0.87-1.35-1.54-1.89q0.01-0.16 0.01-0.31 0-0.16-0.01-0.31c0.67-0.55 1.54-1.37 1.54-1.9 0-0.18-0.14-0.82-0.26-1.32-0.1-0.49-0.26-1.13-0.34-1.29-0.23-0.48-1.36-0.84-2.2-1.04q-0.13-0.29-0.27-0.57c0.36-0.78 0.8-1.89 0.56-2.37-0.07-0.16-0.47-0.68-0.79-1.08-0.33-0.41-0.73-0.91-0.88-1.02-0.41-0.32-1.58-0.16-2.43 0.03q-0.25-0.2-0.5-0.38c-0.01-0.87-0.1-2.07-0.52-2.4-0.01-0.01-0.06-0.03-0.08-0.04q-1.27-0.33-2.28-1.1-0.03-0.02-0.05-0.02c-0.51-0.12-1.51 0.56-2.2 1.09q-0.3-0.08-0.61-0.15c-0.38-0.79-0.99-1.8-1.49-1.93-0.18-0.03-0.84-0.03-1.34-0.03-0.44 0-0.95 0-1.22 0.02q-0.09 0.01-0.13 0.01zm2.06 8.36c4.07 0 7.37 3.3 7.37 7.38 0 4.08-3.3 7.38-7.37 7.38-4.08 0-7.39-3.3-7.39-7.38 0-4.08 3.31-7.38 7.39-7.38z"/>
	<path class="s11" d="m709.2 556.21c0 4.08 3.31 7.38 7.39 7.38 4.07 0 7.37-3.3 7.37-7.38 0-4.08-3.3-7.38-7.37-7.38-4.08 0-7.39 3.3-7.39 7.38z"/>
	<path class="s10" d="m544.29 555.84q-0.02 0.14-0.02 0.3 0 0.16 0.02 0.31c-0.67 0.54-1.55 1.36-1.55 1.9 0 0.17 0.14 0.81 0.25 1.31 0.11 0.5 0.27 1.13 0.34 1.29 0.23 0.49 1.38 0.85 2.22 1.04q0.13 0.29 0.26 0.57c-0.36 0.79-0.79 1.9-0.56 2.38 0.08 0.16 0.47 0.67 0.8 1.08 0.31 0.4 0.73 0.9 0.87 1.01 0.41 0.33 1.59 0.17 2.43-0.01q0.25 0.19 0.5 0.37c0.01 0.87 0.1 2.06 0.51 2.4 0.15 0.11 0.73 0.4 1.19 0.62 0.47 0.22 1.05 0.5 1.24 0.54 0.51 0.12 1.51-0.56 2.19-1.09q0.3 0.09 0.61 0.16c0.38 0.78 0.98 1.8 1.49 1.91 0.19 0.04 0.83 0.04 1.35 0.04 0.51 0.01 1.16 0 1.34-0.04 0.51-0.11 1.12-1.14 1.49-1.91q0.32-0.07 0.62-0.16c0.69 0.53 1.68 1.21 2.19 1.09 0.18-0.04 0.77-0.32 1.23-0.54 0.46-0.22 1.04-0.51 1.18-0.62 0.42-0.34 0.51-1.53 0.52-2.4q0.26-0.18 0.5-0.37c0.85 0.18 2.02 0.34 2.43 0.01 0.14-0.11 0.56-0.61 0.88-1.02 0.32-0.4 0.72-0.91 0.8-1.07 0.23-0.48-0.2-1.6-0.57-2.38q0.15-0.27 0.27-0.57c0.84-0.2 1.98-0.56 2.21-1.04 0.08-0.16 0.24-0.79 0.35-1.3 0.11-0.49 0.24-1.13 0.24-1.31 0-0.53-0.87-1.35-1.54-1.89q0.01-0.16 0.01-0.31 0-0.16-0.01-0.31c0.67-0.55 1.54-1.37 1.54-1.9 0-0.18-0.14-0.82-0.25-1.32-0.1-0.5-0.26-1.13-0.34-1.29-0.23-0.49-1.37-0.84-2.21-1.03q-0.12-0.29-0.27-0.58c0.37-0.78 0.8-1.89 0.57-2.37-0.08-0.16-0.48-0.67-0.8-1.09-0.33-0.4-0.73-0.9-0.88-1.02-0.41-0.32-1.58-0.15-2.43 0.04q-0.25-0.2-0.5-0.39c0-0.86-0.1-2.06-0.52-2.4-0.14-0.11-0.72-0.39-1.18-0.62-0.47-0.22-1.05-0.5-1.23-0.54-0.52-0.12-1.51 0.57-2.19 1.09q-0.3-0.08-0.62-0.15c-0.37-0.78-0.97-1.8-1.49-1.92-0.18-0.04-0.83-0.04-1.34-0.04-0.44 0-0.95 0-1.21 0.03q-0.09 0-0.14 0.01c-0.29 0.07-0.62 0.45-0.92 0.89q-0.32 0.51-0.57 1.03-0.31 0.07-0.62 0.15c-0.68-0.52-1.67-1.21-2.19-1.09-0.18 0.04-0.76 0.32-1.23 0.54-0.47 0.23-1.04 0.51-1.19 0.62-0.41 0.34-0.51 1.54-0.51 2.4q-0.26 0.19-0.5 0.39c-0.84-0.19-2.02-0.36-2.43-0.04-0.15 0.12-0.56 0.63-0.87 1.03-0.33 0.41-0.73 0.92-0.81 1.08-0.22 0.48 0.2 1.59 0.57 2.37q-0.14 0.29-0.27 0.58c-0.84 0.19-1.98 0.54-2.21 1.03-0.08 0.16-0.23 0.79-0.34 1.29-0.11 0.51-0.25 1.15-0.25 1.32 0 0.53 0.88 1.35 1.55 1.91zm14.87-7.14c4.06 0 7.37 3.31 7.37 7.38 0 4.08-3.31 7.38-7.37 7.38-4.09 0-7.39-3.3-7.39-7.38 0-4.07 3.3-7.38 7.39-7.38z"/>
	<path class="s11" d="m551.77 556.08c0 4.08 3.29 7.38 7.38 7.38 4.07 0 7.38-3.3 7.38-7.38 0-4.07-3.31-7.38-7.38-7.38-4.08 0-7.38 3.31-7.38 7.38z"/>
	<path class="s11" d="m829.6 622.44c-2.39 0-4.32 1.93-4.32 4.32 0 2.4 1.93 4.33 4.32 4.33 2.39 0 4.33-1.93 4.33-4.33 0-2.39-1.93-4.32-4.33-4.32z"/>
	<path class="s11" d="m843.73 626.76c0 2.4 1.94 4.33 4.33 4.33 2.38 0 4.31-1.93 4.31-4.33 0-2.38-1.93-4.32-4.31-4.32-2.39 0-4.33 1.94-4.33 4.32z"/>
	<path class="s9" d="m792.82 621.93c-0.46 0.23-1.05 0.51-1.23 0.54-0.26 0.06-0.64-0.08-1.05-0.31-1.23 1.15-2 2.78-2 4.59 0 3.49 2.82 6.33 6.31 6.33 2.06 0 3.86-0.99 5.02-2.5 1.49-0.51 2.91-0.82 4.21-1.01 1.31 0.19 2.71 0.5 4.22 1.01 1.15 1.5 2.95 2.5 5.01 2.5 3.48 0 6.31-2.84 6.31-6.33 0-3.48-2.83-6.31-6.31-6.31-2.06 0-3.86 0.99-5.01 2.5-1.51 0.51-2.91 0.8-4.22 0.99-1.3-0.19-2.72-0.48-4.21-0.99-1.16-1.51-2.96-2.5-5.02-2.5-0.16 0-0.31 0.03-0.48 0.04-0.07 0.37-0.18 0.69-0.36 0.83-0.14 0.11-0.72 0.4-1.19 0.62zm20.49 0.51c2.38 0 4.32 1.94 4.32 4.32 0 2.4-1.94 4.33-4.32 4.33-2.39 0-4.33-1.93-4.33-4.33 0-2.38 1.94-4.32 4.33-4.32zm-14.12 4.32c0 2.4-1.94 4.33-4.34 4.33-2.39 0-4.32-1.93-4.32-4.33 0-2.38 1.93-4.32 4.32-4.32 2.4 0 4.34 1.94 4.34 4.32z"/>
	<path class="s11" d="m790.54 626.76c0 2.4 1.93 4.33 4.31 4.33 2.4 0 4.34-1.93 4.34-4.33 0-2.38-1.94-4.32-4.34-4.32-2.38 0-4.31 1.94-4.31 4.32z"/>
	<path class="s11" d="m813.31 631.09c2.38 0 4.32-1.93 4.32-4.33 0-2.39-1.94-4.32-4.32-4.32-2.39 0-4.33 1.93-4.33 4.32 0 2.4 1.94 4.33 4.33 4.33z"/>
	<path class="s9" d="m779.08 621.93c-0.47-0.22-1.04-0.51-1.19-0.62-0.17-0.13-0.27-0.41-0.34-0.75-1.63 0.27-3.04 1.13-4 2.39-1.5 0.5-2.91 0.8-4.22 0.98-1.3-0.18-2.71-0.48-4.22-0.98-1.15-1.52-2.95-2.51-5.01-2.51-3.48 0-6.31 2.84-6.31 6.32 0 3.49 2.83 6.32 6.31 6.32 2.06 0 3.86-0.99 5.01-2.5 1.51-0.51 2.92-0.81 4.22-1 1.31 0.19 2.72 0.49 4.22 1 1.16 1.51 2.96 2.5 5.01 2.5 3.49 0 6.31-2.83 6.31-6.32 0-2.13-1.06-4-2.67-5.15-0.65 0.48-1.45 0.97-1.89 0.86-0.18-0.03-0.77-0.31-1.23-0.54zm-18.98 9.16c-2.39 0-4.32-1.93-4.32-4.33 0-2.38 1.93-4.32 4.32-4.32 2.4 0 4.33 1.94 4.33 4.32 0 2.4-1.93 4.33-4.33 4.33zm22.77-4.33c0 2.4-1.93 4.33-4.31 4.33-2.39 0-4.34-1.93-4.34-4.33 0-2.38 1.95-4.32 4.34-4.32 2.38 0 4.31 1.94 4.31 4.32z"/>
	<path class="s11" d="m760.1 622.44c-2.39 0-4.32 1.93-4.32 4.32 0 2.4 1.93 4.33 4.32 4.33 2.4 0 4.33-1.93 4.33-4.33 0-2.39-1.93-4.32-4.33-4.32z"/>
	<path class="s11" d="m774.22 626.76c0 2.4 1.95 4.33 4.34 4.33 2.38 0 4.31-1.93 4.31-4.33 0-2.38-1.93-4.32-4.31-4.32-2.39 0-4.34 1.94-4.34 4.32z"/>
	<path class="s9" d="m726.69 621.93c-0.46 0.23-1.01 0.49-1.21 0.53 2.33 0.08 4.2 1.96 4.2 4.3 0 2.4-1.94 4.33-4.33 4.33-2.39 0-4.32-1.93-4.32-4.33 0-2.36 1.9-4.25 4.24-4.3-0.55-0.03-1.38-0.6-2-1.07q-0.3 0.09-0.62 0.15c-0.38 0.78-0.98 1.8-1.49 1.91-0.17 0.04-0.72 0.06-1.2 0.05-0.57 0.96-0.92 2.06-0.92 3.25 0 3.49 2.82 6.33 6.31 6.33 2.06 0 3.85-0.99 5.01-2.5 1.5-0.51 2.92-0.82 4.22-1.01 1.31 0.19 2.71 0.5 4.21 1.01 1.16 1.5 2.97 2.5 5.01 2.5 3.5 0 6.32-2.84 6.32-6.33 0-3.48-2.82-6.31-6.32-6.31-2.05 0-3.85 0.99-5.01 2.5-1.5 0.51-2.9 0.8-4.21 0.99-1.3-0.19-2.72-0.48-4.22-0.99-0.61-0.8-1.41-1.44-2.33-1.88-0.05 0.09-0.09 0.2-0.16 0.25-0.14 0.11-0.72 0.4-1.18 0.62zm17.11 0.51c2.39 0 4.32 1.94 4.32 4.32 0 2.4-1.93 4.33-4.32 4.33-2.38 0-4.33-1.93-4.33-4.33 0-2.38 1.95-4.32 4.33-4.32z"/>
	<path class="s11" d="m721.03 626.76c0 2.4 1.94 4.33 4.32 4.33 2.4 0 4.33-1.93 4.33-4.33 0-2.34-1.87-4.22-4.2-4.3q-0.01 0.01-0.03 0.01c-0.05 0.01-0.12-0.01-0.18-0.01-2.34 0.05-4.24 1.94-4.24 4.3z"/>
	<path class="s11" d="m743.8 631.09c2.39 0 4.33-1.93 4.33-4.33 0-2.39-1.94-4.32-4.33-4.32-2.38 0-4.33 1.93-4.33 4.32 0 2.4 1.95 4.33 4.33 4.33z"/>
	<path class="s9" d="m711.75 621.31q-0.14-0.13-0.24-0.37-1.14-0.49-2.45-0.5c-2.05 0-3.85 0.99-5.01 2.51-1.51 0.5-2.91 0.8-4.22 0.98-1.3-0.18-2.71-0.48-4.22-0.98-1.15-1.52-2.94-2.51-5.01-2.51-3.49 0-6.31 2.84-6.31 6.32 0 3.49 2.82 6.32 6.31 6.32 2.07 0 3.86-0.99 5.01-2.5 1.51-0.51 2.92-0.81 4.22-1 1.31 0.19 2.71 0.49 4.22 1 1.15 1.51 2.96 2.5 5.01 2.5 3.49 0 6.32-2.83 6.32-6.32 0-1.85-0.81-3.5-2.09-4.66q-0.18-0.08-0.35-0.17c-0.47-0.22-1.04-0.51-1.19-0.62zm-21.15 9.78c-2.38 0-4.32-1.93-4.32-4.33 0-2.38 1.93-4.32 4.32-4.32 2.4 0 4.33 1.94 4.33 4.32 0 2.4-1.93 4.33-4.33 4.33zm18.46 0c-2.39 0-4.33-1.93-4.33-4.33 0-2.38 1.94-4.32 4.33-4.32 2.38 0 4.33 1.94 4.33 4.32-0.01 2.4-1.95 4.33-4.33 4.33z"/>
	<path class="s11" d="m690.6 622.44c-2.38 0-4.32 1.93-4.32 4.32 0 2.4 1.93 4.33 4.32 4.33 2.4 0 4.33-1.93 4.33-4.33 0-2.39-1.93-4.32-4.33-4.32z"/>
	<path class="s11" d="m709.06 622.44c-2.39 0-4.33 1.93-4.33 4.32 0 2.4 1.94 4.33 4.33 4.33 2.38 0 4.33-1.93 4.33-4.33-0.01-2.39-1.95-4.32-4.33-4.32z"/>
	<path class="s9" d="m657.13 621.39q-0.3 0.09-0.62 0.15-0.23 0.46-0.52 0.93c2.33 0.08 4.19 1.95 4.19 4.29 0 2.4-1.93 4.33-4.33 4.33-2.38 0-4.31-1.93-4.31-4.33 0-1.33 0.63-2.47 1.56-3.26-0.33-0.01-0.65-0.02-0.77-0.05-0.33-0.07-0.69-0.53-1.02-1.06-1.09 1.14-1.77 2.67-1.77 4.37 0 3.49 2.83 6.32 6.31 6.32 2.07 0 3.86-0.99 5.01-2.5 1.52-0.51 2.92-0.81 4.22-1 1.32 0.19 2.71 0.49 4.22 1 1.16 1.51 2.96 2.5 5.01 2.5 3.49 0 6.32-2.83 6.32-6.32 0-3.48-2.84-6.32-6.32-6.32-2.05 0-3.85 0.99-5.01 2.51-1.51 0.5-2.9 0.8-4.22 0.98-1.3-0.18-2.7-0.48-4.22-0.98-0.22-0.3-0.49-0.55-0.76-0.8-0.33 0.16-0.66 0.3-0.78 0.32-0.51 0.12-1.5-0.55-2.19-1.08zm17.18 1.05c2.38 0 4.32 1.94 4.32 4.32 0 2.4-1.94 4.33-4.32 4.33-2.39 0-4.33-1.93-4.33-4.33 0-2.38 1.94-4.32 4.33-4.32z"/>
	<path class="s11" d="m651.53 626.76c0 2.4 1.94 4.33 4.32 4.33 2.39 0 4.33-1.93 4.33-4.33 0-2.34-1.86-4.21-4.19-4.29-0.31 0.49-0.66 0.92-0.97 0.98-0.18 0.04-0.84 0.06-1.35 0.06q-0.28-0.01-0.57-0.01c-0.93 0.79-1.57 1.93-1.57 3.26z"/>
	<path class="s11" d="m674.31 631.09c2.38 0 4.32-1.93 4.32-4.33 0-2.39-1.94-4.32-4.32-4.32-2.39 0-4.33 1.93-4.33 4.32 0 2.4 1.94 4.33 4.33 4.33z"/>
	<path class="s9" d="m639.56 620.44c-2.05 0-3.85 0.99-5.01 2.51-1.51 0.5-2.9 0.8-4.22 0.99-1.3-0.19-2.71-0.49-4.22-0.99-1.15-1.52-2.95-2.51-5.01-2.51-3.48 0-6.31 2.84-6.31 6.32 0 3.5 2.82 6.33 6.31 6.33 2.06 0 3.86-0.99 5.01-2.51 1.51-0.51 2.92-0.81 4.22-1 1.31 0.19 2.71 0.49 4.22 1 1.16 1.51 2.96 2.51 5.01 2.51 3.49 0 6.32-2.83 6.32-6.33 0-3.48-2.84-6.32-6.32-6.32zm-18.46 10.65c-2.39 0-4.32-1.93-4.32-4.33 0-2.39 1.93-4.32 4.32-4.32 2.4 0 4.33 1.93 4.33 4.32 0 2.4-1.93 4.33-4.33 4.33zm18.46 0c-2.39 0-4.33-1.93-4.33-4.33 0-2.39 1.94-4.32 4.33-4.32 2.38 0 4.32 1.93 4.32 4.32 0 2.4-1.94 4.33-4.32 4.33z"/>
	<path class="s11" d="m621.1 622.44c-2.39 0-4.32 1.93-4.32 4.32 0 2.4 1.93 4.33 4.32 4.33 2.4 0 4.33-1.93 4.33-4.33 0-2.39-1.93-4.32-4.33-4.32z"/>
	<path class="s11" d="m639.56 622.44c-2.39 0-4.33 1.93-4.33 4.32 0 2.4 1.94 4.33 4.33 4.33 2.38 0 4.32-1.93 4.32-4.33 0-2.39-1.94-4.32-4.32-4.32z"/>
	<path class="s9" d="m588.97 623.41c1.02 0.78 1.71 1.96 1.71 3.35 0 2.4-1.93 4.33-4.33 4.33-2.39 0-4.31-1.93-4.31-4.33 0-2.03 1.42-3.65 3.3-4.11-0.24-0.35-0.46-0.75-0.64-1.11q-0.31-0.06-0.61-0.15c-0.68 0.53-1.68 1.2-2.19 1.08-0.02 0-0.09-0.03-0.12-0.04-1.07 1.13-1.74 2.65-1.74 4.33 0 3.49 2.83 6.32 6.31 6.32 2.06 0 3.86-0.99 5.02-2.5 1.5-0.51 2.91-0.81 4.21-1 1.32 0.19 2.71 0.49 4.22 1 1.15 1.51 2.96 2.5 5.01 2.5 3.49 0 6.32-2.83 6.32-6.32 0-3.48-2.83-6.32-6.32-6.32-2.06 0-3.86 0.99-5.01 2.51-1.51 0.5-2.9 0.8-4.22 0.98-1.3-0.18-2.71-0.48-4.21-0.98q-0.5-0.64-1.14-1.14c-0.35 0.68-0.82 1.41-1.26 1.6zm15.84-0.97c2.38 0 4.32 1.94 4.32 4.32 0 2.4-1.94 4.33-4.32 4.33-2.39 0-4.33-1.93-4.33-4.33 0-2.38 1.94-4.32 4.33-4.32z"/>
	<path class="s11" d="m582.04 626.76c0 2.4 1.93 4.33 4.31 4.33 2.4 0 4.33-1.93 4.33-4.33 0-1.4-0.69-2.57-1.71-3.36q-0.05 0.03-0.09 0.05c-0.18 0.04-0.84 0.06-1.34 0.06-0.51 0-1.16-0.02-1.35-0.06-0.28-0.05-0.58-0.39-0.86-0.81-1.88 0.47-3.29 2.09-3.29 4.12z"/>
	<path class="s11" d="m604.81 631.09c2.38 0 4.32-1.93 4.32-4.33 0-2.39-1.94-4.32-4.32-4.32-2.39 0-4.33 1.93-4.33 4.32 0 2.4 1.94 4.33 4.33 4.33z"/>
	<path class="s9" d="m570.06 620.44c-2.05 0-3.85 0.99-5.01 2.51-1.5 0.5-2.9 0.8-4.22 0.99-1.3-0.19-2.7-0.49-4.21-0.99-1.15-1.52-2.95-2.51-5.01-2.51-3.48 0-6.32 2.84-6.32 6.32 0 3.5 2.83 6.33 6.32 6.33 2.06 0 3.85-0.99 5.01-2.51 1.51-0.51 2.91-0.81 4.21-1 1.32 0.19 2.72 0.49 4.22 1 1.16 1.51 2.96 2.51 5.01 2.51 3.49 0 6.32-2.83 6.32-6.33 0-3.48-2.83-6.32-6.32-6.32zm-18.45 10.65c-2.39 0-4.32-1.93-4.32-4.33 0-2.39 1.93-4.32 4.32-4.32 2.39 0 4.33 1.93 4.33 4.32 0 2.4-1.94 4.33-4.33 4.33zm18.45 0c-2.39 0-4.33-1.93-4.33-4.33 0-2.39 1.94-4.32 4.33-4.32 2.38 0 4.32 1.93 4.32 4.32 0 2.4-1.94 4.33-4.32 4.33z"/>
	<path class="s11" d="m551.61 622.44c-2.39 0-4.32 1.93-4.32 4.32 0 2.4 1.93 4.33 4.32 4.33 2.39 0 4.33-1.93 4.33-4.33 0-2.39-1.94-4.32-4.33-4.32z"/>
	<path class="s11" d="m570.06 622.44c-2.39 0-4.33 1.93-4.33 4.32 0 2.4 1.94 4.33 4.33 4.33 2.38 0 4.32-1.93 4.32-4.33 0-2.39-1.94-4.32-4.32-4.32z"/>
	<path class="s9" d="m521.4 623.51c-0.51 0-1.16-0.02-1.34-0.06-0.51-0.11-1.11-1.13-1.5-1.91q-0.3-0.06-0.61-0.15c-0.68 0.53-1.68 1.2-2.18 1.08-0.19-0.03-0.78-0.31-1.24-0.53-0.38-0.18-0.77-0.39-1-0.52-1.79 1.11-2.99 3.09-2.99 5.34 0 3.5 2.83 6.33 6.32 6.33 2.06 0 3.85-0.99 5.01-2.51 1.5-0.51 2.91-0.81 4.21-1 1.32 0.19 2.72 0.49 4.22 1 1.16 1.51 2.96 2.51 5.01 2.51 3.49 0 6.32-2.83 6.32-6.33 0-3.48-2.83-6.32-6.32-6.32-2.05 0-3.85 0.99-5.01 2.51-1.5 0.5-2.9 0.8-4.22 0.99q-1.43-0.21-3.03-0.66-0.16 0.13-0.31 0.18c-0.17 0.04-0.83 0.06-1.34 0.05zm-4.54 7.58c-2.39 0-4.33-1.93-4.33-4.33 0-2.38 1.94-4.32 4.33-4.32 2.4 0 4.33 1.94 4.33 4.32 0 2.4-1.93 4.33-4.33 4.33zm18.45-8.65c2.38 0 4.32 1.94 4.32 4.32 0 2.4-1.94 4.33-4.32 4.33-2.39 0-4.33-1.93-4.33-4.33 0-2.38 1.94-4.32 4.33-4.32z"/>
	<path class="s11" d="m516.86 622.44c-2.39 0-4.33 1.93-4.33 4.32 0 2.4 1.94 4.33 4.33 4.33 2.4 0 4.33-1.93 4.33-4.33 0-2.39-1.93-4.32-4.33-4.32z"/>
	<path class="s11" d="m535.31 631.09c2.38 0 4.32-1.93 4.32-4.33 0-2.39-1.94-4.32-4.32-4.32-2.39 0-4.33 1.93-4.33 4.32 0 2.4 1.94 4.33 4.33 4.33z"/>
	<path class="s9" d="m500.56 620.44c-2.05 0-3.85 0.99-5.01 2.51-1.5 0.5-2.91 0.8-4.22 0.99-1.3-0.19-2.71-0.49-4.21-0.99-1.16-1.52-2.95-2.51-5.01-2.51-3.49 0-6.32 2.84-6.32 6.32 0 3.5 2.83 6.33 6.32 6.33 2.06 0 3.85-0.99 5.01-2.51 1.5-0.51 2.91-0.81 4.21-1 1.32 0.19 2.72 0.49 4.22 1 1.16 1.51 2.96 2.51 5.01 2.51 3.49 0 6.32-2.83 6.32-6.33 0-3.48-2.83-6.32-6.32-6.32zm-18.45 10.65c-2.39 0-4.33-1.93-4.33-4.33 0-2.39 1.94-4.32 4.33-4.32 2.4 0 4.33 1.93 4.33 4.32-0.01 2.4-1.93 4.33-4.33 4.33zm18.45 0c-2.39 0-4.33-1.93-4.33-4.33 0-2.39 1.94-4.32 4.33-4.32 2.38 0 4.32 1.93 4.32 4.32 0 2.4-1.94 4.33-4.32 4.33z"/>
	<path class="s11" d="m482.11 622.44c-2.39 0-4.33 1.93-4.33 4.32 0 2.4 1.94 4.33 4.33 4.33 2.4 0 4.33-1.93 4.33-4.33-0.01-2.39-1.93-4.32-4.33-4.32z"/>
	<path class="s11" d="m500.56 622.44c-2.39 0-4.33 1.93-4.33 4.32 0 2.4 1.94 4.33 4.33 4.33 2.38 0 4.32-1.93 4.32-4.33 0-2.39-1.94-4.32-4.32-4.32z"/>
	<path class="s9" d="m465.81 620.44c-2.05 0-3.85 0.99-5.01 2.51-1.51 0.5-2.91 0.8-4.21 0.99-1.31-0.19-2.72-0.49-4.22-0.99-1.15-1.52-2.95-2.51-5.01-2.51-3.49 0-6.32 2.84-6.32 6.32 0 3.5 2.83 6.33 6.32 6.33 2.06 0 3.85-0.99 5.01-2.51 1.5-0.51 2.91-0.81 4.22-1 1.31 0.19 2.71 0.49 4.21 1 1.16 1.51 2.96 2.51 5.01 2.51 3.49 0 6.32-2.83 6.32-6.33 0-3.48-2.83-6.32-6.32-6.32zm-18.45 10.65c-2.39 0-4.33-1.93-4.33-4.33 0-2.39 1.94-4.32 4.33-4.32 2.39 0 4.33 1.93 4.33 4.32 0 2.4-1.94 4.33-4.33 4.33zm18.45 0c-2.39 0-4.33-1.93-4.33-4.33 0-2.39 1.94-4.32 4.33-4.32 2.39 0 4.33 1.93 4.33 4.32 0 2.4-1.94 4.33-4.33 4.33z"/>
	<path class="s11" d="m447.36 622.44c-2.39 0-4.33 1.93-4.33 4.32 0 2.4 1.94 4.33 4.33 4.33 2.39 0 4.33-1.93 4.33-4.33 0-2.39-1.94-4.32-4.33-4.32z"/>
	<path class="s11" d="m465.81 622.44c-2.39 0-4.33 1.93-4.33 4.32 0 2.4 1.94 4.33 4.33 4.33 2.39 0 4.33-1.93 4.33-4.33 0-2.39-1.94-4.32-4.33-4.32z"/>
	<path class="s11" d="m412.61 631.09c2.39 0 4.33-1.93 4.33-4.33 0-2.39-1.94-4.32-4.33-4.32-2.39 0-4.33 1.93-4.33 4.32 0 2.4 1.94 4.33 4.33 4.33z"/>
	<path class="s11" d="m431.06 631.09c2.38 0 4.33-1.93 4.33-4.33 0-2.39-1.95-4.32-4.33-4.32-2.39 0-4.33 1.93-4.33 4.32 0 2.4 1.94 4.33 4.33 4.33z"/>
	<path class="s9" d="m828.5 557.82c2.01 0.43 3.97-0.17 5.42-1.41 1.57-0.19 3.01-0.19 4.33-0.11 1.24 0.46 2.55 1.04 3.92 1.85 0.55 1.15 1.45 2.1 2.57 2.75q-0.37 0.18-0.72 0.34c-0.96 0.47-2.17 1.07-2.48 1.31-0.85 0.69-1.05 3.17-1.08 4.99-0.33 0.27-0.69 0.52-1.03 0.8-1.77-0.39-4.21-0.75-5.08-0.06-0.3 0.24-1.15 1.29-1.81 2.13-0.68 0.83-1.51 1.9-1.68 2.25-0.47 0.99 0.42 3.32 1.2 4.96q-0.3 0.58-0.58 1.17c-1.75 0.42-4.12 1.16-4.6 2.16-0.17 0.34-0.48 1.65-0.72 2.71-0.24 1.05-0.52 2.36-0.54 2.75 0.01 1.1 1.82 2.8 3.24 3.94q-0.03 0.33-0.04 0.66 0.01 0.32 0.04 0.64c-1.41 1.15-3.22 2.85-3.22 3.95 0 0.38 0.28 1.72 0.52 2.75 0.23 1.06 0.55 2.37 0.71 2.71 0.49 1 2.87 1.73 4.62 2.16q0.27 0.6 0.57 1.18c-0.77 1.64-1.66 3.96-1.2 4.94 0.17 0.35 1 1.42 1.68 2.26 0.67 0.84 1.51 1.89 1.82 2.13 0.86 0.69 3.31 0.33 5.08-0.05q0.51 0.4 1.03 0.79c0.02 1.82 0.22 4.3 1.08 4.99 0.3 0.24 1.52 0.84 2.48 1.31q0.5 0.24 1.02 0.48-1.18 0.65-1.99 1.7c-1.51 0.51-2.91 0.81-4.22 0.99-1.3-0.18-2.71-0.48-4.21-0.99-1.16-1.51-2.96-2.5-5.01-2.5-3.49 0-6.32 2.83-6.32 6.31 0 3.5 2.83 6.33 6.32 6.33 2.05 0 3.85-0.99 5.01-2.5 1.5-0.51 2.91-0.82 4.21-1 1.31 0.18 2.71 0.49 4.22 1 1.15 1.5 2.96 2.5 5.01 2.5 3.49 0 6.32-2.83 6.32-6.33 0-2.92-2-5.36-4.7-6.08 0.52-0.34 1.04-0.71 1.49-1.05 0.41 0.1 0.84 0.23 1.26 0.31 0.82 1.62 2.06 3.75 3.12 3.99 0.38 0.09 1.73 0.11 2.8 0.11 1.07 0 2.43-0.02 2.81-0.11 1.06-0.24 2.3-2.37 3.11-3.99 0.43-0.08 0.85-0.22 1.27-0.32 1.43 1.11 3.51 2.51 4.58 2.27 0.37-0.09 1.59-0.66 2.56-1.12 0.97-0.47 2.18-1.07 2.48-1.32 0.87-0.68 1.06-3.17 1.09-4.99q0.52-0.38 1.03-0.79c1.77 0.38 4.21 0.74 5.06 0.05 0.31-0.23 1.17-1.28 1.84-2.13 0.66-0.83 1.49-1.9 1.66-2.25 0.48-0.98-0.42-3.31-1.19-4.94q0.3-0.59 0.57-1.18c1.76-0.42 4.13-1.16 4.61-2.16 0.17-0.34 0.48-1.66 0.73-2.7 0.23-1.04 0.52-2.38 0.52-2.76 0-1.1-1.82-2.8-3.23-3.95q0.03-0.33 0.04-0.64-0.01-0.33-0.04-0.66c1.41-1.14 3.22-2.84 3.22-3.94 0.01-0.39-0.28-1.71-0.52-2.76-0.24-1.05-0.55-2.36-0.72-2.7-0.48-1-2.85-1.74-4.61-2.16q-0.27-0.59-0.57-1.17c0.77-1.64 1.67-3.96 1.19-4.96-0.17-0.35-1-1.42-1.66-2.25-0.67-0.85-1.53-1.89-1.84-2.13-0.85-0.69-3.3-0.33-5.06 0.06q-0.52-0.41-1.03-0.8c-0.03-1.81-0.22-4.3-1.09-4.99-0.3-0.24-1.51-0.83-2.48-1.3-0.97-0.47-2.19-1.04-2.57-1.13-1.07-0.25-3.14 1.17-4.57 2.27-0.42-0.1-0.84-0.23-1.27-0.32-0.81-1.62-2.05-3.74-3.11-3.99-0.38-0.08-1.73-0.1-2.81-0.1-0.9 0-1.97 0-2.52 0.06q-0.18 0.02-0.28 0.04c-0.62 0.14-1.29 0.91-1.91 1.85-0.45 0.68-0.86 1.46-1.21 2.13-0.43 0.09-0.85 0.22-1.27 0.33q-0.61-0.48-1.33-0.96c2.07-0.69 3.73-2.4 4.21-4.69 0.72-3.4-1.47-6.76-4.88-7.48-2-0.42-3.97 0.18-5.42 1.42-1.58 0.18-3.01 0.18-4.33 0.1-1.24-0.45-2.55-1.04-3.92-1.84-0.82-1.72-2.38-3.06-4.39-3.48-3.41-0.73-6.76 1.46-7.48 4.87-0.73 3.41 1.46 6.77 4.87 7.49zm1.1 73.27c-2.39 0-4.32-1.93-4.32-4.33 0-2.39 1.93-4.32 4.32-4.32 2.39 0 4.33 1.93 4.33 4.32 0 2.4-1.93 4.33-4.33 4.33zm22.77-4.33c0 2.4-1.93 4.33-4.31 4.33-2.39 0-4.33-1.93-4.33-4.33 0-2.39 1.94-4.32 4.33-4.32 2.38 0 4.31 1.93 4.31 4.32zm24.94-35.77c0 10.49-8.49 18.97-18.96 18.97-10.48 0-18.95-8.48-18.95-18.97 0-10.45 8.47-18.94 18.95-18.94 10.47 0 18.96 8.48 18.96 18.94zm-33.69-36.44c0.49-2.34 2.79-3.83 5.13-3.34 2.33 0.49 3.83 2.79 3.34 5.12-0.5 2.34-2.79 3.84-5.13 3.35-2.34-0.49-3.83-2.79-3.34-5.13zm-18.04-3.82c0.49-2.33 2.77-3.82 5.12-3.33 2.34 0.49 3.83 2.79 3.34 5.12-0.5 2.34-2.78 3.84-5.13 3.35-2.34-0.49-3.83-2.79-3.33-5.14z"/>
	<path class="s11" d="m828.91 555.88c2.35 0.48 4.63-1.01 5.13-3.36 0.5-2.33-1-4.62-3.34-5.12-2.34-0.49-4.63 1-5.12 3.34-0.5 2.34 0.99 4.64 3.33 5.14z"/>
	<path class="s11" d="m846.96 559.68c2.34 0.49 4.63-1 5.13-3.35 0.49-2.34-1.01-4.63-3.34-5.12-2.34-0.49-4.64 1-5.13 3.34-0.49 2.34 1 4.64 3.34 5.13z"/>
	<path class="s9" d="m793.81 551.47c2.02 0.39 3.98-0.24 5.4-1.49 1.57-0.21 3.01-0.24 4.33-0.17 1.25 0.43 2.56 0.99 3.94 1.78 0.85 1.71 2.42 3.03 4.44 3.43 3.42 0.66 6.75-1.56 7.41-5 0.68-3.42-1.56-6.74-4.98-7.41-2.02-0.4-3.97 0.23-5.4 1.49-1.57 0.21-3.01 0.24-4.32 0.17-1.25-0.43-2.58-1-3.95-1.78-0.85-1.71-2.42-3.02-4.45-3.42-3.41-0.67-6.73 1.57-7.4 4.98-0.67 3.43 1.56 6.75 4.98 7.42zm20.16-6.91c2.33 0.46 3.87 2.73 3.41 5.07-0.46 2.35-2.74 3.88-5.08 3.43-2.34-0.47-3.87-2.73-3.41-5.09 0.46-2.33 2.73-3.88 5.08-3.41zm-18.12-3.54c2.36 0.45 3.88 2.73 3.43 5.07-0.46 2.35-2.73 3.88-5.08 3.42-2.35-0.46-3.87-2.73-3.42-5.08 0.46-2.34 2.73-3.87 5.07-3.41z"/>
	<path class="s11" d="m794.2 549.51c2.35 0.46 4.62-1.07 5.08-3.42 0.45-2.34-1.07-4.62-3.43-5.07-2.34-0.46-4.61 1.07-5.07 3.41-0.45 2.35 1.07 4.62 3.42 5.08z"/>
	<path class="s11" d="m812.3 553.06c2.34 0.45 4.62-1.08 5.08-3.43 0.46-2.34-1.08-4.61-3.41-5.07-2.35-0.47-4.63 1.08-5.08 3.41-0.46 2.35 1.07 4.63 3.41 5.09z"/>
	<path class="s9" d="m759.43 545.73c2.04 0.24 3.94-0.53 5.26-1.9 1.55-0.33 2.99-0.47 4.3-0.49 1.29 0.34 2.65 0.8 4.08 1.48 0.98 1.63 2.65 2.83 4.68 3.07 3.47 0.4 6.61-2.08 7.02-5.55 0.41-3.45-2.07-6.6-5.54-7.01-2.04-0.23-3.93 0.53-5.27 1.9-1.54 0.33-2.98 0.47-4.3 0.49-1.27-0.33-2.63-0.8-4.07-1.47-0.96-1.64-2.64-2.83-4.68-3.08-3.46-0.4-6.61 2.08-7.01 5.53-0.42 3.48 2.06 6.63 5.53 7.03zm19.56-8.42c2.37 0.27 4.07 2.43 3.79 4.8-0.27 2.38-2.43 4.08-4.8 3.8-2.37-0.29-4.07-2.43-3.79-4.81 0.28-2.37 2.44-4.07 4.8-3.79zm-18.31-2.16c2.38 0.29 4.06 2.43 3.78 4.81-0.27 2.37-2.41 4.08-4.79 3.79-2.38-0.28-4.08-2.43-3.79-4.81 0.27-2.37 2.42-4.07 4.8-3.79z"/>
	<path class="s11" d="m759.67 543.75c2.38 0.29 4.52-1.42 4.79-3.79 0.29-2.38-1.41-4.52-3.78-4.81-2.38-0.28-4.53 1.42-4.8 3.79-0.29 2.38 1.41 4.53 3.79 4.81z"/>
	<path class="s11" d="m777.99 545.91c2.36 0.28 4.52-1.42 4.79-3.8 0.29-2.37-1.42-4.53-3.78-4.8-2.37-0.28-4.53 1.42-4.8 3.79-0.29 2.38 1.42 4.53 3.79 4.81z"/>
	<path class="s9" d="m724.83 542.76c2.04 0.18 3.93-0.65 5.21-2.05 1.54-0.38 2.98-0.55 4.28-0.62 1.29 0.3 2.66 0.72 4.12 1.36 1.02 1.61 2.72 2.76 4.77 2.95 3.48 0.3 6.55-2.26 6.86-5.75 0.31-3.47-2.26-6.55-5.74-6.85-2.04-0.19-3.92 0.64-5.22 2.04-1.54 0.38-2.96 0.55-4.28 0.62-1.28-0.3-2.66-0.73-4.11-1.37-1.01-1.61-2.72-2.75-4.77-2.93-3.47-0.32-6.54 2.26-6.85 5.73-0.2 2.25 0.8 4.31 2.47 5.58q1.01 0.77 2.28 1.1 0.48 0.13 0.98 0.19zm19.33-8.98c2.37 0.22 4.13 2.32 3.91 4.69-0.21 2.39-2.31 4.15-4.69 3.94-2.38-0.21-4.14-2.32-3.93-4.7 0.22-2.38 2.33-4.14 4.71-3.93zm-18.38-1.63c2.39 0.21 4.14 2.31 3.92 4.69-0.21 2.39-2.3 4.14-4.69 3.94-2.39-0.22-4.14-2.32-3.93-4.71 0.22-2.37 2.32-4.13 4.7-3.92z"/>
	<path class="s11" d="m725.01 540.78c2.39 0.21 4.48-1.55 4.69-3.94 0.22-2.38-1.53-4.48-3.92-4.69-2.38-0.21-4.48 1.55-4.69 3.92-0.22 2.39 1.54 4.49 3.92 4.71z"/>
	<path class="s11" d="m743.39 542.41c2.37 0.22 4.47-1.55 4.68-3.94 0.22-2.37-1.54-4.48-3.91-4.69-2.38-0.21-4.49 1.55-4.7 3.93-0.22 2.38 1.55 4.49 3.93 4.7z"/>
	<path class="s9" d="m689.96 539.3c2.05 0.22 3.94-0.56 5.26-1.94 1.55-0.34 2.98-0.48 4.3-0.53 1.28 0.33 2.64 0.79 4.07 1.46 0.99 1.62 2.68 2.81 4.71 3.04 3.47 0.39 6.6-2.12 6.98-5.59 0.38-3.47-2.12-6.6-5.59-6.97-2.03-0.24-3.93 0.55-5.25 1.93-1.55 0.34-2.98 0.48-4.3 0.52-1.27-0.33-2.64-0.78-4.08-1.45-0.98-1.63-2.65-2.82-4.7-3.05-3.46-0.37-6.59 2.12-6.97 5.58-0.4 3.49 2.11 6.61 5.57 7zm19.52-8.56c2.36 0.27 4.08 2.41 3.82 4.77-0.27 2.39-2.41 4.1-4.78 3.83-2.37-0.26-4.08-2.4-3.82-4.78 0.26-2.37 2.4-4.08 4.78-3.82zm-18.34-2.03c2.38 0.26 4.08 2.4 3.82 4.77-0.26 2.38-2.4 4.09-4.78 3.83-2.37-0.26-4.08-2.4-3.82-4.78 0.26-2.37 2.41-4.09 4.78-3.82z"/>
	<path class="s11" d="m690.19 537.31c2.38 0.26 4.51-1.45 4.77-3.83 0.26-2.37-1.43-4.51-3.81-4.77-2.38-0.27-4.52 1.45-4.79 3.82-0.26 2.38 1.45 4.52 3.83 4.78z"/>
	<path class="s11" d="m708.52 539.35c2.37 0.26 4.51-1.45 4.78-3.84 0.26-2.36-1.46-4.5-3.82-4.77-2.38-0.26-4.52 1.46-4.78 3.82-0.26 2.39 1.45 4.52 3.82 4.79z"/>
	<path class="s9" d="m655.48 536.52c2.06 0.13 3.91-0.76 5.16-2.19 1.53-0.42 2.95-0.63 4.27-0.74 1.29 0.27 2.67 0.65 4.14 1.26 1.06 1.57 2.8 2.68 4.85 2.8 3.48 0.22 6.49-2.43 6.7-5.92 0.22-3.47-2.43-6.47-5.92-6.69-2.04-0.13-3.9 0.74-5.15 2.18-1.54 0.42-2.95 0.62-4.27 0.73-1.29-0.27-2.68-0.65-4.15-1.25-1.06-1.58-2.79-2.68-4.84-2.8-3.48-0.22-6.48 2.43-6.69 5.91-0.23 3.49 2.42 6.49 5.9 6.71zm19.08-9.5c2.38 0.16 4.2 2.21 4.05 4.59-0.15 2.39-2.2 4.21-4.58 4.06-2.39-0.15-4.21-2.2-4.06-4.6 0.14-2.38 2.2-4.19 4.59-4.05zm-18.42-1.13c2.4 0.14 4.2 2.2 4.06 4.57-0.15 2.4-2.21 4.21-4.59 4.06-2.39-0.14-4.19-2.2-4.05-4.59 0.15-2.38 2.2-4.2 4.58-4.04z"/>
	<path class="s11" d="m655.6 534.52c2.39 0.15 4.45-1.66 4.59-4.06 0.15-2.37-1.66-4.43-4.05-4.57-2.38-0.16-4.44 1.66-4.58 4.04-0.15 2.39 1.66 4.45 4.04 4.59z"/>
	<path class="s11" d="m674.03 535.67c2.37 0.15 4.43-1.67 4.57-4.06 0.15-2.38-1.66-4.44-4.04-4.59-2.39-0.14-4.45 1.67-4.59 4.05-0.15 2.39 1.66 4.45 4.06 4.6z"/>
	<path class="s9" d="m621.1 537.09c2.06 0 3.86-0.99 5.01-2.5 1.51-0.5 2.92-0.81 4.22-0.99 1.31 0.19 2.71 0.49 4.22 0.99 1.16 1.51 2.96 2.5 5.01 2.5 3.49 0 6.32-2.82 6.32-6.32 0-3.48-2.83-6.32-6.32-6.32-2.05 0-3.85 0.99-5.01 2.51-1.51 0.5-2.9 0.8-4.22 0.99-1.3-0.19-2.71-0.49-4.22-0.99-1.15-1.52-2.95-2.51-5.01-2.51-3.48 0-6.31 2.84-6.31 6.32 0 3.5 2.83 6.32 6.31 6.32zm18.46-10.65c2.38 0 4.32 1.95 4.32 4.33 0 2.39-1.94 4.33-4.32 4.33-2.39 0-4.33-1.93-4.33-4.33 0-2.38 1.94-4.33 4.33-4.33zm-18.46 0c2.4 0 4.33 1.95 4.33 4.33 0 2.39-1.93 4.33-4.33 4.33-2.39 0-4.32-1.93-4.32-4.33 0.01-2.38 1.93-4.33 4.32-4.33z"/>
	<path class="s11" d="m621.1 535.1c2.4 0 4.33-1.93 4.33-4.33 0-2.38-1.93-4.33-4.33-4.33-2.39 0-4.32 1.95-4.32 4.33 0.01 2.4 1.93 4.33 4.32 4.33z"/>
	<path class="s11" d="m639.56 535.1c2.38 0 4.32-1.93 4.32-4.33 0-2.38-1.94-4.33-4.32-4.33-2.39 0-4.33 1.95-4.33 4.33 0 2.4 1.94 4.33 4.33 4.33z"/>
	<path class="s9" d="m586.86 537.78c2.05-0.16 3.78-1.27 4.81-2.87 1.46-0.63 2.84-1.04 4.13-1.32 1.32 0.08 2.74 0.28 4.28 0.68 1.27 1.41 3.13 2.27 5.19 2.12 3.47-0.27 6.08-3.31 5.82-6.8-0.27-3.48-3.3-6.07-6.78-5.81-2.05 0.15-3.77 1.27-4.82 2.87-1.45 0.62-2.82 1.03-4.12 1.31-1.31-0.09-2.73-0.28-4.27-0.67-1.27-1.43-3.14-2.28-5.19-2.11-3.48 0.26-6.08 3.29-5.82 6.76 0.26 3.5 3.3 6.1 6.77 5.84zm17.6-12.02c2.37-0.18 4.45 1.61 4.63 3.98 0.19 2.4-1.61 4.47-3.98 4.66-2.38 0.18-4.46-1.61-4.65-4-0.17-2.37 1.61-4.46 4-4.64zm-18.41 1.4c2.4-0.18 4.47 1.61 4.65 3.98 0.18 2.39-1.6 4.47-3.99 4.65-2.38 0.18-4.45-1.61-4.64-4-0.17-2.37 1.6-4.45 3.98-4.63z"/>
	<path class="s11" d="m586.71 535.79c2.38-0.18 4.17-2.26 3.99-4.65-0.18-2.37-2.25-4.16-4.65-3.98-2.38 0.18-4.15 2.26-3.98 4.64 0.19 2.39 2.26 4.17 4.64 3.99z"/>
	<path class="s11" d="m605.11 534.39c2.37-0.18 4.17-2.25 3.98-4.65-0.18-2.38-2.26-4.17-4.63-3.98-2.39 0.18-4.17 2.26-4 4.63 0.19 2.4 2.27 4.18 4.65 4z"/>
	<path class="s9" d="m552.15 541.08c2.04-0.17 3.77-1.3 4.78-2.9 1.47-0.64 2.85-1.05 4.13-1.34 1.32 0.08 2.74 0.27 4.28 0.65 1.27 1.41 3.15 2.27 5.2 2.1 3.48-0.29 6.07-3.33 5.78-6.82-0.27-3.48-3.33-6.07-6.8-5.79-2.05 0.17-3.76 1.3-4.8 2.9-1.45 0.63-2.82 1.04-4.12 1.33-1.31-0.08-2.74-0.27-4.28-0.65-1.27-1.42-3.14-2.26-5.19-2.09-3.47 0.28-6.07 3.33-5.79 6.8 0.28 3.49 3.33 6.08 6.81 5.81zm17.53-12.11c2.37-0.19 4.47 1.59 4.66 3.96 0.19 2.39-1.59 4.47-3.96 4.67-2.39 0.19-4.47-1.58-4.67-3.98-0.19-2.37 1.59-4.46 3.97-4.65zm-18.39 1.48c2.38-0.19 4.47 1.59 4.66 3.96 0.2 2.4-1.58 4.49-3.97 4.67-2.38 0.2-4.46-1.57-4.65-3.97-0.19-2.38 1.58-4.46 3.96-4.66z"/>
	<path class="s11" d="m551.98 539.08c2.39-0.18 4.17-2.27 3.97-4.67-0.19-2.37-2.28-4.14-4.66-3.96-2.38 0.2-4.15 2.28-3.96 4.66 0.19 2.4 2.27 4.17 4.65 3.97z"/>
	<path class="s11" d="m570.38 537.6c2.37-0.19 4.15-2.28 3.96-4.67-0.19-2.37-2.29-4.15-4.66-3.96-2.38 0.2-4.16 2.29-3.96 4.66 0.19 2.38 2.27 4.16 4.66 3.97z"/>
	<path class="s9" d="m517.69 544.68c2.04-0.25 3.71-1.46 4.67-3.1 1.43-0.68 2.79-1.16 4.07-1.5 1.32 0.02 2.75 0.15 4.29 0.48 1.34 1.35 3.25 2.13 5.29 1.87 3.46-0.42 5.93-3.57 5.51-7.05-0.43-3.46-3.58-5.92-7.05-5.5-2.04 0.25-3.7 1.45-4.67 3.09-1.43 0.69-2.78 1.16-4.06 1.5-1.32-0.03-2.75-0.16-4.3-0.47-1.34-1.36-3.24-2.13-5.28-1.87-3.46 0.42-5.93 3.57-5.5 7.03 0.42 3.48 3.57 5.94 7.03 5.52zm17.03-12.82c2.36-0.29 4.52 1.4 4.81 3.77 0.29 2.38-1.39 4.54-3.76 4.82-2.37 0.29-4.54-1.39-4.82-3.77-0.3-2.36 1.39-4.53 3.77-4.82zm-18.32 2.24c2.38-0.29 4.53 1.41 4.82 3.77 0.29 2.37-1.39 4.54-3.77 4.83-2.37 0.28-4.52-1.4-4.81-3.78-0.3-2.36 1.39-4.53 3.76-4.82z"/>
	<path class="s11" d="m517.45 542.7c2.38-0.29 4.06-2.46 3.77-4.83-0.29-2.36-2.44-4.06-4.82-3.77-2.37 0.3-4.06 2.46-3.77 4.82 0.29 2.38 2.45 4.06 4.82 3.78z"/>
	<path class="s11" d="m535.77 540.45c2.37-0.28 4.05-2.44 3.76-4.83-0.3-2.36-2.45-4.05-4.82-3.76-2.38 0.29-4.06 2.45-3.77 4.82 0.29 2.38 2.45 4.06 4.83 3.77z"/>
	<path class="s9" d="m483.11 548.12c2.04-0.3 3.67-1.54 4.6-3.2 1.42-0.72 2.76-1.23 4.03-1.59 1.32-0.01 2.75 0.08 4.32 0.38 1.36 1.32 3.28 2.04 5.31 1.75 3.46-0.5 5.85-3.71 5.35-7.17-0.5-3.45-3.71-5.85-7.17-5.34-2.02 0.29-3.66 1.53-4.59 3.2-1.42 0.71-2.76 1.21-4.03 1.58-1.32 0-2.75-0.09-4.32-0.37-1.36-1.33-3.28-2.05-5.32-1.76-3.45 0.5-5.84 3.71-5.34 7.16 0.51 3.46 3.71 5.86 7.16 5.36zm16.73-13.2c2.36-0.35 4.56 1.3 4.9 3.65 0.35 2.38-1.29 4.58-3.65 4.91-2.37 0.35-4.56-1.29-4.91-3.66-0.34-2.36 1.29-4.55 3.66-4.9zm-18.26 2.66c2.37-0.35 4.56 1.29 4.9 3.65 0.35 2.37-1.28 4.57-3.65 4.92-2.37 0.34-4.56-1.3-4.9-3.67-0.35-2.36 1.28-4.56 3.65-4.9z"/>
	<path class="s11" d="m482.83 546.15c2.37-0.35 4-2.55 3.65-4.93-0.33-2.35-2.53-3.99-4.9-3.64-2.37 0.34-4 2.54-3.66 4.89 0.35 2.38 2.54 4.02 4.91 3.68z"/>
	<path class="s11" d="m501.09 543.49c2.36-0.34 3.99-2.54 3.65-4.91-0.34-2.36-2.54-4-4.9-3.65-2.37 0.34-4 2.54-3.66 4.89 0.35 2.37 2.54 4.01 4.91 3.67z"/>
	<path class="s9" d="m448.19 554.43c2.04-0.25 3.71-1.45 4.67-3.09 1.44-0.69 2.8-1.16 4.07-1.5 1.32 0.02 2.75 0.15 4.3 0.48 1.33 1.36 3.24 2.13 5.28 1.88 3.46-0.42 5.93-3.58 5.5-7.05-0.42-3.46-3.57-5.93-7.04-5.51-2.03 0.25-3.69 1.45-4.67 3.09-1.43 0.69-2.78 1.16-4.06 1.5-1.32-0.03-2.75-0.16-4.31-0.48-1.33-1.36-3.23-2.12-5.27-1.87-3.46 0.42-5.93 3.57-5.51 7.03 0.43 3.47 3.58 5.94 7.04 5.52zm17.02-12.81c2.38-0.29 4.53 1.41 4.82 3.77 0.29 2.38-1.4 4.54-3.76 4.82-2.37 0.3-4.54-1.39-4.83-3.77-0.28-2.37 1.4-4.53 3.77-4.82zm-18.31 2.23c2.38-0.28 4.54 1.41 4.82 3.78 0.3 2.37-1.39 4.53-3.77 4.82-2.36 0.29-4.52-1.4-4.81-3.78-0.3-2.36 1.39-4.52 3.76-4.82z"/>
	<path class="s11" d="m447.95 552.45c2.38-0.29 4.06-2.45 3.77-4.83-0.29-2.36-2.44-4.05-4.82-3.77-2.37 0.3-4.06 2.46-3.77 4.83 0.29 2.37 2.45 4.06 4.82 3.77z"/>
	<path class="s11" d="m466.27 550.21c2.36-0.28 4.05-2.44 3.76-4.82-0.29-2.36-2.44-4.06-4.82-3.77-2.37 0.3-4.05 2.45-3.77 4.82 0.29 2.38 2.45 4.07 4.83 3.77z"/>
	<path class="s9" d="m422.2 553.09c1.32 0.02 2.75 0.13 4.3 0.45 1.34 1.35 3.26 2.11 5.29 1.85 3.46-0.44 5.91-3.61 5.47-7.09-0.45-3.45-3.62-5.89-7.08-5.45-2.04 0.26-3.7 1.47-4.65 3.12-1.43 0.69-2.78 1.17-4.06 1.52-1.32-0.02-2.75-0.14-4.3-0.45-1.34-1.35-3.25-2.11-5.29-1.85-2.93 0.38-5.1 2.71-5.45 5.51q1 0.38 2 0.76c0.01-2.14 1.52-4.01 3.7-4.29 2.37-0.3 4.54 1.38 4.84 3.74 0.17 1.28-0.27 2.48-1.06 3.38q0.97 0.37 1.93 0.73c0.1-0.14 0.21-0.26 0.3-0.4 1.42-0.71 2.78-1.19 4.06-1.53zm8.23-8.27c2.37-0.3 4.54 1.37 4.84 3.74 0.3 2.38-1.37 4.55-3.73 4.85-2.38 0.3-4.55-1.37-4.85-3.75-0.3-2.37 1.37-4.54 3.74-4.84z"/>
	<path class="s11" d="m416.97 550.9c-0.29-2.36-2.46-4.04-4.84-3.73-2.17 0.27-3.69 2.15-3.69 4.28q3.75 1.42 7.47 2.83c0.79-0.89 1.23-2.09 1.06-3.38z"/>
	<path class="s11" d="m431.54 553.41c2.36-0.3 4.03-2.47 3.73-4.85-0.3-2.37-2.47-4.04-4.84-3.74-2.37 0.31-4.04 2.47-3.74 4.84 0.3 2.38 2.48 4.05 4.85 3.75z"/>
	<path class="s11" d="m839.4 590.99c0 10.49 8.48 18.97 18.95 18.97 10.47 0 18.96-8.48 18.96-18.97 0-10.45-8.49-18.94-18.96-18.94-10.47 0-18.95 8.48-18.95 18.94zm29.49 0c0 5.83-4.72 10.55-10.54 10.55-5.82 0-10.53-4.72-10.53-10.55 0-5.8 4.71-10.52 10.53-10.52 5.82 0 10.54 4.71 10.54 10.52z"/>
	<path class="s9" d="m847.82 590.99c0 5.83 4.71 10.55 10.53 10.55 5.82 0 10.54-4.72 10.54-10.55 0-5.8-4.72-10.52-10.54-10.52-5.82 0-10.53 4.71-10.53 10.52z"/>
	<path class="s10" d="m794.05 607.61c0 4.08-3.31 7.39-7.38 7.39-4.09 0-7.39-3.31-7.39-7.39 0-0.15 0.04-0.29 0.04-0.44h-7.74q0.11 0.1 0.22 0.19-0.01 0.16-0.01 0.31 0 0.16 0.01 0.31c-0.67 0.55-1.54 1.36-1.54 1.89 0 0.19 0.14 0.82 0.25 1.32 0.12 0.5 0.26 1.13 0.34 1.3 0.23 0.47 1.37 0.83 2.21 1.03q0.14 0.29 0.27 0.57c-0.36 0.79-0.79 1.9-0.56 2.37 0.07 0.16 0.46 0.68 0.8 1.09 0.32 0.4 0.72 0.9 0.87 1.01 0.4 0.33 1.59 0.16 2.43-0.02q0.24 0.19 0.49 0.38c0.02 0.53 0.06 1.15 0.18 1.64 0.08 0.34 0.18 0.62 0.35 0.75 0.14 0.11 0.72 0.4 1.19 0.62 0.46 0.23 1.05 0.51 1.23 0.54 0.44 0.11 1.24-0.38 1.89-0.86q0.15-0.12 0.3-0.22 0.3 0.08 0.61 0.15c0.39 0.78 0.98 1.8 1.49 1.91 0.19 0.04 0.84 0.05 1.35 0.05 0.51 0.01 1.16-0.01 1.34-0.05 0.52-0.11 1.11-1.14 1.5-1.91q0.32-0.07 0.61-0.15c0.34 0.26 0.75 0.55 1.14 0.77 0.41 0.23 0.79 0.37 1.05 0.31 0.19-0.03 0.77-0.31 1.24-0.54 0.46-0.22 1.05-0.51 1.18-0.62 0.18-0.14 0.29-0.46 0.37-0.82 0.1-0.49 0.15-1.07 0.15-1.57q0.26-0.19 0.5-0.39c0.86 0.19 2.02 0.36 2.43 0.03 0.14-0.12 0.55-0.61 0.88-1.02 0.32-0.4 0.71-0.92 0.8-1.08 0.23-0.47-0.21-1.59-0.57-2.37q0.14-0.28 0.26-0.57c0.85-0.2 1.98-0.56 2.22-1.04 0.08-0.16 0.23-0.79 0.35-1.29 0.11-0.5 0.25-1.14 0.25-1.32 0-0.53-0.88-1.34-1.55-1.89q0.01-0.16 0.01-0.31 0-0.15-0.01-0.31 0.1-0.08 0.22-0.19h-6.31c0.01 0.15 0.04 0.29 0.04 0.44z"/>
	<path class="s11" d="m786.67 615c4.07 0 7.38-3.31 7.38-7.38 0-0.15-0.03-0.3-0.04-0.44h-14.68q-0.03 0.21-0.05 0.44c0 4.07 3.3 7.38 7.39 7.38z"/>
	<path class="s10" d="m727.91 607.61c0 4.08-3.3 7.39-7.37 7.39-4.09 0-7.39-3.31-7.39-7.39 0-0.15 0.03-0.29 0.04-0.44h-7.74q0.1 0.1 0.22 0.19-0.02 0.16-0.02 0.31 0 0.16 0.02 0.31c-0.67 0.55-1.54 1.36-1.54 1.89 0 0.19 0.14 0.82 0.25 1.32 0.11 0.5 0.26 1.13 0.34 1.3 0.23 0.47 1.37 0.83 2.21 1.03q0.13 0.29 0.27 0.57c-0.37 0.79-0.8 1.9-0.57 2.37 0.08 0.16 0.47 0.68 0.81 1.09 0.32 0.4 0.72 0.9 0.87 1.01 0.41 0.33 1.59 0.16 2.43-0.02q0.24 0.19 0.5 0.38c0 0.66 0.06 1.5 0.27 2.02q0.1 0.24 0.24 0.37c0.15 0.11 0.73 0.4 1.19 0.62q0.17 0.09 0.35 0.17c0.37 0.18 0.75 0.35 0.89 0.37 0.51 0.12 1.5-0.55 2.18-1.08q0.31 0.08 0.62 0.15c0.38 0.78 0.98 1.8 1.49 1.91 0.19 0.04 0.83 0.05 1.35 0.05q0.07 0 0.15 0c0.48 0 1.03-0.01 1.19-0.05 0.51-0.11 1.12-1.13 1.49-1.91q0.32-0.06 0.62-0.15c0.62 0.47 1.46 1.04 2 1.07q0.1 0.02 0.19 0.01 0.01 0 0.02-0.01c0.2-0.04 0.76-0.3 1.21-0.52 0.47-0.23 1.05-0.52 1.19-0.63 0.07-0.05 0.11-0.15 0.16-0.25 0.27-0.48 0.35-1.41 0.36-2.14q0.25-0.19 0.5-0.39c0.86 0.19 2.02 0.36 2.43 0.03 0.14-0.12 0.56-0.61 0.88-1.02 0.32-0.4 0.72-0.92 0.79-1.08 0.23-0.47-0.2-1.59-0.56-2.37q0.14-0.28 0.26-0.57c0.85-0.2 1.99-0.56 2.21-1.04 0.08-0.16 0.24-0.79 0.36-1.29 0.11-0.5 0.24-1.14 0.24-1.32 0-0.53-0.87-1.34-1.54-1.89q0.01-0.16 0.01-0.31 0-0.15-0.01-0.31 0.11-0.08 0.22-0.19h-6.32c0.01 0.15 0.04 0.29 0.04 0.44z"/>
	<path class="s11" d="m720.54 615c4.06 0 7.37-3.31 7.37-7.38q-0.01-0.23-0.05-0.44h-14.67q-0.03 0.21-0.04 0.44c0 4.07 3.3 7.38 7.39 7.38z"/>
	<path class="s10" d="m666.66 613.49c0.82-0.19 1.89-0.54 2.11-1.01 0.08-0.16 0.24-0.79 0.35-1.28 0.11-0.51 0.24-1.14 0.24-1.32 0-0.54-0.87-1.35-1.54-1.9q0.01-0.16 0.01-0.31 0-0.15-0.01-0.3 0.11-0.09 0.23-0.19h-1.4z"/>
	<path class="s10" d="m640.49 616.46c0.08 0.16 0.48 0.68 0.81 1.09 0.31 0.4 0.72 0.9 0.87 1.01 0.41 0.33 1.59 0.16 2.43-0.02q0.25 0.19 0.5 0.38c0 0.87 0.1 2.06 0.51 2.39 0.15 0.11 0.73 0.4 1.19 0.62 0.47 0.23 1.05 0.51 1.23 0.54 0.51 0.12 1.51-0.55 2.19-1.08q0.31 0.08 0.61 0.15 0.21 0.41 0.48 0.85c0.32 0.52 0.68 0.99 1.02 1.06 0.11 0.03 0.43 0.04 0.77 0.04q0.29 0.01 0.57 0.01c0.51 0.01 1.16-0.01 1.35-0.05 0.31-0.07 0.66-0.5 0.96-0.99q0.3-0.46 0.53-0.92 0.32-0.07 0.61-0.15c0.69 0.53 1.68 1.2 2.19 1.08 0.13-0.02 0.45-0.16 0.79-0.32q0.23-0.11 0.45-0.22c0.46-0.22 1.04-0.51 1.18-0.62 0.41-0.33 0.51-1.52 0.51-2.39q0.26-0.19 0.5-0.39c0.86 0.19 2.03 0.36 2.44 0.03 0.14-0.12 0.55-0.61 0.87-1.02 0.32-0.4 0.73-0.92 0.8-1.08 0.18-0.37-0.04-1.13-0.32-1.82l-5.86 0.02h-0.31l-3.93 0.01c-0.65 0.19-1.33 0.32-2.04 0.32-0.69 0-1.35-0.12-1.98-0.3l-11.63 0.04c-0.26 0.68-0.46 1.38-0.29 1.73z"/>
	<path class="s11" d="m656.43 614.68l-4.02 0.01c0.63 0.18 1.29 0.31 1.98 0.31 0.71 0 1.39-0.13 2.04-0.32z"/>
	<path class="s10" d="m574.35 616.46c0.09 0.16 0.48 0.68 0.81 1.09 0.31 0.4 0.73 0.9 0.87 1.01 0.41 0.33 1.58 0.16 2.43-0.02q0.25 0.19 0.5 0.38c0.01 0.87 0.1 2.06 0.51 2.39 0.15 0.11 0.73 0.4 1.19 0.62 0.41 0.21 0.88 0.42 1.12 0.5 0.03 0.01 0.09 0.04 0.12 0.04 0.5 0.12 1.5-0.55 2.18-1.08q0.3 0.09 0.61 0.15c0.18 0.36 0.4 0.76 0.64 1.11 0.28 0.41 0.58 0.75 0.86 0.81 0.18 0.04 0.84 0.05 1.34 0.05 0.51 0.01 1.17-0.01 1.34-0.05q0.05-0.02 0.09-0.05c0.44-0.18 0.91-0.92 1.26-1.6q0.08-0.13 0.14-0.26 0.33-0.07 0.62-0.16c0.7 0.53 1.68 1.21 2.2 1.09 0.17-0.04 0.77-0.31 1.23-0.54 0.46-0.22 1.04-0.51 1.19-0.62 0.41-0.33 0.5-1.52 0.51-2.39q0.26-0.19 0.5-0.39c0.85 0.18 2.01 0.36 2.43 0.03 0.14-0.12 0.56-0.62 0.88-1.03 0.32-0.4 0.72-0.9 0.79-1.07 0.16-0.32 0-0.94-0.22-1.56l-11.74 0.04c-0.17 0.01-0.33 0.06-0.49 0.06q-0.24-0.02-0.46-0.05l-13.25 0.05c-0.2 0.57-0.34 1.15-0.2 1.45z"/>
	<path class="s11" d="m588.75 614.95h-0.95c0.16 0.01 0.3 0.05 0.46 0.05 0.17 0 0.32-0.04 0.49-0.05z"/>
	<path class="s10" d="m508.22 616.46c0.08 0.16 0.48 0.68 0.8 1.09 0.32 0.4 0.72 0.9 0.88 1.01 0.4 0.33 1.58 0.16 2.42-0.02q0.25 0.19 0.5 0.38c0.01 0.87 0.11 2.06 0.52 2.39 0.03 0.02 0.12 0.07 0.18 0.1 0.24 0.14 0.63 0.35 1 0.52 0.47 0.23 1.05 0.51 1.24 0.54 0.51 0.12 1.51-0.55 2.19-1.08q0.3 0.08 0.61 0.15c0.39 0.78 0.98 1.8 1.5 1.91 0.18 0.04 0.83 0.05 1.34 0.05 0.51 0.01 1.16-0.01 1.34-0.05q0.15-0.05 0.3-0.17c0.43-0.34 0.88-1.11 1.19-1.74q0.31-0.07 0.62-0.15c0.69 0.53 1.68 1.2 2.19 1.08 0.18-0.03 0.77-0.31 1.23-0.54 0.45-0.22 1.05-0.51 1.18-0.62 0.42-0.33 0.52-1.52 0.52-2.39q0.26-0.19 0.5-0.39c0.86 0.19 2.02 0.36 2.43 0.03 0.14-0.12 0.56-0.61 0.88-1.02 0.32-0.4 0.72-0.92 0.8-1.08 0.13-0.27 0.03-0.77-0.14-1.29l-26.13 0.1c-0.14 0.49-0.22 0.94-0.09 1.19z"/>
	<path class="s9" d="m638.58 576.3l28-0.06 1.98-3.23h-176.84v3.57l144.93-0.28h-0.01z"/>
	<path class="s9" d="m666.65 607.17h141.52v-34.16h-138.14l1.46 33.79h-4.84l-0.07-30.56z"/>
	<path class="s12" d="m491.72 564.11c0 0 0.21-7.64-6.31-7.64h-50.76c0 0-4.79 0-12.96 0q5.02 1.89 9.6 3.62c2.44 0 3.83 0 3.83 0h46.52c5.98 0 5.79 6.77 5.79 6.77v1.4h-19.16c3.47 1.72 6.89 3.63 9.5 5.48h9.66v2.85l4.29-0.01c0 0 0-12.47 0-12.47z"/>
	<path class="s12" d="m392.17 564.81v-0.02q0-0.02 0-0.05l-3.18-1.41c-0.03 0.45-0.03 0.78-0.03 0.78v2.63l3.21-1.71q0-0.01 0-0.22z"/>
	<path class="s12" d="m395.28 620.07h17.15c13.72 0 22.22 0 22.22 0h50.76c3.79 0 5.28-2.57 5.88-4.73l-6.2 0.02c-0.82 0.66-1.94 1.1-3.46 1.1h-46.51c0 0-7.78 0-20.36 0h-15.71c-1.19 0-2.08-0.31-2.82-0.74l-6.72 0.02c0.68 2.07 2.2 4.33 5.77 4.33z"/>
	<path class="s9" d="m487.43 566.85c0 0 0.18-6.77-5.79-6.77h-46.52c0 0-1.39 0-3.83 0 10.39 3.92 18.46 6.95 20.62 7.76 0.4 0.14 0.64 0.24 0.64 0.24l0.14-1.05 0.74-5.3c0 0 7.49 2.87 14.83 6.53h19.16c0 0 0-1.41 0.01-1.41z"/>
	<path class="s9" d="m414.77 616.46c12.57 0 20.36 0 20.36 0h46.51c1.52 0 2.63-0.44 3.46-1.1l-88.87 0.36c0.75 0.43 1.64 0.74 2.82 0.74z"/>
	<path class="s9" d="m477.77 573.74c1.37 0.98 2.53 1.94 3.31 2.86l6.35-0.01v-2.85z"/>
	<path class="s0" d="m335.8 534.96l-11.52 29.02 11.37 4.51 8.77-22.1-4.81-2.14 1.06-2.39-5.5-2.43 6.69-15.07 5.5 2.45 1.06-2.38 4.01 1.78 5.14-12.93-11.37-4.51-6.91 17.38-35.49-15.77-3.85 8.66z"/>
	<path class="s8" d="m295.14 513.66c-0.61 0.49-2.01 1.86-3.79 3.65l7.83 3.47 0.77-1.75 3.85-8.66 1.09-2.43-9.11-4.05 0.31 1.36c-0.01 0 1.78 6.22-0.95 8.41z"/>
	<path class="s8" d="m362.95 530.89l-10.52-4.68-4.01-1.78-1.06 2.38-5.5-2.45-6.69 15.07 5.5 2.44-1.06 2.39 4.81 2.13 9.72 4.32 1.06-2.38 15.71 6.97 12.79 5.68c-2.22 3.51-3.93 7.33-5.14 11.31l10.4-5.55v-2.63c0 0 0-0.32 0.03-0.77l3.18 1.4q0-0.19 0-0.54 0-0.06 0-0.12 0-0.37 0.01-0.86 0-0.01 0-0.03 0-0.5 0.02-1.1c0.02-1.07 0.08-2.35 0.16-3.7q0.01-0.09 0.01-0.16 0.06-0.86 0.13-1.74 0.02-0.23 0.04-0.46 0.08-0.88 0.19-1.74 0.01-0.14 0.03-0.28c0.34-2.63 0.87-5.02 1.69-6.28l-18.2-8.08-14.36-6.38z"/>
	<path class="s13" d="m389.51 615.75l6.72-0.03 88.86-0.35 6.2-0.03 17.03-0.06 26.12-0.11 40.11-0.16 13.25-0.06h0.95l11.74-0.04 40.29-0.17 11.62-0.05 4.02-0.01 3.94-0.01h-3.83l-0.02-35.52-19.86-2.85-144.94 0.28-4.29 0.01-6.34 0.01c-0.79-0.92-1.95-1.88-3.32-2.86-2.6-1.86-6.03-3.76-9.5-5.48-7.35-3.66-14.84-6.53-14.84-6.53l-0.74 5.29 23.59 8.34 2.77 1.24-66.45 0.14h0.01l68.48-0.14c0 0 0.48 3.74-2.01 4.12l-57.83-2.07 94.53 20.96 104.31 1.93c0 0-0.26 3.52-6.24 4.7-5.97 1.19-101.05-0.63-101.05-0.63l-127.1-28.23-15.68-0.56 0.01-0.01-14.66 0.03-11.25 0.02-3.77-4.34h-25.05l-4.4 4.4-39.27 0.08-0.08 0.99 18.31 6.71 10.77 5.74-0.41 16.15-16.39 9.58 84.25-0.34 18.02-0.07z"/>
	<path class="s13" d="m641.97 576.3h18.7v38.36l5.86-0.02h0.13v-1.15l-0.01-6.32-0.07-30.93-28 0.06z"/>
	<path class="s13" d="m429.01 575.86l-39.02-9.67 2.18-1.16-3.21 1.71-10.41 5.54-3.64 1.94z"/>
	<path class="s13" d="m392.5 556.48q-0.07 0.88-0.13 1.74 0.06-0.86 0.13-1.74z"/>
	<path class="s13" d="m392.54 556.02q0.08-0.87 0.19-1.74-0.11 0.87-0.19 1.74z"/>
	<path class="s13" d="m392.76 554c0.18-1.39 0.41-2.72 0.72-3.85 0 0 47.95 17.69 47.95 19.04 0 1.36-13.83-4.33-26.84-5.96-6.27-0.78-14.93-2.89-22.23-4.86-0.08 1.36-0.13 2.64-0.16 3.71l49.31 14.47 30.49-1.2-19.35-6.51-0.73-1c-2.16-0.81-10.23-3.83-20.63-7.76q-4.57-1.72-9.6-3.62-1.9-0.72-3.84-1.45-0.96-0.36-1.93-0.73-3.73-1.4-7.48-2.83-1-0.38-2-0.75-4.48-1.7-8.81-3.35-0.66-0.25-1.32-0.5c-0.74-0.29-1.35 0.1-1.85 0.87-0.83 1.27-1.36 3.66-1.7 6.28z"/>
	<path class="s13" d="m383.06 576.8l-13.04 0.02z"/>
	<path class="s14" d="m300.64 590.45l-10.78-5.74-18.31-6.71-0.15 1.75 20.79 13.94 0.12 14.5-11.09 4.69-15.75 0.59-3.49 2.79 21.85-0.09 16.39-9.58z"/>
	<path class="s4" d="m215.47 565.2l51.69 44.72-1.69 3.55 15.75-0.59 11.09-4.69-0.12-14.5-20.79-13.94 0.16-1.75 0.08-0.99 3.78-42.97c2.66-2.85 10.88-11.59 15.94-16.73 1.77-1.79 3.17-3.16 3.79-3.65 2.73-2.19 0.94-8.41 0.94-8.41l-0.31-1.36-1.58-7.12-14.66-9.62 1.62-18.32-55.06 11.99zm63.08 19.35l0.46 0.3-0.68 1.45zm-1.48 8.76c3.96 0 7.18 3.22 7.18 7.18 0 3.98-3.22 7.19-7.18 7.19-3.97 0-7.18-3.22-7.18-7.19 0-3.96 3.22-7.18 7.18-7.18zm6.66-93.34c3.96 0 7.18 3.22 7.18 7.19 0 3.96-3.22 7.17-7.18 7.17-3.97 0-7.18-3.21-7.18-7.17 0-3.97 3.21-7.19 7.18-7.19z"/>
	<path class="s4" d="m265.47 613.47l-67.68-44 15.18-95.39 69.32-18.17 2.12-38.01-11.29 5.61-15.76 17.28-46.8 10.94-14.34 1.41-45.92 148.69-13.58-1.52c0 0-20.96 22.15-24.55 27.33-3.6 5.19 2.15 7.55 2.15 7.55l67.33-13.92-2.24-2.81 2.48-0.49-17.92-17.92 39.73-141.64-29.33 137.73 19.49 19.49-0.81 0.16 15.77-3.09 50.51 5.67 2.65-2.11z"/>
	<path class="s14" d="m277.06 607.68c3.96 0 7.17-3.22 7.17-7.19 0-3.96-3.21-7.18-7.17-7.18-3.97 0-7.19 3.22-7.19 7.18 0 3.98 3.22 7.19 7.19 7.19z"/>
	<path class="s14" d="m377.53 429.49c-3.97 0-7.19 3.21-7.19 7.18 0 3.97 3.22 7.18 7.19 7.18 3.96 0 7.17-3.21 7.17-7.18 0-3.97-3.21-7.18-7.17-7.18z"/>
	<path class="s14" d="m283.71 514.33c3.97 0 7.19-3.21 7.19-7.18 0-3.96-3.22-7.18-7.19-7.18-3.96 0-7.17 3.22-7.17 7.18 0 3.97 3.21 7.18 7.17 7.18z"/>
	<path class="s14" d="m452.55 568.08c0 0-0.24-0.1-0.64-0.24l0.73 1 19.35 6.51-30.48 1.2-49.31-14.47h-0.01q-0.01 0.6-0.02 1.1 0 0.02 0 0.03 0 0.49 0 0.86 0 0.06 0 0.12 0 0.35 0 0.54 0 0.03 0 0.06 0 0.01 0 0.02 0 0.21 0 0.22l-2.18 1.15 39.01 9.68-54.1-1.65h-0.01l-4.86 2.6-0.02 0.01 13.04-0.03h-0.02l29.56-0.06 66.45-0.13-2.76-1.25-23.59-8.33z"/>
	<path class="s11" d="m414.59 563.24c13.01 1.62 26.84 7.31 26.84 5.96 0-1.36-47.96-19.05-47.96-19.05-0.3 1.14-0.53 2.46-0.71 3.86q-0.02 0.14-0.03 0.28-0.11 0.86-0.19 1.74-0.03 0.23-0.04 0.45-0.08 0.89-0.13 1.74-0.01 0.08-0.02 0.16c7.31 1.96 15.97 4.07 22.24 4.86z"/>
	<path class="s2" d="m197.79 569.47l67.68 44 1.69-3.55-51.69-44.72 10.63-84.38 55.06-11.99 1.13-12.92-69.32 18.17z"/>
	<path class="s2" d="m278.54 584.55l-0.21 1.75 0.68-1.45z"/>
	<path class="s2" d="m174.37 596.14l29.32-137.73-39.73 141.63 17.93 17.93 11.16-2.18 0.81-0.16z"/>
	<path class="s11" d="m660.67 614.66v-38.36h-24.03 0.01l19.86 2.85 0.03 35.52c0 0 4.13 0 4.13-0.01z"/>
	<path class="s11" d="m383.04 576.79l0.01 0.01h0.01l-13.04 0.02 15.68 0.57 127.1 28.22c0 0 95.08 1.82 101.05 0.63 5.98-1.18 6.24-4.7 6.24-4.7l-104.31-1.92-94.52-20.96 57.82 2.07c2.49-0.38 2.01-4.12 2.01-4.12l-68.48 0.13h-0.01z"/>
	<path class="s0" d="m632.87 264.61c0 2.5-0.71 19.43 1.24 21.38 1.41 1.42 7.85 1.12 11.33 0.84l-11.07-23.71c-0.84 0.22-1.5 0.66-1.5 1.49z"/>
	<path class="s0" d="m646.93 284.68l-1.04 2.12c1.09-0.1 1.8-0.18 1.8-0.18z"/>
	<path class="s4" d="m657.84 262.57l-24.81-2.34 1.34 2.88 11.07 23.72 0.21 0.45 0.24-0.48 1.04-2.12z"/>
</svg>