<svg version="1.2" xmlns="http://www.w3.org/2000/svg" viewBox="0 0 1080 1081" width="1080" height="1081">
	<defs>
		<clipPath clipPathUnits="userSpaceOnUse" id="cp1">
			<path d="m108 250.24h868v582h-868z"/>
		</clipPath>
		<clipPath clipPathUnits="userSpaceOnUse" id="cp2">
			<path d="m941.33 770.67h34.67v61.57h-34.67z"/>
		</clipPath>
		<clipPath clipPathUnits="userSpaceOnUse" id="cp3">
			<path d="m957.33 250.24h18.67v193.76h-18.67z"/>
		</clipPath>
	</defs>
	<style>
		.s0 { fill: #d4d4d4 } 
		.s1 { fill: #3f3f41 } 
		.s2 { fill: #5f6061 } 
		.s3 { fill: #db9e00 } 
		.s4 { fill: #ffb800 } 
		.s5 { fill: #d49800 } 
		.s6 { fill: #efac00 } 
		.s7 { fill: #505152 } 
		.s8 { fill: #bf0000 } 
		.s9 { fill: #f2f2f2 } 
		.s10 { fill: #d6d6d6 } 
		.s11 { fill: #2d2d2e } 
		.s12 { fill: #ffffff } 
		.s13 { fill: #f59131 } 
		.s14 { fill: #747c7e } 
	</style>
	<g id="Clip-Path" clip-path="url(#cp1)">
		<g>
		</g>
	</g>
	<path class="s0" d="m934.45 750.6c0 7.8-157.69 14.11-352.21 14.11-194.52 0-352.2-6.31-352.2-14.11 0-7.79 157.68-14.12 352.2-14.12 194.52 0 352.21 6.33 352.21 14.12z"/>
	<path class="s1" d="m339.06 745.03c-70.55 0-127.75-57.2-127.75-127.74 0-70.57 57.2-127.77 127.75-127.77 53.16 0 98.72 32.47 117.97 78.65h10.7c-19.79-51.8-69.91-88.61-128.67-88.61-76.05 0-137.71 61.66-137.71 137.72 0 76.05 61.66 137.71 137.71 137.71 55.9 0 103.98-33.32 125.56-81.15l-11.02 0.05c-20.88 42.15-64.31 71.14-114.54 71.14z"/>
	<path class="s2" d="m728.3 460.77h3.85v-21.23h7.68v10.81h3.7v-10.81h1.52v-16.94h-11.75c0.15 7.12 0.49 13.17 0.49 13.17h-12.08v-13.17h-5.38v38.17z"/>
	<path class="s2" d="m733.79 435.77c0 0-0.33-6.05-0.49-13.17-0.14-6.79-0.13-14.56 0.49-19.01 1.06-7.66 11.5-9.91 11.5-9.91-0.22-2.25-0.38-4.56-0.38-6.44 0-2 0.94-4.96 2.12-7.93 0 0-15.95 7.52-20.12 11.38-3.6 3.35-2.12 2.3-5.2 7.88v37.2z"/>
	<path class="s3" d="m743.53 450.35h-3.7v-10.81h-7.68v21.23h130.39v-21.23h-8.36v10.81h-3.69v-10.81h-7.38v10.81h-3.68v-10.81h-7.38v10.81h-3.69v-10.81h-7.38v10.81h-3.68v-10.81h-7.38v10.81h-3.7v-10.81h-7.37v10.81h-3.69v-10.81h-7.37v10.81h-3.69v-10.81h-7.37v10.81h-3.7v-10.81h-7.37v10.81h-3.69v-10.81h-7.38v10.81h-3.68v-10.81h-7.38z"/>
	<path class="s4" d="m912.14 516.85l7.74-0.3-49.46-50.83 1.75 1.81-0.01 64.25h0.01c-0.01 0.96-0.05 4.82-1.34 8.8-0.34 1.1-0.86 2.28-1.54 3.41 1.23 3.78 1.58 9.32 1.64 13.73 1.22 0.95 2.45 1.8 3.6 2.8 6.17-1.34 14.74-2.59 17.73-0.2 1.06 0.83 4.04 4.5 6.37 7.44 2.32 2.9 5.27 6.66 5.83 7.88 1.69 3.44-1.5 11.53-4.15 17.24q0.63 1.27 1.23 2.55l18.64-0.07 1.17-43.27h-5.24z"/>
	<path class="s4" d="m647.02 544v52.34l68.07-0.24q0.73-1.62 1.56-3.21c-2.69-5.71-5.84-13.8-4.17-17.27 0.58-1.2 3.49-4.95 5.81-7.86 2.34-2.93 5.34-6.58 6.4-7.43 2.99-2.4 11.54-1.15 17.71 0.2 1.16-1 2.4-1.86 3.59-2.8 0.05-2.62 0.2-5.64 0.56-8.46h-12.31c-6.05 0.01-9.25-4.84-10.41-8.68-1.3-3.98-1.34-7.84-1.35-8.8 0-0.22 0.01-0.37 0.01-0.16v-70.85h-11.33l-0.6-69.6-111.63-22.23-5.56 8.07-3.96 6.62 4.19-8.51 1.43-2.89-26.29-2.46 1.43 3.05 11.72 25.12q-0.52 0.04-1.1 0.08l-52.05 86.91-23.64-3.28 0.37-2.43-3.3-0.31-24.9 51.68q0.01 0 0.02-0.01l-3.8 7.9h71.28l-6.26 5.52c0 0 108.51 0 108.51-0.01zm-38.61-164.45l95.93 20.34-2.2 80.57h-153.51zm-24.94 16.11l0.81 2.06c0 0-0.76 0.08-1.91 0.18zm-39.22 137.84l2.72-46.75h154.99l-1.2 46.81z"/>
	<path class="s4" d="m732.15 460.77h-3.85v71.01h0.01c-0.01 0.63 0.08 4.07 1.05 6.97 1.12 3.04 2.35 4.69 4.9 4.7h13.57c0.5-1.39 1.13-2.51 1.94-3.15 1.05-0.85 5.28-2.93 8.67-4.53 3.38-1.67 7.66-3.63 8.97-3.95 3.76-0.85 10.98 4.03 15.97 7.9 1.48-0.36 2.95-0.82 4.45-1.12 1.18-2.4 2.62-5.05 4.2-7.45 2.14-3.27 4.5-5.98 6.66-6.48 0.22-0.06 0.58-0.09 0.98-0.13 1.94-0.2 5.71-0.22 8.8-0.2 3.74-0.02 8.48 0.03 9.79 0.33 3.73 0.86 8.07 8.28 10.87 13.93 1.53 0.3 2.97 0.76 4.45 1.12 5-3.87 12.22-8.75 15.98-7.9 1.29 0.29 5.59 2.28 8.95 3.91 2.23 1.09 4.84 2.36 6.66 3.35 0.04-0.12 0.1-0.2 0.14-0.32 0.97-2.91 1.07-6.35 1.05-6.97 0-0.22 0.02-0.38 0.02-0.16v-70.06l-0.77-0.8z"/>
	<path class="s4" d="m339.06 489.52c-70.55 0-127.75 57.2-127.75 127.77 0 70.54 57.2 127.74 127.75 127.74 50.23 0 93.66-28.99 114.54-71.14l-47.27 0.22q-4.86 5.74-10.61 10.58c2.5 3.75 4.93 7.39 7.16 10.77 5.25 7.92-8.28 18.19-14.11 9.61-2.22-3.28-4.63-6.85-7.21-10.64-12.61 6.96-27.09 10.93-42.5 10.93-17.71 0-34.19-5.25-48-14.25-2.76 3.39-5.45 6.68-7.96 9.73-6.01 7.34-19.82-2.55-13.33-10.66 2.42-3.01 5.07-6.31 7.87-9.8-16.43-16-26.65-38.35-26.65-63.09 0-27.24 12.37-51.58 31.79-67.73-2.62-3.82-5.08-7.41-7.33-10.69-5.87-8.56 8.63-17.41 14.09-9.61 2.33 3.33 4.85 6.93 7.44 10.65 12.5-6.82 26.84-10.69 42.08-10.69 17.66 0 34.1 5.22 47.88 14.17 2.97-3.74 5.75-7.24 8.29-10.45 6.46-8.12 19.18 3.13 13.33 10.64-2.55 3.3-5.33 6.85-8.19 10.51 4.41 4.27 8.37 8.98 11.81 14.09h44.85c-19.25-46.19-64.81-78.66-117.97-78.66z"/>
	<path class="s5" d="m250.99 617.29c0 24.74 10.23 47.09 26.66 63.09 9.29-11.59 20.45-25.56 32.31-40.43v-45.91l2.64-0.82c-10.94-16.05-21.25-31.15-29.82-43.66-19.42 16.15-31.79 40.49-31.79 67.73z"/>
	<path class="s5" d="m339.06 529.22c-15.24 0-29.57 3.87-42.08 10.69 9.81 14.07 21.21 30.61 33.02 47.87l28.77-9.01c10.31-12.93 19.97-25.07 28.17-35.38-13.78-8.95-30.22-14.17-47.88-14.17z"/>
	<path class="s5" d="m406.33 674.11l-13.69 0.06-4.72-1.13q4.07 6.05 7.8 11.65 5.76-4.84 10.61-10.58z"/>
	<path class="s5" d="m400.38 554.09q-5.73 7.34-12.12 15.46l4.38-1.38h19.55c-3.44-5.1-7.41-9.81-11.81-14.08z"/>
	<path class="s5" d="m339.06 705.35c15.41 0 29.9-3.96 42.5-10.92-5.55-8.2-11.87-17.48-18.63-27.41l-43.87-10.57c-10.01 12.47-19.55 24.28-28 34.66 13.81 9 30.29 14.24 48 14.24z"/>
	<path class="s6" d="m388.77 705.06c5.83 8.59 19.36-1.68 14.11-9.61-2.23-3.38-4.66-7.02-7.15-10.76q-3.74-5.6-7.8-11.66l-25-6.02c6.77 9.93 13.09 19.22 18.64 27.41 2.57 3.8 4.98 7.37 7.2 10.64z"/>
	<path class="s6" d="m269.77 690.18c-6.48 8.1 7.32 18 13.34 10.65 2.5-3.04 5.19-6.34 7.95-9.73 8.46-10.37 17.99-22.18 28.01-34.66l-9.11-2.19v-14.3c-11.86 14.87-23.02 28.84-32.31 40.43-2.8 3.48-5.45 6.78-7.88 9.8z"/>
	<path class="s6" d="m289.54 529.25c-5.45-7.79-19.96 1.06-14.09 9.61 2.26 3.29 4.72 6.88 7.33 10.7 8.57 12.51 18.88 27.61 29.82 43.66l17.4-5.45c-11.81-17.25-23.2-33.79-33.01-47.87-2.59-3.71-5.11-7.32-7.45-10.65z"/>
	<path class="s6" d="m408.57 543.58c5.85-7.51-6.88-18.76-13.34-10.64-2.54 3.21-5.31 6.71-8.28 10.45-8.19 10.31-17.87 22.45-28.17 35.39l29.48-9.23q6.39-8.11 12.13-15.46c2.85-3.66 5.63-7.22 8.18-10.51z"/>
	<path class="s7" d="m698.55 674.79c-0.57-1.2-1.68-5.83-2.51-9.47-0.84-3.65-1.83-8.29-1.83-9.61 0-3.86 6.36-9.78 11.24-13.8-0.01-0.76-0.11-1.5-0.11-2.23 0-0.79 0.1-1.53 0.11-2.3-2.43-1.99-5.24-4.47-7.43-6.92h-88.66v27.2h-34.94v-27.2h-30.11v38.6l80.99 16.59h90.98q-0.84-1.64-1.62-3.36c-6.15-1.46-14.45-4.06-16.11-7.5z"/>
	<path class="s8" d="m931.4 520.56c-0.15-0.02-0.3 0.05-0.45 0.08l-3.59 27.43q0.44 0.38 0.95 0.45c2.53 0.28 5.27-5.75 6.13-13.48 0.85-7.72-0.5-14.21-3.04-14.48z"/>
	<path class="s2" d="m931.55 516.11l-11.67 0.44-7.74 0.3 3.98 35.24h10.72l0.52-4.02 3.59-27.43z"/>
	<path class="s3" d="m704.34 399.9l-95.93-20.34-59.79 100.91h153.52zm-47.84 74.01h-92.61c0 0 2.23-3.82 5.71-9.83 0.67-1.16 1.36-2.36 2.12-3.67 13.53-23.43 39.88-69.46 39.88-72.6l30.03 5.65 14.87 2.8c0 0 0 77.65 0 77.65zm40.7 0h-29.02v-76.81l29.02 4.23z"/>
	<path class="s9" d="m639.43 394.18l2.21-0.73-30.03-5.64c0 3.14-26.35 49.17-39.89 72.6h67.71c0 0 0-66.23 0-66.23z"/>
	<path class="s9" d="m563.9 473.91c0 0 2.24-3.83 5.71-9.84-3.48 6.02-5.71 9.84-5.71 9.84z"/>
	<path class="s10" d="m682.94 401.32v72.59h14.27v-72.59l-29.02-4.22z"/>
	<path class="s9" d="m668.19 397.1v76.81h14.75v-72.59z"/>
	<path class="s0" d="m641.64 393.45l-2.21 0.73v66.23h-67.71q-1.12 1.95-2.11 3.66c-3.47 6.01-5.71 9.84-5.71 9.84h92.61v-77.65z"/>
	<path class="s3" d="m729.36 538.75c-0.97-2.9-1.07-6.34-1.05-6.97h-0.02l0.01-71.01h-5.81v70.86c0-0.22-0.01-0.06-0.01 0.16 0.01 0.95 0.05 4.81 1.35 8.79 1.16 3.85 4.36 8.7 10.42 8.69h12.3c0.28-2.16 0.68-4.19 1.27-5.82h-13.57c-2.54-0.01-3.77-1.66-4.89-4.7z"/>
	<path class="s3" d="m866.36 531.78c0.01 0.63-0.08 4.07-1.05 6.97-0.04 0.13-0.1 0.21-0.14 0.32 0.92 0.5 1.66 0.94 2.02 1.23 0.91 0.73 1.58 2.06 2.11 3.69 0.68-1.13 1.21-2.31 1.54-3.41 1.29-3.98 1.33-7.84 1.34-8.8h-0.01l0.01-64.25-1.75-1.81-4.04-4.15-0.01 70.06c-0.01-0.22-0.02-0.06-0.02 0.15z"/>
	<path class="s3" d="m701.96 486.74h-154.98l-2.72 46.75 156.51 0.07zm-13.24 15.87h-25.58c0 0-0.88-0.88-0.88-4.34 0-3.47 3.03-3.03 3.03-3.03 0 0 16.06 0 20.39 0 4.32 0 3.04 7.37 3.04 7.37z"/>
	<path class="s4" d="m685.69 495.24c-4.33 0-20.4 0-20.4 0 0 0-3.02-0.43-3.02 3.04 0 3.46 0.87 4.33 0.87 4.33h25.58c0 0 1.29-7.37-3.03-7.37z"/>
	<path class="s2" d="m473.49 538.48l3.8-7.89q-0.01 0-0.02 0c-0.29 0.06-14.07 2.76-14.07 6.93 0 4.21 5.37 14.55 5.37 14.55l58.59 1.92 11.35-9.99 6.26-5.52z"/>
	<path class="s9" d="m528.74 484.93l52.05-86.91c-3.81 0.25-9.55 0.39-10.9-0.97-1.47-1.47-1.51-10.99-1.42-17.31-12.92 17.65-61.39 88.77-61.39 88.77l-1.61 10.71-0.37 2.43z"/>
	<path class="s9" d="m589.41 383.63l3.96-6.62 1.05-1.75q-0.01-0.01-0.82-0.14z"/>
	<path class="s0" d="m583.47 395.66l-1.1 2.24c1.16-0.1 1.91-0.18 1.91-0.18z"/>
	<path class="s0" d="m569.89 397.05c1.35 1.36 7.09 1.22 10.9 0.97q0.58-0.04 1.1-0.08l-11.72-25.12c-0.9 0.24-1.6 0.7-1.6 1.6 0 0.75-0.05 2.79-0.1 5.32-0.09 6.32-0.05 15.84 1.42 17.31z"/>
	<path class="s1" d="m904.47 575.64c-0.56-1.22-3.51-4.97-5.83-7.88-2.34-2.93-5.31-6.61-6.37-7.44-2.99-2.39-11.56-1.14-17.73 0.2-1.15-1-2.38-1.85-3.6-2.79-0.06-4.42-0.41-9.96-1.64-13.74-0.53-1.63-1.2-2.96-2.11-3.69-0.36-0.28-1.09-0.72-2.02-1.22-1.82-0.99-4.43-2.26-6.66-3.35-3.36-1.63-7.66-3.62-8.95-3.91-3.76-0.85-10.98 4.03-15.98 7.9-1.48-0.36-2.92-0.82-4.45-1.12-2.81-5.65-7.14-13.07-10.87-13.93-1.3-0.3-6.05-0.35-9.79-0.33-3.1-0.02-6.86 0-8.8 0.2-0.4 0.04-0.76 0.07-0.98 0.13-2.16 0.51-4.52 3.21-6.66 6.48-1.58 2.4-3.02 5.05-4.2 7.45-1.5 0.3-2.97 0.76-4.46 1.12-4.98-3.87-12.2-8.75-15.96-7.9-1.31 0.32-5.59 2.28-8.97 3.95-3.39 1.6-7.62 3.68-8.67 4.53-0.81 0.65-1.44 1.77-1.94 3.15-0.6 1.63-1 3.65-1.27 5.82-0.36 2.82-0.51 5.83-0.55 8.46-1.2 0.94-2.44 1.79-3.6 2.79-6.18-1.34-14.73-2.59-17.71-0.2-1.06 0.86-4.06 4.51-6.4 7.44-2.32 2.91-5.23 6.65-5.81 7.86-1.67 3.47 1.48 11.55 4.17 17.26q-0.83 1.6-1.56 3.21-0.21 0.44-0.43 0.88c-6.15 1.53-14.43 4.11-16.11 7.58-0.57 1.21-1.67 5.78-2.51 9.42-0.86 3.67-1.83 8.29-1.84 9.63 0 1.93 1.6 4.39 3.82 6.86 2.19 2.45 4.99 4.93 7.43 6.92-0.01 0.77-0.11 1.52-0.11 2.3 0 0.73 0.1 1.47 0.11 2.23-4.88 4.01-11.24 9.94-11.24 13.8 0 1.32 0.99 5.96 1.83 9.61 0.83 3.64 1.94 8.27 2.51 9.47 1.66 3.44 9.96 6.04 16.11 7.5q0.77 1.71 1.62 3.36 0.19 0.38 0.37 0.76c-2.69 5.74-5.83 13.81-4.17 17.28 0.58 1.21 3.5 4.96 5.84 7.88 2.31 2.94 5.31 6.59 6.37 7.41 2.99 2.37 11.54 1.15 17.71-0.18 1.16 0.96 2.4 1.87 3.61 2.78 0.09 6.35 0.75 15 3.76 17.4 1.05 0.85 5.29 2.93 8.68 4.59 3.36 1.61 7.64 3.63 8.95 3.92 3.76 0.87 10.98-4.03 15.97-7.93 1.48 0.39 2.95 0.83 4.46 1.15 2.8 5.63 7.13 13.07 10.86 13.9 1.31 0.31 6.03 0.38 9.78 0.38 3.76 0 8.48-0.07 9.79-0.38 3.72-0.83 8.06-8.27 10.87-13.9 1.52-0.32 2.96-0.76 4.45-1.15 5.01 3.91 12.21 8.78 15.97 7.93 1.28-0.29 5.59-2.33 8.96-3.92 3.38-1.66 7.62-3.74 8.67-4.59 3.02-2.4 3.66-11.08 3.76-17.4 1.21-0.94 2.45-1.82 3.62-2.8 6.15 1.35 14.71 2.58 17.71 0.18 1.05-0.8 4.03-4.48 6.37-7.41 2.36-2.9 5.27-6.65 5.84-7.86 1.67-3.47-1.5-11.54-4.16-17.28q1.01-2.01 1.96-4.12c6.16-1.46 14.43-4.06 16.11-7.5 0.57-1.2 1.67-5.83 2.52-9.49 0.84-3.63 1.84-8.24 1.84-9.59 0-3.85-6.4-9.8-11.25-13.8 0.01-0.77 0.09-1.51 0.09-2.23 0-0.78-0.08-1.52-0.09-2.3 4.85-4 11.25-9.93 11.22-13.78 0.03-1.33-0.97-5.97-1.81-9.63-0.84-3.64-1.94-8.21-2.51-9.42-1.69-3.47-9.96-6.07-16.11-7.57q-0.37-0.78-0.74-1.55-0.6-1.28-1.23-2.54c2.64-5.72 5.82-13.8 4.14-17.25zm-31.94 64.04c0 35.32-28.7 64.01-64.07 64.01-35.36 0-64.04-28.69-64.04-64.01 0-35.4 28.68-64.07 64.04-64.07 35.37 0.01 64.07 28.67 64.07 64.07z"/>
	<path class="s11" d="m760.02 639.68c0.06 26.73 21.67 48.38 48.45 48.42 26.75-0.04 48.41-21.72 48.45-48.42-0.04-26.78-21.7-48.41-48.45-48.48-26.78 0.07-48.39 21.7-48.45 48.48zm77.98-0.02c0 16.31-13.22 29.53-29.54 29.53-16.3 0-29.53-13.22-29.53-29.53 0-16.34 13.23-29.54 29.53-29.54 16.32 0 29.54 13.2 29.54 29.54z"/>
	<path class="s11" d="m808.46 575.62c-35.36 0-64.04 28.66-64.04 64.06 0 35.32 28.68 64.01 64.04 64.01 35.37 0 64.07-28.69 64.07-64.01 0-35.4-28.7-64.06-64.07-64.06zm53.15 64.06c0 29.33-23.79 53.1-53.15 53.1-29.34 0-53.13-23.77-53.13-53.1 0-29.38 23.79-53.13 53.13-53.16 29.36 0.03 53.15 23.78 53.15 53.16z"/>
	<path class="s12" d="m755.33 639.68c0 29.33 23.79 53.1 53.13 53.1 29.36 0 53.15-23.77 53.15-53.1 0-29.38-23.79-53.13-53.15-53.16-29.34 0.03-53.13 23.78-53.13 53.16zm101.59 0c-0.05 26.7-21.7 48.38-48.46 48.42-26.77-0.04-48.38-21.69-48.45-48.42 0.07-26.78 21.68-48.41 48.45-48.48 26.76 0.07 48.41 21.7 48.46 48.48z"/>
	<path class="s13" d="m778.93 639.66c0 16.31 13.23 29.53 29.54 29.53 16.31 0 29.53-13.22 29.53-29.53 0-16.34-13.22-29.54-29.53-29.54-16.31 0-29.54 13.2-29.54 29.54zm54.11 0.02c-0.01 13.54-10.99 24.53-24.58 24.53-13.57 0-24.55-10.99-24.55-24.53 0-13.6 10.98-24.59 24.55-24.61 13.59 0.02 24.57 11.01 24.58 24.61z"/>
	<path class="s13" d="m786.09 639.68c0.01 12.35 9.99 22.36 22.37 22.38 12.39-0.02 22.37-10.04 22.41-22.38-0.04-12.41-10.02-22.39-22.41-22.41-12.38 0.02-22.36 10-22.37 22.41zm8.94-2.89c-0.28 0.89-1.23 1.36-2.1 1.1-0.89-0.32-1.37-1.26-1.09-2.13 0.29-0.87 1.23-1.37 2.13-1.05 0.86 0.26 1.35 1.23 1.06 2.08zm5.51 18.13c-0.57 0.77-1.6 0.95-2.34 0.38-0.74-0.54-0.91-1.59-0.36-2.33 0.53-0.76 1.57-0.94 2.33-0.37 0.75 0.54 0.91 1.58 0.37 2.32zm7.92-5.32c-5.47 0-9.94-4.46-9.94-9.94 0-5.49 4.47-9.95 9.94-9.95 5.5 0 9.97 4.46 9.97 9.95 0 5.48-4.47 9.94-9.97 9.94zm10.27 5.7c-0.72 0.57-1.78 0.39-2.31-0.38-0.56-0.74-0.39-1.78 0.36-2.32 0.75-0.57 1.8-0.38 2.33 0.38 0.56 0.73 0.4 1.78-0.38 2.32zm4.25-20.59c0.89-0.32 1.82 0.18 2.12 1.05 0.28 0.87-0.2 1.81-1.07 2.13-0.9 0.27-1.82-0.2-2.11-1.1-0.27-0.85 0.19-1.82 1.06-2.08zm-12.84-9.37c0 0.94-0.77 1.69-1.68 1.69-0.92 0-1.65-0.75-1.65-1.69 0-0.91 0.73-1.66 1.65-1.66 0.91 0 1.68 0.75 1.68 1.66z"/>
	<path class="s1" d="m808.46 629.71c-5.47 0-9.94 4.46-9.94 9.95 0 5.48 4.47 9.94 9.94 9.94 5.5 0 9.97-4.46 9.97-9.94 0-5.49-4.47-9.95-9.97-9.95zm0 14.7c-1.59 0-3.01-0.79-3.88-2.02 0.79 0.55 1.75 0.9 2.76 0.9 2.62 0 4.75-2.15 4.75-4.75 0-1.06-0.32-1.98-0.87-2.78 1.21 0.87 2.02 2.28 2.02 3.9 0 2.61-2.13 4.75-4.78 4.75z"/>
	<path class="s14" d="m811.22 635.76c0.55 0.8 0.87 1.72 0.87 2.78 0 2.6-2.12 4.75-4.75 4.75-1.01 0-1.97-0.35-2.76-0.9 0.87 1.23 2.29 2.02 3.88 2.02 2.65 0 4.77-2.14 4.77-4.75 0.01-1.62-0.8-3.03-2.01-3.9z"/>
	<path class="s1" d="m824.03 637.89c0.87-0.32 1.35-1.26 1.07-2.13-0.3-0.87-1.23-1.37-2.12-1.05-0.87 0.25-1.34 1.23-1.07 2.07 0.29 0.9 1.22 1.38 2.12 1.11zm0.57-2.18l0.14 0.36-2.35 0.76-0.11-0.36z"/>
	<path class="s14" d="m822.25 636.48l2.3-0.87 0.14 0.35-2.3 0.88z"/>
	<path class="s1" d="m816.78 652.6c-0.75 0.54-0.92 1.58-0.36 2.32 0.53 0.76 1.58 0.95 2.31 0.38 0.78-0.54 0.94-1.59 0.38-2.33-0.53-0.76-1.58-0.94-2.33-0.37zm1.55 2.44l-1.43-1.97 0.3-0.21 1.44 1.98z"/>
	<path class="s14" d="m816.9 653.07l1.43 1.97 0.31-0.2-1.44-1.98z"/>
	<path class="s1" d="m797.84 652.97c-0.55 0.74-0.38 1.79 0.36 2.33 0.74 0.57 1.77 0.39 2.34-0.38 0.54-0.74 0.38-1.78-0.37-2.32-0.76-0.57-1.8-0.39-2.33 0.37zm0.78 2.07l-0.31-0.2 1.45-1.98 0.3 0.21z"/>
	<path class="s14" d="m798.31 654.84l0.32 0.2 1.43-1.97-0.3-0.21z"/>
	<path class="s1" d="m793.97 634.71c-0.89-0.32-1.84 0.18-2.13 1.05-0.28 0.87 0.2 1.81 1.09 2.13 0.87 0.27 1.82-0.2 2.1-1.1 0.29-0.85-0.2-1.82-1.06-2.08zm0.6 2.12l-2.37-0.76 0.13-0.36 2.34 0.77z"/>
	<path class="s14" d="m792.2 636.07l2.37 0.76 0.1-0.35-2.34-0.77z"/>
	<path class="s1" d="m806.81 625.34c0 0.94 0.74 1.69 1.66 1.69 0.91 0 1.67-0.75 1.67-1.69 0-0.91-0.76-1.66-1.67-1.66-0.92 0-1.66 0.75-1.66 1.66z"/>
	<path class="s1" d="m783.92 639.68c0 13.54 10.98 24.53 24.55 24.53 13.58 0 24.56-10.99 24.57-24.53-0.01-13.6-10.99-24.59-24.57-24.61-13.57 0.02-24.55 11.01-24.55 24.61zm46.96 0c-0.04 12.33-10.03 22.36-22.41 22.38-12.39-0.02-22.37-10.03-22.38-22.38 0.01-12.41 9.99-22.39 22.38-22.41 12.38 0.02 22.36 10 22.41 22.41z"/>
	<path class="s7" d="m627.76 594.04l-18.4-5.75v36.84h18.4z"/>
	<path class="s7" d="m545.08 568.17h-152.44l-4.38 1.38-29.49 9.22-28.77 9.01-17.4 5.44-2.64 0.83v60.2l9.11 2.2 43.86 10.57 25 6.02 4.71 1.13 13.7-0.06 47.26-0.22 11.03-0.05 73.89-0.33v-48.38h35.91v-47.77zm-205.85 75.63c-12.49 0-22.63-10.13-22.63-22.63 0-12.51 10.14-22.63 22.63-22.63 12.5 0 22.63 10.13 22.63 22.63 0 12.5-10.13 22.63-22.63 22.63z"/>
	<path class="s7" d="m609.36 657.66v-97.89h-34.94v97.89z"/>
	<path class="s3" d="m615.21 559.77v-15.77h-46.63v15.77z"/>
	<path class="s14" d="m339.23 598.55c-12.49 0-22.63 10.12-22.63 22.62 0 12.5 10.14 22.63 22.63 22.63 12.5 0 22.63-10.13 22.63-22.63 0-12.5-10.13-22.62-22.63-22.62zm0 35.29c-7 0-12.66-5.67-12.66-12.67 0-6.99 5.66-12.66 12.66-12.66 7 0 12.67 5.67 12.67 12.66 0 7-5.67 12.67-12.67 12.67z"/>
	<path class="s7" d="m339.23 608.51c-7 0-12.66 5.67-12.66 12.66 0 7 5.66 12.67 12.66 12.67 7 0 12.67-5.67 12.67-12.67 0-6.99-5.67-12.66-12.67-12.66z"/>
	<g id="Clip-Path" clip-path="url(#cp2)">
		<g>
			<path class="s4" d="m1083.97 949.89l-61.94-40.26 13.89-87.3 63.44-16.62 1.94-34.79-10.33 5.14-14.42 15.8-42.83 10.02-13.12 1.29-42.02 136.07-12.43-1.4c0 0-19.19 20.27-22.47 25.01-3.28 4.75 1.98 6.92 1.98 6.92l61.6-12.75-2.04-2.57 2.27-0.44-16.41-16.41 36.36-129.61-26.84 126.04 17.84 17.83-0.74 0.15 14.43-2.82 46.22 5.19 2.42-1.94z"/>
		</g>
	</g>
	<g id="Clip-Path" clip-path="url(#cp3)">
		<g>
			<path class="s2" d="m1217.41 414.01c-0.4-0.83-1.18-4.06-1.75-6.6-0.59-2.55-1.28-5.79-1.28-6.7 0-2.41 3.55-5.97 6.74-8.7v-5c-3.19-2.73-6.75-6.28-6.75-8.69 0.02-0.93 0.69-4.16 1.29-6.72 0.58-2.54 1.35-5.73 1.75-6.56 0.51-1.07 1.94-2 3.71-2.82v-88.58l-9.45-1.66-0.4 2.26-4.37-0.77c-1.76 1.2-3.89 1.91-6.19 1.91-6.09 0-11.02-4.94-11.02-11.02 0-6.09 4.93-11.03 11.02-11.03 3.68 0 6.92 1.83 8.92 4.6l4.37 0.77-0.28 1.57 7.4 1.3v-23.27h41.48v-10.11h-41.48v-155.28h49.34v-22.75h-60.11v-16.98h-46.92v39.73h4.01v197.41h-12.21v-39.53h-20.62v190.96l-176.39 21.21h197.01v-69.59h12.21v66.6h53.68v-23.16c-1.78-0.81-3.21-1.74-3.71-2.8zm28.26-356.81c2.6 0 4.7 2.11 4.7 4.71 0 2.6-2.1 4.7-4.7 4.7-2.6 0-4.7-2.1-4.7-4.7 0-2.6 2.1-4.71 4.7-4.71zm-78.23 303.86h-12.21v-78.41h12.21z"/>
		</g>
	</g>
</svg>