<svg version="1.2" xmlns="http://www.w3.org/2000/svg" viewBox="0 0 1080 1081" width="1080" height="1081">
	<defs>
		<clipPath clipPathUnits="userSpaceOnUse" id="cp1">
			<path d="m271.98 156.83h667v769h-667z"/>
		</clipPath>
		<clipPath clipPathUnits="userSpaceOnUse" id="cp2">
			<path d="m271.98 308h232.02v462.67h-232.02z"/>
		</clipPath>
		<clipPath clipPathUnits="userSpaceOnUse" id="cp3">
			<path d="m141.43 646.83h231v248h-231z"/>
		</clipPath>
		<clipPath clipPathUnits="userSpaceOnUse" id="cp4">
			<path d="m273.33 781.33h99.1v33.34h-99.1z"/>
		</clipPath>
		<clipPath clipPathUnits="userSpaceOnUse" id="cp5">
			<path d="m144 646.83h228.43v122.5h-228.43z"/>
		</clipPath>
	</defs>
	<style>
		.s0 { fill: #d4d4d4 } 
		.s1 { fill: #bf0000 } 
		.s2 { fill: #5f6061 } 
		.s3 { fill: #3b3c3d } 
		.s4 { fill: #ffb800 } 
		.s5 { fill: #db9e00 } 
		.s6 { fill: #f2f2f2 } 
		.s7 { fill: #d6d6d6 } 
		.s8 { fill: #3f3f41 } 
		.s9 { fill: #2d2d2e } 
		.s10 { fill: #ffffff } 
		.s11 { fill: #f59131 } 
		.s12 { fill: #747c7e } 
		.s13 { fill: #806417 } 
	</style>
	<g id="Clip-Path" clip-path="url(#cp1)">
		<g>
		</g>
	</g>
	<path class="s0" d="m926.91 799.28c0 8.77-145.56 15.89-325.12 15.89-179.55 0-325.11-7.12-325.11-15.89 0-8.77 145.56-15.89 325.11-15.89 179.56 0 325.12 7.11 325.12 15.89z"/>
	<path class="s1" d="m746.01 486.24c2.14 0.29 4.47-5.89 5.2-13.8 0.72-7.91-0.43-14.55-2.58-14.84-0.13-0.01-0.25 0.07-0.38 0.09l-3.05 28.09q0.38 0.39 0.81 0.46z"/>
	<path class="s2" d="m744.76 489.9l0.44-4.12 3.05-28.08 0.5-4.64-8.73 0.4v36.44z"/>
	<path class="s0" d="m467.58 358.86h14.36v56.61h-14.36z"/>
	<path class="s3" d="m462.35 415.47h-2.15v6.21h2.15v106.99h24.82v-106.99h2.15v-6.21z"/>
	<path class="s3" d="m465.09 353.84v5.02h19.34v-5.02z"/>
	<g id="Clip-Path" clip-path="url(#cp2)">
		<g>
			<path class="s2" d="m442.96 737.88c-0.44-0.94-1.31-4.57-1.97-7.44-0.65-2.87-1.43-6.51-1.43-7.54 0-2.71 4-6.72 7.59-9.8v-5.63c-3.6-3.06-7.6-7.06-7.6-9.77 0.01-1.05 0.78-4.68 1.44-7.56 0.67-2.87 1.53-6.46 1.97-7.4 0.59-1.2 2.19-2.25 4.19-3.17v-99.74l-10.64-1.87-0.45 2.55-4.92-0.86c-1.99 1.34-4.38 2.14-6.97 2.14-6.85 0-12.41-5.56-12.41-12.4 0-6.86 5.56-12.42 12.41-12.42 4.14 0 7.79 2.06 10.04 5.18l4.93 0.86-0.32 1.77 8.33 1.46v-26.19h46.7v-11.39h-46.69v-174.83h55.54v-25.62h-67.67v-19.11h-52.84v44.73h4.51v222.26h-13.74v-44.51h-23.22v215.01l-198.58 23.88h221.8v-78.35h13.74v74.99h60.45v-26.08c-2-0.91-3.61-1.96-4.19-3.15zm31.83-401.73c2.92 0 5.3 2.37 5.3 5.29 0 2.92-2.38 5.3-5.3 5.3-2.92 0-5.3-2.38-5.3-5.3 0-2.92 2.38-5.29 5.3-5.29zm-88.09 342.11h-13.74v-88.29h13.74z"/>
		</g>
	</g>
	<path class="s4" d="m786.85 744.91c0-0.37-0.05-0.73-0.05-1.1 0-0.39 0.05-0.75 0.05-1.14-2.41-1.98-5.56-4.9-5.56-6.81 0.01-0.66 0.49-2.95 0.9-4.76 0.43-1.8 0.98-4.07 1.25-4.66 0.84-1.73 4.92-2.99 7.97-3.75q0.45-1.01 0.98-2.02c-1.32-2.83-2.88-6.83-2.06-8.54 0.28-0.59 1.73-2.45 2.87-3.89 1.16-1.45 2.64-3.26 3.17-3.67 1.48-1.19 5.71-0.56 8.76 0.09 0.57-0.5 1.18-0.92 1.78-1.38 0.05-3.12 0.37-7.43 1.86-8.61 0.52-0.44 2.61-1.46 4.28-2.25 1.68-0.83 3.79-1.8 4.44-1.95 1.86-0.42 5.44 1.99 7.9 3.91 0.73-0.18 1.46-0.41 2.2-0.56 0.58-1.18 1.3-2.5 2.07-3.68 1.07-1.63 2.23-2.95 3.3-3.21q0.17-0.03 0.49-0.06c0.95-0.09 2.81-0.11 4.35-0.09 1.85-0.02 4.19 0 4.84 0.16 1.84 0.42 3.98 4.09 5.37 6.89 0.76 0.14 1.47 0.38 2.2 0.56 2.47-1.92 6.05-4.33 7.9-3.92 0.65 0.15 2.76 1.13 4.43 1.94 1.67 0.8 3.77 1.83 4.29 2.26 1.49 1.19 1.81 5.5 1.86 8.62 0.6 0.47 1.21 0.88 1.77 1.38 3.06-0.66 7.3-1.28 8.77-0.1 0.53 0.41 2 2.23 3.16 3.68 1.15 1.44 2.6 3.3 2.88 3.9 0.83 1.7-0.73 5.69-2.05 8.53q0.5 1 0.97 2.01c3.04 0.74 7.14 2.03 7.97 3.75 0.28 0.6 0.82 2.86 1.24 4.66 0.41 1.81 0.91 4.11 0.9 4.76 0.01 1.91-3.15 4.84-5.55 6.82 0 0.39 0.05 0.75 0.05 1.13q0 0.17-0.02 0.35h29.78l0.06-3.21 2.17-97.43-0.05 2.08h-160.7c-7.85 0-12-4.66-13.51-8.37-1.68-3.83-1.73-7.55-1.75-8.48 0-0.21 0.02-0.36 0.02-0.15v-48.71h-11.7l-0.61-121.68-115.07-22.91-79.5 115.27-20.23-1.93-34.63 71.89c13.88-7 29.5-11.02 46.11-11.02 4.8 0 9.53 0.35 14.16 0.98l0.38-10.85h182.27l-18.17 127.05-76.98 0.05c-1.54 10.64-4.7 20.75-9.22 30.1l160.54-0.52c-0.39-1.78-0.85-3.94-0.85-4.58 0-1.91 3.14-4.84 5.55-6.83zm-63.73-150.03l-179.31-0.79 83.39-147.86 98.88 20.96z"/>
	<path class="s4" d="m752.33 628.74h0.01c-0.01 0.61 0.11 3.93 1.37 6.73 1.45 2.92 3.05 4.5 6.34 4.51h160.83l0.01-0.08-28.58-60.01h-139.97z"/>
	<path class="s3" d="m617.43 435.3l115.06 22.91 0.62 121.68h6.91v-127.12l-141.82-29.98-80.5 125.85 20.23 1.93z"/>
	<path class="s5" d="m744.79 628.74c0.02 0.94 0.06 4.65 1.75 8.49 1.51 3.71 5.67 8.37 13.51 8.36h160.71l0.04-2.07 0.09-3.54h-160.84c-3.29-0.01-4.89-1.59-6.34-4.51-1.26-2.8-1.38-6.12-1.37-6.73h-0.01v-48.85h127.15v-23.54h-8.62v11.16h-3.8v-11.16h-7.6v11.16h-3.8v-11.16h-7.6v11.16h-3.81v-11.16h-7.6v11.16h-3.81v-11.16h-7.6v11.16h-3.8v-11.16h-7.6v11.16h-3.8v-11.16h-7.61v11.16h-3.8v-11.16h-7.6v11.16h-3.8v-11.16h-7.6v11.16h-3.81v-11.16h-7.6v11.16h-3.8v-11.16h-7.6v11.16h-3.81v-11.16h-7.92v23.54h-0.27v48.7c-0.01-0.2-0.03-0.05-0.03 0.15z"/>
	<path class="s2" d="m918.77 735.12l-0.13 5.83-0.07 3.21h-29.78q-0.03 0.37-0.03 0.76c2.41 1.97 5.56 4.91 5.56 6.82 0 0.66-0.5 2.94-0.91 4.74-0.34 1.49-0.75 3.24-1.06 4.17l29.09-0.96c0 0 10.13-3.04 10.13-12.64 0-6.71-12.8-11.93-12.8-11.93z"/>
	<path class="s5" d="m543.81 594.09l179.31 0.8 2.96-127.69-98.88-20.97zm143.99-125.07l30.92 6.49v111.54h-30.92zm-12.46-1.3v119.33h-115.72c0 0 4.89-8.34 12.09-20.73q0.01 0 0.01-0.01h0.01c20.37-35.03 59.34-102.65 59.34-107.45z"/>
	<path class="s6" d="m559.62 587.05c0 0 7.14-8.29 12.1-20.73-7.2 12.39-12.1 20.73-12.1 20.73z"/>
	<path class="s6" d="m657.15 566.31v-101.78l18.19 3.19-44.27-8.86c0 4.8-38.97 72.42-59.34 107.45z"/>
	<path class="s7" d="m703.52 587.05h15.2v-111.54l-30.92-6.49 15.72 6.49z"/>
	<path class="s6" d="m703.52 475.51l-15.72-6.49v118.03h15.72z"/>
	<path class="s0" d="m657.15 566.31h-85.42q-0.01 0.01-0.01 0.01c-4.97 12.44-12.1 20.73-12.1 20.73h115.72v-119.33l-18.19-3.19z"/>
	<path class="s5" d="m631.91 712.24c0 4.93-0.39 9.76-1.08 14.5l76.98-0.05 18.17-127.05h-182.27l-0.38 10.85c50.04 6.91 88.58 49.82 88.58 101.75zm50.39-101.12c0 0 15.9 0 20.19 0 4.29 0 3.02 8.69 3.02 8.69h-25.35c0 0-0.87-1.03-0.87-5.12 0.01-4.09 3.01-3.57 3.01-3.57z"/>
	<path class="s4" d="m705.51 619.82c0 0 1.27-8.69-3.02-8.69-4.29 0-20.19 0-20.19 0 0 0-3-0.53-3 3.56 0 4.1 0.86 5.13 0.86 5.13z"/>
	<path class="s8" d="m894.32 751.74c0-1.91-3.16-4.85-5.56-6.83q0-0.38 0.03-0.76 0.02-0.17 0.02-0.34c0-0.39-0.05-0.75-0.05-1.14 2.41-1.98 5.56-4.9 5.55-6.81 0.01-0.66-0.49-2.96-0.9-4.76-0.41-1.8-0.95-4.07-1.24-4.66-0.83-1.73-4.93-3.01-7.96-3.75q-0.48-1.01-0.98-2.02c1.32-2.83 2.88-6.83 2.05-8.52-0.27-0.61-1.73-2.47-2.88-3.91-1.16-1.45-2.63-3.26-3.16-3.67-1.47-1.18-5.7-0.56-8.76 0.1-0.57-0.5-1.18-0.92-1.78-1.39-0.05-3.12-0.37-7.42-1.86-8.61-0.52-0.43-2.62-1.46-4.29-2.26-1.67-0.81-3.78-1.79-4.43-1.94-1.85-0.42-5.43 2-7.9 3.91-0.73-0.17-1.44-0.41-2.2-0.56-1.38-2.79-3.53-6.46-5.37-6.89-0.65-0.15-2.99-0.17-4.84-0.16-1.53-0.01-3.4 0-4.35 0.1q-0.32 0.02-0.49 0.06c-1.06 0.25-2.23 1.59-3.3 3.21-0.77 1.18-1.49 2.49-2.07 3.68-0.74 0.14-1.47 0.38-2.2 0.55-2.47-1.91-6.04-4.32-7.9-3.91-0.65 0.16-2.76 1.13-4.44 1.96-1.67 0.78-3.76 1.81-4.28 2.24-1.49 1.19-1.81 5.49-1.86 8.62-0.6 0.46-1.21 0.88-1.78 1.38-3.05-0.67-7.28-1.29-8.76-0.1-0.53 0.42-2.01 2.23-3.16 3.68-1.16 1.44-2.6 3.3-2.88 3.88-0.82 1.72 0.74 5.72 2.06 8.55q-0.52 1.01-0.98 2.02c-3.05 0.75-7.13 2.02-7.97 3.75-0.27 0.59-0.83 2.86-1.25 4.66-0.41 1.81-0.89 4.1-0.9 4.75 0 1.92 3.15 4.84 5.56 6.82 0 0.39-0.05 0.75-0.05 1.14 0 0.37 0.05 0.72 0.05 1.1-2.41 1.98-5.55 4.91-5.55 6.82 0 0.63 0.46 2.8 0.85 4.58q0.02 0.09 0.04 0.17c0.42 1.81 0.97 4.09 1.25 4.69 0.82 1.69 4.92 2.99 7.97 3.7q0.45 1.05 0.98 2.04c-1.32 2.85-2.88 6.83-2.06 8.54 0.28 0.61 1.74 2.46 2.89 3.9 1.14 1.45 2.61 3.26 3.15 3.67 1.47 1.17 5.71 0.56 8.76-0.09q0.87 0.71 1.78 1.37c0.05 3.14 0.38 7.42 1.86 8.61 0.52 0.42 2.62 1.45 4.3 2.27 1.65 0.8 3.77 1.79 4.42 1.93 1.86 0.44 5.44-1.99 7.9-3.91 0.74 0.19 1.46 0.4 2.2 0.56 1.38 2.79 3.54 6.47 5.37 6.88 0.65 0.15 2.98 0.18 4.84 0.18 1.86 0 4.19-0.03 4.84-0.18 1.84-0.41 3.99-4.09 5.37-6.88 0.76-0.16 1.47-0.38 2.2-0.56 2.49 1.92 6.05 4.34 7.9 3.91 0.64-0.14 2.77-1.15 4.43-1.93 1.67-0.82 3.77-1.85 4.29-2.27 1.49-1.18 1.81-5.48 1.86-8.61 0.6-0.47 1.21-0.89 1.8-1.37 3.03 0.66 7.27 1.26 8.74 0.09 0.52-0.41 2-2.22 3.16-3.68 1.16-1.43 2.61-3.28 2.88-3.89 0.83-1.71-0.73-5.7-2.05-8.54q0.49-0.99 0.97-2.04c3.04-0.71 7.13-2 7.97-3.7 0.05-0.11 0.12-0.33 0.18-0.53 0.3-0.93 0.72-2.68 1.06-4.17 0.41-1.79 0.91-4.07 0.91-4.73zm-56.52 23.73c-17.48 0-31.68-14.18-31.68-31.66 0-17.5 14.2-31.68 31.68-31.68 17.49 0 31.68 14.18 31.68 31.68 0 17.47-14.19 31.66-31.68 31.66z"/>
	<path class="s9" d="m861.77 743.81c-0.03-13.24-10.74-23.94-23.97-23.97-13.24 0.02-23.92 10.72-23.96 23.97 0.04 13.22 10.73 23.92 23.96 23.95 13.24-0.02 23.94-10.74 23.97-23.95zm-38.58-0.01c0-8.07 6.54-14.61 14.61-14.61 8.06 0 14.61 6.54 14.61 14.61 0 8.07-6.55 14.61-14.61 14.61-8.07 0-14.61-6.54-14.61-14.61z"/>
	<path class="s9" d="m869.48 743.81c0-17.51-14.19-31.68-31.68-31.68-17.48 0-31.68 14.17-31.68 31.68 0 17.47 14.2 31.65 31.68 31.65 17.49 0.01 31.68-14.18 31.68-31.65zm-31.68 26.27c-14.51 0-26.27-11.76-26.27-26.27 0-14.53 11.76-26.27 26.27-26.29 14.52 0.02 26.29 11.76 26.29 26.29 0 14.51-11.77 26.27-26.29 26.27z"/>
	<path class="s10" d="m864.09 743.81c0-14.54-11.78-26.28-26.29-26.29-14.51 0.01-26.27 11.75-26.27 26.29 0 14.51 11.76 26.27 26.27 26.27 14.52 0 26.29-11.76 26.29-26.27zm-50.25 0c0.03-13.24 10.73-23.94 23.96-23.97 13.24 0.02 23.94 10.72 23.97 23.97-0.03 13.21-10.74 23.92-23.97 23.95-13.24-0.02-23.93-10.73-23.96-23.95z"/>
	<path class="s11" d="m852.41 743.8c0-8.07-6.55-14.61-14.61-14.61-8.07 0-14.61 6.54-14.61 14.61 0 8.07 6.54 14.61 14.61 14.61 8.06 0 14.61-6.54 14.61-14.61zm-26.75 0.01c0-6.73 5.42-12.16 12.14-12.17 6.72 0.01 12.15 5.44 12.16 12.17-0.01 6.7-5.44 12.14-12.16 12.14-6.72 0-12.14-5.44-12.14-12.14z"/>
	<path class="s11" d="m837.8 754.88c6.13 0 11.06-4.97 11.09-11.07-0.03-6.14-4.96-11.07-11.09-11.09-6.12 0.02-11.06 4.96-11.07 11.09 0.01 6.12 4.95 11.07 11.07 11.07zm5.08-3.34c-0.36 0.27-0.89 0.18-1.15-0.19-0.27-0.37-0.19-0.88 0.18-1.15 0.37-0.28 0.89-0.19 1.16 0.18 0.27 0.38 0.19 0.89-0.19 1.16zm2.09-10.18c0.44-0.16 0.91 0.08 1.05 0.5 0.15 0.44-0.1 0.91-0.52 1.07-0.45 0.13-0.9-0.11-1.05-0.55-0.13-0.42 0.1-0.9 0.52-1.02zm-7.17-5.46c0.46 0 0.83 0.37 0.83 0.82 0 0.47-0.37 0.83-0.83 0.83-0.46 0-0.82-0.36-0.82-0.83 0-0.45 0.36-0.82 0.82-0.82zm-7.68 7.03c-0.44-0.16-0.68-0.63-0.54-1.07 0.14-0.42 0.61-0.66 1.05-0.5 0.43 0.12 0.67 0.6 0.53 1.02-0.14 0.44-0.62 0.68-1.04 0.55zm3.76 8.42c-0.28 0.38-0.8 0.47-1.16 0.19-0.36-0.27-0.45-0.78-0.18-1.15 0.27-0.38 0.78-0.46 1.16-0.19 0.37 0.27 0.45 0.78 0.18 1.15zm-0.99-7.55c0-2.72 2.21-4.92 4.91-4.92 2.72 0 4.92 2.2 4.92 4.92 0 2.72-2.2 4.92-4.92 4.92-2.7 0-4.91-2.21-4.91-4.92z"/>
	<path class="s8" d="m837.8 748.72c2.72 0 4.92-2.2 4.92-4.92 0-2.72-2.2-4.92-4.92-4.92-2.7 0-4.91 2.2-4.91 4.92 0 2.71 2.21 4.92 4.91 4.92zm2.36-4.92c0 1.29-1.05 2.35-2.36 2.35-0.78 0-1.49-0.39-1.92-1 0.39 0.27 0.86 0.44 1.36 0.44 1.3 0 2.36-1.06 2.36-2.35q-0.01-0.77-0.43-1.37c0.6 0.43 0.99 1.12 0.99 1.93z"/>
	<path class="s12" d="m837.24 745.59c-0.5 0-0.97-0.17-1.36-0.44 0.43 0.61 1.14 1 1.92 1 1.31 0 2.36-1.06 2.36-2.35 0-0.81-0.39-1.5-0.99-1.93q0.42 0.61 0.43 1.37c0 1.29-1.06 2.35-2.36 2.35z"/>
	<path class="s8" d="m845.51 742.93c0.42-0.16 0.66-0.63 0.52-1.07-0.15-0.42-0.61-0.66-1.05-0.5-0.43 0.12-0.65 0.6-0.52 1.02 0.14 0.44 0.6 0.68 1.05 0.55zm-0.88-0.7l1.15-0.38 0.07 0.18-1.17 0.38z"/>
	<path class="s12" d="m845.78 741.85l-1.15 0.38 0.05 0.18 1.17-0.38z"/>
	<path class="s8" d="m841.91 750.2c-0.37 0.27-0.45 0.78-0.18 1.15 0.26 0.38 0.79 0.47 1.15 0.19 0.38-0.27 0.46-0.78 0.19-1.15-0.27-0.38-0.79-0.46-1.16-0.19zm0.77 1.21l-0.71-0.98 0.14-0.1 0.72 0.98z"/>
	<path class="s12" d="m841.97 750.43l0.71 0.98 0.15-0.1-0.71-0.98z"/>
	<path class="s8" d="m832.54 750.39c-0.27 0.36-0.18 0.88 0.18 1.15 0.36 0.27 0.88 0.18 1.16-0.19 0.27-0.37 0.19-0.88-0.18-1.15-0.38-0.27-0.89-0.19-1.16 0.19zm0.4 1.02l-0.16-0.1 0.71-0.98 0.15 0.1z"/>
	<path class="s12" d="m832.78 751.31l0.16 0.1 0.7-0.98-0.15-0.1z"/>
	<path class="s8" d="m830.63 741.36c-0.44-0.16-0.91 0.08-1.05 0.5-0.14 0.44 0.1 0.91 0.54 1.07 0.43 0.13 0.9-0.11 1.04-0.56 0.14-0.41-0.1-0.89-0.53-1.01zm0.3 1.05l-1.17-0.38 0.05-0.18 1.16 0.38z"/>
	<path class="s12" d="m829.74 741.99l0.06-0.18 1.16 0.38-0.05 0.17z"/>
	<path class="s8" d="m837.8 737.55c0.46 0 0.83-0.36 0.83-0.83 0-0.45-0.37-0.82-0.83-0.82-0.46 0-0.82 0.37-0.82 0.82 0 0.46 0.36 0.83 0.82 0.83z"/>
	<path class="s8" d="m837.8 755.95c6.72 0 12.15-5.44 12.16-12.14-0.01-6.73-5.44-12.16-12.16-12.17-6.72 0.01-12.14 5.44-12.14 12.17 0 6.7 5.42 12.14 12.14 12.14zm-11.07-12.14c0.01-6.14 4.95-11.07 11.08-11.09 6.12 0.02 11.06 4.96 11.08 11.09-0.02 6.1-4.96 11.06-11.08 11.07-6.13-0.01-11.07-4.95-11.08-11.07z"/>
	<path class="s13" d="m631.91 712.24c0-51.93-38.54-94.84-88.58-101.75-4.63-0.63-9.35-0.98-14.16-0.98-16.6 0-32.23 4.02-46.11 11.02l-2.76 5.71 2.65 6.32c0.08-0.08 0.14-0.19 0.22-0.25 0.83-0.67 4.14-2.31 6.8-3.55 2.66-1.32 6.01-2.86 7.05-3.1 2.94-0.68 8.62 3.15 12.53 6.19 1.17-0.28 2.32-0.64 3.5-0.88 0.92-1.87 2.05-3.96 3.29-5.84 1.69-2.58 3.54-4.69 5.23-5.09 0.17-0.05 0.46-0.07 0.77-0.1 1.52-0.16 4.48-0.18 6.91-0.16 2.94-0.02 6.66 0.01 7.69 0.25 2.92 0.68 6.33 6.51 8.53 10.94 1.2 0.24 2.34 0.6 3.49 0.88 3.93-3.04 9.6-6.87 12.55-6.2 1.02 0.24 4.39 1.79 7.02 3.07 2.65 1.28 5.99 2.92 6.82 3.59 2.37 1.89 2.87 8.72 2.95 13.68 0.95 0.73 1.91 1.41 2.82 2.19 4.85-1.04 11.57-2.03 13.91-0.15 0.84 0.64 3.17 3.54 5.01 5.83 1.83 2.29 4.14 5.23 4.57 6.19 1.32 2.71-1.17 9.05-3.25 13.53q0.79 1.61 1.54 3.22c4.83 1.17 11.33 3.22 12.65 5.94 0.46 0.94 1.31 4.54 1.97 7.4 0.66 2.87 1.44 6.51 1.43 7.56 0.01 3.02-5.01 7.67-8.82 10.81 0 0.61 0.08 1.19 0.08 1.81 0 0.56-0.08 1.14-0.08 1.75 3.82 3.13 8.83 7.81 8.83 10.83 0 1.06-0.78 4.67-1.44 7.53-0.66 2.88-1.53 6.51-1.97 7.46-1.32 2.7-7.82 4.73-12.65 5.88q-0.75 1.65-1.54 3.24c1.41 3.02 2.96 6.86 3.45 9.89l16.8-0.06q0 0.01 0 0c4.52-9.35 7.67-19.47 9.21-30.11 0.7-4.73 1.09-9.56 1.09-14.49z"/>
	<path class="s8" d="m601.36 747q0.79-1.58 1.55-3.24c4.82-1.14 11.32-3.18 12.64-5.88 0.45-0.94 1.32-4.57 1.97-7.46 0.66-2.85 1.45-6.46 1.45-7.52 0-3.03-5.02-7.7-8.83-10.84 0-0.6 0.07-1.19 0.07-1.74 0-0.62-0.07-1.21-0.07-1.81 3.81-3.14 8.83-7.79 8.81-10.81 0.02-1.05-0.77-4.7-1.43-7.56-0.65-2.87-1.51-6.46-1.97-7.4-1.32-2.73-7.82-4.78-12.64-5.95q-0.76-1.61-1.55-3.21c2.08-4.48 4.57-10.83 3.26-13.53-0.44-0.96-2.75-3.91-4.58-6.19-1.83-2.3-4.17-5.19-5-5.84-2.35-1.88-9.07-0.9-13.92 0.16-0.9-0.78-1.86-1.46-2.82-2.2-0.08-4.95-0.58-11.78-2.95-13.67-0.83-0.67-4.16-2.31-6.81-3.59-2.64-1.28-6-2.84-7.03-3.07-2.95-0.67-8.62 3.16-12.54 6.2-1.16-0.29-2.3-0.65-3.5-0.89-2.19-4.43-5.6-10.26-8.53-10.93-1.02-0.24-4.75-0.28-7.68-0.26-2.44-0.02-5.4 0-6.91 0.16-0.32 0.03-0.6 0.06-0.77 0.1-1.7 0.4-3.55 2.52-5.24 5.1-1.24 1.88-2.37 3.96-3.29 5.84-1.18 0.23-2.33 0.6-3.5 0.88-3.91-3.04-9.58-6.87-12.53-6.2-1.03 0.25-4.39 1.79-7.04 3.1-2.66 1.25-5.98 2.89-6.81 3.56-0.08 0.06-0.14 0.17-0.21 0.24-2.17 2.14-2.66 8.64-2.74 13.43-0.94 0.74-1.92 1.41-2.82 2.2-4.85-1.06-11.56-2.04-13.91-0.16-0.83 0.66-3.19 3.54-5.02 5.83-1.82 2.29-4.11 5.23-4.56 6.18-1.31 2.72 1.16 9.07 3.26 13.55q-0.83 1.6-1.55 3.21c-2.71 0.67-5.92 1.62-8.47 2.78-2 0.92-3.6 1.97-4.19 3.17-0.44 0.94-1.3 4.54-1.97 7.4-0.66 2.88-1.43 6.51-1.44 7.56 0 2.71 4 6.71 7.6 9.77q0.63 0.55 1.24 1.04c-0.01 0.61-0.09 1.19-0.09 1.81 0 0.58 0.07 1.15 0.09 1.75q-0.61 0.5-1.24 1.04c-3.59 3.07-7.59 7.09-7.59 9.79 0 1.03 0.78 4.67 1.43 7.55 0.66 2.86 1.53 6.49 1.97 7.44 0.58 1.18 2.19 2.24 4.19 3.15 2.55 1.16 5.76 2.09 8.47 2.73q0.72 1.66 1.55 3.24c-2.1 4.5-4.58 10.84-3.26 13.56 0.45 0.96 2.75 3.89 4.58 6.19 1.81 2.3 4.17 5.17 5 5.82 2.35 1.86 9.06 0.9 13.91-0.14 0.9 0.75 1.88 1.46 2.82 2.18 0.08 4.98 0.6 11.78 2.96 13.66 0.82 0.67 4.15 2.3 6.81 3.6 2.65 1.27 6 2.84 7.03 3.08 2.95 0.68 8.62-3.16 12.54-6.23 1.16 0.3 2.32 0.66 3.5 0.91 2.2 4.42 5.6 10.26 8.52 10.91 1.03 0.24 4.75 0.3 7.68 0.3 2.95 0 6.66-0.06 7.69-0.3 2.92-0.65 6.33-6.49 8.53-10.91 1.19-0.25 2.33-0.6 3.49-0.91 3.95 3.07 9.6 6.9 12.54 6.23 1.01-0.24 4.4-1.84 7.03-3.08 2.66-1.3 5.99-2.93 6.81-3.6 2.37-1.88 2.87-8.71 2.95-13.66 0.96-0.74 1.92-1.43 2.85-2.2 4.82 1.05 11.54 2.02 13.89 0.14 0.83-0.63 3.17-3.51 5.01-5.82 1.85-2.28 4.14-5.21 4.59-6.17 0.42-0.89 0.42-2.19 0.18-3.67-0.49-3.03-2.05-6.87-3.46-9.9zm-72.1 13.56c-27.76 0-50.28-22.51-50.28-50.24 0-27.78 22.52-50.29 50.28-50.29 27.76 0 50.29 22.5 50.29 50.29 0 27.73-22.53 50.24-50.29 50.24z"/>
	<path class="s9" d="m567.29 710.32c-0.03-21.02-17.03-38.01-38.03-38.06-21.02 0.05-37.99 17.04-38.04 38.06 0.05 20.99 17.02 37.98 38.04 38.01 21-0.03 38-17.05 38.03-38.01zm-61.22-0.02c0-12.82 10.38-23.18 23.19-23.18 12.8 0 23.18 10.36 23.18 23.18 0 12.81-10.39 23.19-23.18 23.19-12.81 0-23.19-10.38-23.19-23.19z"/>
	<path class="s9" d="m579.55 710.32c0-27.78-22.53-50.29-50.29-50.29-27.76 0-50.28 22.5-50.28 50.29 0 27.73 22.52 50.24 50.28 50.24 27.76 0 50.29-22.51 50.29-50.24zm-92 0c0-23.08 18.67-41.71 41.71-41.74 23.04 0.03 41.72 18.66 41.72 41.74 0 23.02-18.68 41.69-41.72 41.69-23.04 0-41.71-18.67-41.71-41.69z"/>
	<path class="s10" d="m570.98 710.32c0-23.08-18.68-41.71-41.72-41.74-23.04 0.03-41.71 18.66-41.71 41.74 0 23.02 18.67 41.69 41.71 41.69 23.04 0 41.72-18.67 41.72-41.69zm-79.76 0c0.05-21.02 17.02-38.01 38.04-38.06 21 0.05 38 17.04 38.03 38.06-0.03 20.96-17.03 37.98-38.03 38.01-21.02-0.03-37.99-17.02-38.04-38.01z"/>
	<path class="s11" d="m552.44 710.3c0-12.82-10.39-23.18-23.18-23.18-12.81 0-23.19 10.36-23.19 23.18 0 12.81 10.38 23.19 23.19 23.19 12.8 0 23.18-10.38 23.18-23.19zm-42.46 0.02c0-10.68 8.62-19.3 19.28-19.33 10.66 0.03 19.28 8.65 19.29 19.33-0.01 10.63-8.63 19.26-19.29 19.26-10.66 0-19.28-8.63-19.28-19.26z"/>
	<path class="s11" d="m546.85 710.32c-0.04-9.75-7.88-17.58-17.59-17.6-9.73 0.02-17.57 7.85-17.58 17.6 0.01 9.7 7.85 17.55 17.58 17.57 9.71-0.02 17.55-7.89 17.59-17.57zm-6.2-3.9c0.7-0.25 1.42 0.14 1.66 0.82 0.22 0.68-0.16 1.43-0.84 1.68-0.71 0.2-1.43-0.16-1.66-0.87-0.21-0.67 0.16-1.44 0.84-1.63zm-3.34 16.16c-0.57 0.45-1.39 0.31-1.81-0.3-0.44-0.58-0.31-1.4 0.28-1.82 0.58-0.44 1.42-0.3 1.83 0.29 0.44 0.58 0.31 1.41-0.3 1.83zm-8.05-24.82c0.71 0 1.3 0.59 1.3 1.3 0 0.74-0.59 1.32-1.3 1.32-0.73 0-1.31-0.58-1.31-1.32 0-0.71 0.58-1.3 1.31-1.3zm-10.55 10.29c-0.23 0.71-0.97 1.07-1.65 0.87-0.7-0.25-1.07-1-0.86-1.68 0.23-0.68 0.97-1.07 1.67-0.82 0.68 0.19 1.06 0.96 0.84 1.63zm4.32 14.23c-0.44 0.61-1.25 0.74-1.84 0.3-0.58-0.42-0.71-1.24-0.28-1.83 0.41-0.59 1.24-0.73 1.83-0.29 0.59 0.42 0.72 1.24 0.29 1.82zm-1.58-11.98c0-4.31 3.51-7.81 7.81-7.81 4.31 0 7.81 3.5 7.81 7.81 0 4.3-3.51 7.8-7.81 7.8-4.31 0-7.81-3.5-7.81-7.8z"/>
	<path class="s8" d="m537.07 710.3c0-4.31-3.5-7.81-7.81-7.81-4.3 0-7.81 3.5-7.81 7.81 0 4.3 3.51 7.8 7.81 7.8 4.31 0 7.81-3.5 7.81-7.8zm-10.86 2.14c0.62 0.44 1.37 0.71 2.17 0.71 2.05 0 3.72-1.69 3.72-3.73 0-0.82-0.25-1.55-0.68-2.18 0.95 0.68 1.59 1.8 1.59 3.06 0 2.05-1.68 3.73-3.75 3.73-1.25 0-2.37-0.62-3.05-1.59z"/>
	<path class="s12" d="m533.01 710.3c0-1.26-0.65-2.38-1.59-3.06 0.43 0.63 0.68 1.36 0.68 2.18 0 2.04-1.67 3.73-3.72 3.73-0.8 0-1.55-0.27-2.17-0.71 0.68 0.97 1.8 1.59 3.05 1.59 2.07 0 3.75-1.68 3.75-3.73z"/>
	<path class="s8" d="m541.47 708.92c0.68-0.25 1.06-1 0.84-1.68-0.24-0.68-0.96-1.07-1.66-0.82-0.68 0.2-1.05 0.96-0.84 1.63 0.24 0.71 0.95 1.07 1.66 0.87zm0.46-1.72l0.1 0.29-1.84 0.59-0.1-0.27z"/>
	<path class="s12" d="m542.03 707.49l-0.1-0.29-1.84 0.6 0.1 0.28z"/>
	<path class="s8" d="m535.78 720.46c-0.59 0.42-0.72 1.24-0.29 1.82 0.43 0.61 1.25 0.74 1.82 0.3 0.61-0.42 0.73-1.24 0.3-1.83-0.42-0.59-1.25-0.73-1.83-0.29zm1.21 1.91l-1.11-1.55 0.23-0.16 1.13 1.55z"/>
	<path class="s12" d="m535.88 720.82l1.11 1.55 0.25-0.16-1.13-1.55z"/>
	<path class="s8" d="m520.91 720.75c-0.43 0.58-0.3 1.41 0.28 1.83 0.59 0.45 1.39 0.31 1.84-0.3 0.43-0.58 0.3-1.4-0.29-1.82-0.59-0.44-1.41-0.3-1.83 0.29zm0.62 1.62l-0.24-0.16 1.13-1.55 0.24 0.16z"/>
	<path class="s12" d="m521.29 722.21l0.24 0.16 1.13-1.55-0.24-0.16z"/>
	<path class="s8" d="m517.87 706.42c-0.7-0.25-1.44 0.14-1.67 0.82-0.22 0.68 0.16 1.43 0.86 1.68 0.68 0.2 1.42-0.16 1.65-0.87 0.22-0.67-0.16-1.44-0.84-1.63zm0.47 1.66l-1.85-0.59 0.09-0.29 1.84 0.6z"/>
	<path class="s12" d="m516.49 707.49l1.85 0.59 0.08-0.28-1.84-0.6z"/>
	<path class="s8" d="m529.26 700.38c0.71 0 1.3-0.58 1.3-1.32 0-0.71-0.59-1.3-1.3-1.3-0.73 0-1.31 0.59-1.31 1.3 0 0.74 0.58 1.32 1.31 1.32z"/>
	<path class="s8" d="m548.55 710.32c-0.01-10.68-8.63-19.3-19.29-19.33-10.66 0.03-19.28 8.65-19.28 19.33 0 10.63 8.62 19.26 19.28 19.26 10.66 0 19.28-8.63 19.29-19.26zm-36.87 0c0.01-9.75 7.85-17.58 17.58-17.6 9.71 0.02 17.55 7.85 17.59 17.6-0.04 9.68-7.88 17.55-17.59 17.57-9.73-0.02-17.57-7.87-17.58-17.57z"/>
	<path class="s0" d="m436.51 577.97l10.64 1.87 11.33 1.99 2.32-13.18-13.65-2.39-8.33-1.47z"/>
	<path class="s3" d="m439.14 563.02l-4.93-0.86c-2.25-3.12-5.89-5.18-10.04-5.18-6.85 0-12.41 5.56-12.41 12.42 0 6.84 5.56 12.4 12.41 12.4 2.59 0 4.98-0.79 6.97-2.14l4.92 0.86 0.45-2.54 2.31-13.18zm-21.01 6.37c0-3.35 2.71-6.06 6.05-6.06 3.34 0 6.05 2.71 6.05 6.06 0 3.34-2.71 6.05-6.05 6.05-3.34 0-6.05-2.71-6.05-6.05z"/>
	<path class="s0" d="m430.22 569.39c0-3.34-2.71-6.05-6.05-6.05-3.34 0-6.05 2.71-6.05 6.05 0 3.34 2.71 6.05 6.05 6.05 3.34 0 6.05-2.71 6.05-6.05z"/>
	<path class="s3" d="m457.19 589.21l7.78 1.36 0.26-1.43 24.18 4.24-9.1 32.86 2.75-5.72 34.64-71.88-16.15 0.92-6.39 23.08-26.23-4.6 0.42-2.45-7.78-1.36-0.77 4.42-2.32 13.18z"/>
	<path class="s0" d="m474.79 346.74c2.92 0 5.3-2.38 5.3-5.3 0-2.92-2.38-5.29-5.3-5.29-2.92 0-5.3 2.37-5.3 5.29 0 2.92 2.38 5.3 5.3 5.3z"/>
	<g id="Clip-Path" clip-path="url(#cp3)">
		<g>
		</g>
	</g>
	<g id="Clip-Path" clip-path="url(#cp4)">
		<g>
			<path class="s0" d="m942.6 798.14c0 9.02-149.61 16.33-334.16 16.33-184.55 0-334.16-7.31-334.16-16.33 0-9.02 149.61-16.33 334.16-16.33 184.55 0 334.16 7.3 334.16 16.33z"/>
		</g>
	</g>
	<g id="Clip-Path" clip-path="url(#cp5)">
		<g>
			<path class="s2" d="m445.19 735.03c-0.45-0.97-1.35-4.7-2.02-7.64-0.67-2.95-1.48-6.69-1.48-7.75 0-2.79 4.11-6.92 7.8-10.07v-5.79c-3.69-3.15-7.8-7.26-7.8-10.05 0.01-1.08 0.79-4.81 1.48-7.77 0.68-2.94 1.57-6.63 2.02-7.61 0.61-1.22 2.25-2.31 4.3-3.25v-102.51l-10.93-1.92-0.47 2.62-5.05-0.9c-2.04 1.39-4.51 2.21-7.16 2.21-7.05 0-12.76-5.71-12.76-12.75 0-7.05 5.71-12.76 12.76-12.76 4.26 0 8.01 2.11 10.32 5.32l5.06 0.89-0.32 1.81 8.56 1.51v-26.93h47.99v-11.7h-47.99v-179.7h57.09v-26.32h-69.55v-19.65h-54.31v45.97h4.64v228.45h-14.13v-45.75h-23.85v221l-204.12 24.54h227.97v-80.53h14.13v77.07h62.12v-26.8c-2.05-0.94-3.71-2.01-4.3-3.24zm32.72-412.91c3 0 5.44 2.44 5.44 5.45 0 3-2.44 5.44-5.44 5.44-3.01 0-5.45-2.44-5.45-5.44 0-3.01 2.44-5.45 5.45-5.45zm-90.54 351.63h-14.13v-90.74h14.13z"/>
		</g>
	</g>
</svg>